<?xml version="1.0" encoding="utf-8"?>
<!-- Generator: Adobe Illustrator 22.1.0, SVG Export Plug-In . SVG Version: 6.00 Build 0)  -->
<svg version="1.1" id="Layer_1" xmlns="http://www.w3.org/2000/svg" xmlns:xlink="http://www.w3.org/1999/xlink" x="0px" y="0px"
	 viewBox="0 0 469.4 458.6" style="enable-background:new 0 0 469.4 458.6;" xml:space="preserve">
<style type="text/css">
	.st0{fill:#D1E7FF;}
	.st1{fill:#B9DCFF;}
	.st2{fill:#E8F3FF;}
	.st3{fill:#3399FF;}
	.st4{fill:#A2D0FF;}
	.st5{fill:#8BC4FF;}
	.st6{fill:#CCE4FF;}
</style>
<path class="st4" d="M387,412.8V451c0,4.3-3.5,7.8-7.8,7.8H95.4c-4.3,0-7.8-3.5-7.8-7.8v-38.2c0-39.9,32.2-72.9,72.1-72.5
	c22.5,0.2,40.7-17.9,40.7-40.2v-6.6l0.1-0.4c2.4,1,4.8,1.9,7.3,2.7c-37.6-12.2-66.8-47.3-66.8-91.6v-22c-5.5,0.4-11,0.7-16.5,0.7
	c-4.3,0-7.8-3.5-7.8-7.8v-70.6c0-53.4,43.3-96.7,96.7-96.7h47.6c53.4,0,96.7,43.3,96.7,96.7v72.9c0,12.9-10.4,23.9-24.3,23.9v3
	c0,40.1-24.5,74.5-59.5,88.9l0.1,0.4v6.6c0,22.3,18.2,40.4,40.7,40.2C354.8,339.9,387,372.9,387,412.8z"/>
<path class="st1" d="M387,412.8V451c0,4.3-3.5,7.8-7.8,7.8H95.4c-4.3,0-7.8-3.5-7.8-7.8v-38.2c0-39.9,32.2-72.9,72.1-72.5
	c5.8,0.1,11.4-1.1,16.5-3.3v0c11.7,26.7,39.7,42.9,68.9,39.5c23.3-2.7,43.8-17.6,53.4-39.5v0c5,2.2,10.6,3.4,16.5,3.3
	C354.8,339.9,387,372.9,387,412.8z"/>
<path class="st0" d="M357.9,104.4v72.9c0,12.9-10.4,23.9-24.3,23.9v-44.9c0-3.3-2.1-6.2-5.1-7.3c-16.8-6.1-31.2-17.9-40.4-33.7
	c-2.7-4.6-9.1-5.1-12.6-1.1c-38.2,44.3-92.8,68.7-150.9,68.7c-4.3,0-7.8-3.5-7.8-7.8v-70.6c0-53.4,43.3-96.7,96.7-96.7h47.6
	C314.6,7.6,357.9,50.9,357.9,104.4z"/>
<path class="st1" d="M333.6,204.1c0,40.1-24.5,74.5-59.5,88.9c-62.9,26.1-133-20.2-133-88.9v-22c53.1-4.3,100.6-28.8,134.4-68
	c3.5-4,9.9-3.5,12.6,1.1c9.2,15.8,23.6,27.6,40.4,33.7c3.1,1.1,5.1,4,5.1,7.3V204.1z"/>
<path class="st0" d="M180.7,345.5c5.5,8.9,0.7,20.6-9.4,23.2c-24.4,6.3-56.4,22.8-56.4,69.2v20.9H95.4c-4.3,0-7.8-3.5-7.8-7.8v-38.2
	c0-29,17.1-54.5,42.7-66.1h0c23.2-10.4,29.7-3,45.9-9.7C177.5,340,179,342.8,180.7,345.5L180.7,345.5z"/>
<path class="st4" d="M293.7,345.5c-5.5,8.9-0.7,20.6,9.4,23.2c24.4,6.3,56.4,22.8,56.4,69.2v20.9h19.4c4.3,0,7.8-3.5,7.8-7.8v-38.2
	c0-29-17.1-54.5-42.7-66.1h0c-23.2-10.4-29.7-3-45.9-9.7C296.8,340,295.3,342.8,293.7,345.5L293.7,345.5z"/>
<path class="st5" d="M275.4,309.4c-24,10-50.3,10.8-76.1,0c1.3-5.5,1.1-9,1.1-16l0.1-0.4c23.4,9.7,50.1,9.7,73.6,0l0.1,0.4
	C274.3,300.4,274.1,304,275.4,309.4L275.4,309.4z"/>
<path class="st2" d="M297.6,14.7c11.8,4.8,7.9,22.4-4.9,22.1c-2,0-51,0-50,0c-53.4,0-96.7,43.3-96.7,96.7V171
	c0,6.2-4.9,11.2-11,11.5c-3.4,0.2-6.9,0.3-10.4,0.3c-4.3,0-7.8-3.5-7.8-7.8v-70.6c0-53.4,43.3-96.7,96.7-96.7h47.6
	C274,7.6,286.3,10.2,297.6,14.7z"/>
<path class="st0" d="M206.8,260.2c15.7,12.4-1.1,36.8-18.4,26.7c-27.5-16.1-47.4-45.4-47.4-82.8v-22c9.9-0.8,19.7-2.3,29.2-4.5v7.1
	C170.2,216,184.8,242.9,206.8,260.2z"/>
<path class="st3" d="M108.5,141.8v-39.2C108.5,46,154.6-0.1,211.3-0.1h47.8c56.7,0,102.8,46.1,102.8,102.8v71.7
	c0,4.2-3.4,7.6-7.6,7.6s-7.6-3.4-7.6-7.6v-71.7c0-48.2-39.2-87.5-87.5-87.5h-47.8c-48.2,0-87.5,39.2-87.5,87.5v39.2
	c0,4.2-3.4,7.6-7.6,7.6C111.9,149.5,108.5,146,108.5,141.8z M310.6,327c-11.3,0-21.5-5.7-27.3-15.3c-2.2-3.6-6.9-4.8-10.5-2.6
	c-3.6,2.2-4.8,6.9-2.6,10.5c8.7,14.2,23.8,22.7,40.4,22.7c35.2,0,63.6,28.5,63.6,63.6v45.2c0,4.2,3.4,7.6,7.6,7.6s7.6-3.4,7.6-7.6
	v-45.2C389.6,362.3,354.3,327,310.6,327L310.6,327z M272.1,349.3c-27.5,23.1-69.1,16-87.3-14.8c11.8-7.8,19.9-20.6,21.1-35.6
	c9.3,2.7,19,4.2,28.8,4.2C292,303,337,256,337,201.3c0-0.5,0-52.8,0-53.3c0-3.2-2-5.9-4.8-7c-1.9-0.8-32.4-7.7-45.5-40.7
	c-2.2-5.5-9.6-6.6-13.2-1.8c-34.4,45.1-86.3,71.3-141.5,73.5c-4.2,0.2-7.5,3.7-7.3,7.9c0.2,4.3,3.8,7.5,7.9,7.3
	c55.6-2.2,108.3-27.1,145.3-70c10.2,17.4,25.8,29.9,43.7,36.4v47.1c0,48-39,87-87,87c-43.2,0-80.3-32.2-86.2-75
	c-0.6-4.2-4.4-7.1-8.6-6.5c-4.2,0.6-7.1,4.4-6.5,8.6c4.6,33.4,25.7,63.2,57.4,78.3v2c0,17.6-14.3,31.9-32,31.9
	c-43.6,0-78.9,35.3-78.9,78.9v45.2c0,4.2,3.4,7.6,7.6,7.6c4.2,0,7.6-3.4,7.6-7.6v-45.2c0-35.2,28.5-63.6,63.6-63.6c4,0,8-0.5,12-1.5
	c22.5,40.2,76,49.9,111.2,20.2c3.2-2.7,3.6-7.5,0.9-10.8C280.2,347,275.3,346.6,272.1,349.3L272.1,349.3z"/>
</svg>
