<?xml version="1.0" encoding="utf-8"?>
<!-- Generator: Adobe Illustrator 22.1.0, SVG Export Plug-In . SVG Version: 6.00 Build 0)  -->
<svg version="1.1" id="Layer_1" xmlns="http://www.w3.org/2000/svg" xmlns:xlink="http://www.w3.org/1999/xlink" x="0px" y="0px"
	 viewBox="0 0 469.4 458.6" style="enable-background:new 0 0 469.4 458.6;" xml:space="preserve">
<style type="text/css">
	.st0{fill:#D1E7FF;}
	.st1{fill:#B9DCFF;}
	.st2{fill:#E8F3FF;}
	.st3{fill:#3399FF;}
	.st4{fill:#A2D0FF;}
	.st5{fill:#8BC4FF;}
	.st6{fill:#CCE4FF;}
</style>
<path class="st2" d="M329.3,7.6H83.7c-8.4,0-15.3,6.8-15.3,15.3v412.7c0,8.4,6.8,15.3,15.3,15.3h301.9c8.4,0,15.3-6.8,15.3-15.3
	V79.3L329.3,7.6z"/>
<path class="st0" d="M400.9,211.8v223.8c0,8.4-6.8,15.3-15.3,15.3H83.7c-8.4,0-15.3-6.8-15.3-15.3v-139c0-9.5,8.5-16.7,17.8-15.1
	c108.1,18.4,213.9-3.6,288.5-80.5C384.3,191.3,400.9,198.2,400.9,211.8L400.9,211.8z"/>
<path class="st4" d="M400.9,399.4v36.3c0,8.4-6.8,15.3-15.3,15.3H83.7c-8.4,0-15.3-6.8-15.3-15.3v-36.3H400.9z"/>
<path class="st0" d="M400.9,79.3h-56.4c-8.4,0-15.3-6.8-15.3-15.3V7.6L400.9,79.3z"/>
<g>
	<path class="st3" d="M406.3,73.9l-38.7-38.7c-3-3-7.8-3-10.8,0c-3,3-3,7.8,0,10.8l36.5,36.5v309.3H106.6c-4.2,0-7.6,3.4-7.6,7.6
		s3.4,7.6,7.6,7.6h286.7v28.7c0,4.2-3.4,7.6-7.6,7.6H83.7c-4.2,0-7.6-3.4-7.6-7.6V22.9c0-4.2,3.4-7.6,7.6-7.6h237.9V64
		c0,12.6,10.3,22.9,22.9,22.9h11c4.2,0,7.6-3.4,7.6-7.6s-3.4-7.6-7.6-7.6h-11c-4.2,0-7.6-3.4-7.6-7.6V7.6c0-4.2-3.4-7.6-7.6-7.6
		H83.7C71.1,0,60.8,10.3,60.8,22.9v412.7c0,12.6,10.3,22.9,22.9,22.9h301.9c12.6,0,22.9-10.3,22.9-22.9V79.3
		C408.6,77.3,407.8,75.3,406.3,73.9z"/>
</g>
<path class="st3" d="M138.9,128.1h191.7c4.1,0,7.5-3.4,7.5-7.5v0c0-4.1-3.4-7.5-7.5-7.5H138.9c-4.1,0-7.5,3.4-7.5,7.5v0
	C131.4,124.7,134.8,128.1,138.9,128.1z"/>
<path class="st3" d="M138.9,163.3h191.7c4.1,0,7.5-3.4,7.5-7.5v0c0-4.1-3.4-7.5-7.5-7.5H138.9c-4.1,0-7.5,3.4-7.5,7.5v0
	C131.4,160,134.8,163.3,138.9,163.3z"/>
<path class="st3" d="M138.9,198.5h191.7c4.1,0,7.5-3.4,7.5-7.5v0c0-4.1-3.4-7.5-7.5-7.5H138.9c-4.1,0-7.5,3.4-7.5,7.5v0
	C131.4,195.2,134.8,198.5,138.9,198.5z"/>
</svg>
