<?xml version="1.0" encoding="utf-8"?>
<!-- Generator: Adobe Illustrator 22.1.0, SVG Export Plug-In . SVG Version: 6.00 Build 0)  -->
<svg version="1.1" id="Layer_1" xmlns="http://www.w3.org/2000/svg" xmlns:xlink="http://www.w3.org/1999/xlink" x="0px" y="0px"
	 viewBox="0 0 469.4 458.6" style="enable-background:new 0 0 469.4 458.6;" xml:space="preserve">
<style type="text/css">
	.st0{fill:#D1E7FF;}
	.st1{fill:#B9DCFF;}
	.st2{fill:#E8F3FF;}
	.st3{fill:#3399FF;}
	.st4{fill:#A2D0FF;}
	.st5{fill:#8BC4FF;}
	.st6{fill:#CCE4FF;}
</style>
<g>
	<path class="st0" d="M433.8,69.1C382.7,9.4,295.8,1,234.7,45.2C136.4-25.5,0.4,45.3,0,165c0,86.3,45.9,156.4,112.8,209.4
		c54.1,42.8,108.4,63.7,114.4,65.9c4.6,1.8,10.2,1.8,15.1,0c6-2.2,60.3-23.1,114.4-65.9c66.9-52.9,112.8-123,112.8-209.4
		C469.3,129.8,456.6,95.8,433.8,69.1L433.8,69.1z"/>
	<path class="st2" d="M234.7,45.2C138.3-24.2,0.4,43.2,0,165c0,65.9,26.7,123.4,71.8,171.7c66.6,8.6,144.7,5.4,210.5-33.7
		c60.6-36,120-47.2,169-47.8c12-28.8,18.1-59,18.1-90.3C469,42.7,330.6-24.1,234.7,45.2L234.7,45.2z"/>
	<path class="st2" d="M1.4,144.9c30.5-11.4,80.2-20.8,123.2,13.7c53.6,43.1,245.9,41.3,344.2-6.8C458.1,36.8,326.4-21.1,234.7,45.2
		C144.5-19.7,16.6,34.7,1.4,144.9z"/>
	<g>
		<path class="st3" d="M433.8,69.1C382.7,9.4,295.8,1,234.7,45.2C136.4-25.5,0.4,45.3,0,165c0,86.3,45.9,156.4,112.8,209.4
			c54.1,42.8,108.4,63.7,114.4,65.9c4.6,1.8,10.2,1.8,15.1,0c6-2.2,60.3-23.1,114.4-65.9c66.9-52.9,112.8-123,112.8-209.4
			C469.3,129.8,456.6,95.8,433.8,69.1L433.8,69.1z M234.7,411C208.5,400.6,30,323.9,30,165C30.3,64.6,148.7,10.3,225,75.6
			c5.6,4.8,13.9,4.8,19.5,0c77-65.9,194.6-10.2,195,89.4C439.4,323.8,261.2,400.5,234.7,411L234.7,411z"/>
	</g>
	<polygon class="st6" points="255.5,302 255.5,250.1 307.4,250.1 307.4,208.5 255.5,208.5 255.5,156.6 213.9,156.6 213.9,208.5 
		162,208.5 162,250.1 213.9,250.1 213.9,302 	"/>
	<path class="st3" d="M307.4,203.3h-46.8v-46.8c0-2.9-2.3-5.2-5.2-5.2h-41.6c-2.9,0-5.2,2.3-5.2,5.2v46.8H162
		c-2.9,0-5.2,2.3-5.2,5.2v41.6c0,2.9,2.3,5.2,5.2,5.2h46.8V302c0,2.9,2.3,5.2,5.2,5.2h41.6c2.9,0,5.2-2.3,5.2-5.2v-46.8h46.8
		c2.9,0,5.2-2.3,5.2-5.2v-41.6C312.6,205.7,310.3,203.3,307.4,203.3z M302.2,244.9h-46.8c-2.9,0-5.2,2.3-5.2,5.2v46.8h-31.2v-46.8
		c0-2.9-2.3-5.2-5.2-5.2h-46.8v-31.2h46.8c2.9,0,5.2-2.3,5.2-5.2v-46.8h31.2v46.8c0,2.9,2.3,5.2,5.2,5.2h46.8V244.9z"/>
</g>
</svg>
