<?xml version="1.0" encoding="utf-8"?>
<!-- Generator: Adobe Illustrator 22.1.0, SVG Export Plug-In . SVG Version: 6.00 Build 0)  -->
<svg version="1.1" id="Layer_1" xmlns="http://www.w3.org/2000/svg" xmlns:xlink="http://www.w3.org/1999/xlink" x="0px" y="0px"
	 viewBox="0 0 469.4 458.6" style="enable-background:new 0 0 469.4 458.6;" xml:space="preserve">
<style type="text/css">
	.st0{fill:#D1E7FF;}
	.st1{fill:#B9DCFF;}
	.st2{fill:#E8F3FF;}
	.st3{fill:#3399FF;}
	.st4{fill:#A2D0FF;}
	.st5{fill:#8BC4FF;}
	.st6{fill:#CCE4FF;}
</style>
<path class="st0" d="M426.7,51.2h-384c-18.8,0-34.1,15.3-34.1,34.1V416c0,18.8,15.3,34.1,34.1,34.1h384c18.8,0,34.1-15.3,34.1-34.1
	V85.3C460.9,66.5,445.6,51.2,426.7,51.2z"/>
<path class="st1" d="M460.9,85.3v65.1H8.6V85.3c0-18.8,15.3-34.1,34.1-34.1h384C445.6,51.2,460.9,66.5,460.9,85.3z"/>
<path class="st0" d="M427.2,83.2H96.1C77.2,83.2,62,98.5,62,117.3v24.5c0,4.7-3.8,8.5-8.5,8.5H8.6v-65c0-18.9,15.3-34.1,34.1-34.1
	c0,0,385,0,385.5,0C448.9,52.1,447.9,83.2,427.2,83.2z"/>
<g>
	<circle class="st2" cx="225.9" cy="250.7" r="29.9"/>
	<path class="st3" d="M225.9,272c-11.8,0-21.3-9.6-21.3-21.3c0-4.7-3.8-8.5-8.5-8.5s-8.5,3.8-8.5,8.5c0,21.2,17.2,38.4,38.4,38.4
		s38.4-17.2,38.4-38.4s-17.2-38.4-38.4-38.4c-4.7,0-8.5,3.8-8.5,8.5s3.8,8.5,8.5,8.5c11.8,0,21.3,9.6,21.3,21.3
		C247.2,262.4,237.7,272,225.9,272z"/>
</g>
<circle class="st2" cx="346.6" cy="250.7" r="29.9"/>
<path class="st3" d="M346.6,229.3c4.7,0,8.5-3.8,8.5-8.5s-3.8-8.5-8.5-8.5c-21.2,0-38.4,17.2-38.4,38.4s17.2,38.4,38.4,38.4
	c21.2,0,38.4-17.2,38.4-38.4c0-4.7-3.8-8.5-8.5-8.5s-8.5,3.8-8.5,8.5c0,11.8-9.6,21.3-21.3,21.3s-21.3-9.6-21.3-21.3
	C325.2,238.9,334.8,229.3,346.6,229.3z"/>
<circle class="st2" cx="225.9" cy="362.7" r="29.9"/>
<path class="st3" d="M225.9,341.3c11.8,0,21.3,9.6,21.3,21.3s-9.6,21.3-21.3,21.3c-4.7,0-8.5,3.8-8.5,8.5s3.8,8.5,8.5,8.5
	c21.2,0,38.4-17.2,38.4-38.4s-17.2-38.4-38.4-38.4s-38.4,17.2-38.4,38.4c0,4.7,3.8,8.5,8.5,8.5s8.5-3.8,8.5-8.5
	C204.6,350.9,214.1,341.3,225.9,341.3z"/>
<circle class="st2" cx="346.6" cy="362.7" r="29.9"/>
<path class="st3" d="M346.6,401.1c4.7,0,8.5-3.8,8.5-8.5s-3.8-8.5-8.5-8.5c-11.8,0-21.3-9.6-21.3-21.3s9.6-21.3,21.3-21.3
	s21.3,9.6,21.3,21.3c0,4.7,3.8,8.5,8.5,8.5s8.5-3.8,8.5-8.5c0-21.2-17.2-38.4-38.4-38.4c-21.2,0-38.4,17.2-38.4,38.4
	S325.4,401.1,346.6,401.1z"/>
<ellipse transform="matrix(9.853765e-02 -0.9951 0.9951 9.853765e-02 -154.556 330.7841)" class="st2" cx="105.3" cy="250.7" rx="29.9" ry="29.9"/>
<path class="st3" d="M105.3,229.3c4.7,0,8.5-3.8,8.5-8.5s-3.8-8.5-8.5-8.5c-21.2,0-38.4,17.2-38.4,38.4s17.2,38.4,38.4,38.4
	s38.4-17.2,38.4-38.4c0-4.7-3.8-8.5-8.5-8.5s-8.5,3.8-8.5,8.5c0,11.8-9.6,21.3-21.3,21.3c-11.8,0-21.3-9.6-21.3-21.3
	C83.9,238.9,93.5,229.3,105.3,229.3z"/>
<circle class="st2" cx="105.3" cy="362.7" r="29.9"/>
<path class="st3" d="M105.3,401.1c4.7,0,8.5-3.8,8.5-8.5s-3.8-8.5-8.5-8.5c-11.8,0-21.3-9.6-21.3-21.3s9.6-21.3,21.3-21.3
	c11.8,0,21.3,9.6,21.3,21.3c0,4.7,3.8,8.5,8.5,8.5s8.5-3.8,8.5-8.5c0-21.2-17.2-38.4-38.4-38.4s-38.4,17.2-38.4,38.4
	S84.1,401.1,105.3,401.1z"/>
<path class="st3" d="M426.7,42.7h-45.9v-3.2C380.9,17.7,363.2,0,341.4,0s-39.5,17.7-39.5,39.5v3.2H167.5v-3.2
	C167.5,17.7,149.8,0,128,0S88.5,17.7,88.5,39.5v3.2H42.7C19.2,42.7,0,61.8,0,85.4V130c0,4.7,3.8,8.5,8.5,8.5s8.5-3.8,8.5-8.5V85.3
	c0-14.1,11.5-25.6,25.6-25.6h45.9v19.2c0,15.9,10.9,29.3,25.6,33.1v1.1c0,4.7,3.8,8.5,8.5,8.5s8.5-3.8,8.5-8.5V96
	c0-4.7-3.8-8.5-8.5-8.5c-4,0-7.3,2.7-8.3,6.4c-5.2-2.9-8.8-8.5-8.8-14.9V39.5c0-12.4,10-22.4,22.4-22.4s22.4,10,22.4,22.4v3.2h-6.7
	c-4.7,0-8.5,3.8-8.5,8.5s3.8,8.5,8.5,8.5h158.2v19.2c0,15.9,10.9,29.3,25.6,33.1v1.1c0,4.7,3.8,8.5,8.5,8.5s8.5-3.8,8.5-8.5V96
	c0-4.7-3.8-8.5-8.5-8.5c-4,0-7.3,2.7-8.3,6.4c-5.2-2.9-8.8-8.5-8.8-14.9V39.5c0-12.4,10-22.4,22.4-22.4s22.4,10,22.4,22.4v3.2h-6.2
	c-4.7,0-8.5,3.8-8.5,8.5s3.8,8.5,8.5,8.5h69.1c14.1,0,25.6,11.5,25.6,25.6v56.5H66.9c-4.7,0-8.5,3.8-8.5,8.5s3.8,8.5,8.5,8.5h385.4
	V416c0,14.1-11.5,25.6-25.6,25.6H237c-4.7,0-8.5,3.8-8.5,8.5s3.8,8.5,8.5,8.5h189.7c23.5,0,42.7-19.1,42.7-42.7V85.3
	C469.4,61.8,450.3,42.7,426.7,42.7z"/>
<path class="st3" d="M17.1,341.3c0-4.7-3.8-8.5-8.5-8.5s-8.5,3.8-8.5,8.5v23.7c0,4.7,3.8,8.5,8.5,8.5s8.5-3.8,8.5-8.5V341.3z"/>
<path class="st3" d="M8.6,387.1c-4.7,0-8.5,3.8-8.5,8.5v9c0,4.7,3.8,8.5,8.5,8.5s8.5-3.8,8.5-8.5v-9
	C17.1,390.9,13.3,387.1,8.6,387.1z"/>
</svg>
