<?xml version="1.0" encoding="utf-8"?>
<!-- Generator: Adobe Illustrator 22.1.0, SVG Export Plug-In . SVG Version: 6.00 Build 0)  -->
<svg version="1.1" id="Layer_1" xmlns="http://www.w3.org/2000/svg" xmlns:xlink="http://www.w3.org/1999/xlink" x="0px" y="0px"
	 viewBox="0 0 1438.9 1014" style="enable-background:new 0 0 1438.9 1014;" xml:space="preserve">
<style type="text/css">
	.st0{fill:#3399FF;}
</style>
<g>
	<g>
		<path class="st0" d="M1116.8,322.3h-41.4c21.5-77.4,12-151.3-28-211.5C1003.4,45,927.4,4,848.8,4C782,4,723,34.1,683.3,86.5
			C643.7,34.1,584.7,4,518.1,4c-78.3,0-154.2,40.9-198,106.7c-47.4,71-52.2,161.1-13.6,253.6l7.7,18.7h274l21.2-45.8l98.2,196.9
			l74.7-151.2H984c-53.4,92.7-156.2,188.6-300.7,280.3c-99-62.9-177.9-127.2-235-191.5H369l19.4,23.3
			c65,77.9,158.8,155.2,278.9,229.7l16,9.9l15.9-9.9c179.3-111,298-225.9,353.2-341.8h0.7l0,0h63.8c16.7,0,30.3-13.6,30.3-30.3
			C1147.1,335.9,1133.6,322.3,1116.8,322.3z M744.6,322.4l-37.2,75.5l-99.9-200.4l-57.9,124.9H355.3c-22.8-66.4-17.6-129,15.1-178.1
			c32.8-49.1,89.3-79.7,147.6-79.7c60.9,0,111.1,34.2,137.5,93.7l27.6,62.3l27.7-62.3c26.5-59.6,76.9-93.8,138-93.8
			c58.6,0,115.3,30.6,148.1,79.9c32.7,49,37.8,111.6,15.1,177.9H782.4l0,0h-37.8L744.6,322.4L744.6,322.4z"/>
	</g>
	<g>
		<path class="st0" d="M95.2,939.2c1.4,3.1,2.7,6.2,4,9.4c1.3-3.3,2.6-6.5,4-9.6s2.9-6.1,4.4-9l41.9-82.5c0.7-1.4,1.5-2.5,2.3-3.3
			s1.7-1.4,2.6-1.7c1-0.4,2.1-0.6,3.3-0.6s2.7,0,4.3,0h28.9v163h-33.4v-93.8c0-4.6,0.2-9.5,0.7-14.8L115,980.2
			c-1.3,2.6-3.2,4.6-5.4,5.9c-2.3,1.3-4.9,2-7.8,2h-5.2c-2.9,0-5.5-0.7-7.8-2s-4.1-3.3-5.4-5.9l-43.4-84c0.3,2.6,0.5,5.2,0.7,7.8
			c0.1,2.6,0.2,4.9,0.2,7.1v93.8H7.4v-163h28.9c1.6,0,3.1,0,4.3,0s2.3,0.2,3.3,0.6c1,0.4,1.8,1,2.6,1.7s1.5,1.9,2.3,3.3l42,82.8
			C92.3,933.2,93.8,936.1,95.2,939.2z"/>
		<path class="st0" d="M267.4,887c7.7,0,14.7,1.2,21.1,3.6c6.4,2.4,11.9,5.9,16.5,10.4c4.6,4.6,8.2,10.1,10.8,16.7
			c2.6,6.6,3.9,14.1,3.9,22.5c0,2.6-0.1,4.7-0.3,6.4c-0.2,1.6-0.6,3-1.2,3.9c-0.6,1-1.4,1.6-2.4,2s-2.3,0.6-3.9,0.6h-67
			c1.1,9.7,4.1,16.7,8.8,21.1c4.8,4.4,10.9,6.6,18.5,6.6c4,0,7.5-0.5,10.4-1.5s5.5-2.1,7.8-3.2c2.3-1.2,4.4-2.3,6.3-3.2
			c1.9-1,3.9-1.5,6-1.5c2.8,0,4.9,1,6.3,3l10.1,12.4c-3.6,4.1-7.4,7.4-11.6,10c-4.1,2.6-8.4,4.6-12.8,6c-4.4,1.5-8.7,2.5-13.1,3
			c-4.4,0.6-8.5,0.8-12.5,0.8c-8.1,0-15.8-1.3-22.9-4c-7.1-2.6-13.4-6.6-18.7-11.8s-9.6-11.7-12.7-19.5c-3.1-7.8-4.6-16.8-4.6-27.1
			c0-7.8,1.3-15.1,4-22.1c2.6-6.9,6.5-13,11.4-18.3c5-5.2,11-9.4,18-12.4C250.6,888.5,258.5,887,267.4,887z M268.1,911
			c-6.6,0-11.8,1.9-15.6,5.7c-3.7,3.8-6.2,9.2-7.4,16.3h43.3c0-2.8-0.4-5.4-1.1-8.1c-0.7-2.6-1.9-4.9-3.5-7s-3.7-3.7-6.3-5
			C275,911.6,271.8,911,268.1,911z"/>
		<path class="st0" d="M421.1,1004.9c-2.2,0-4-0.5-5.4-1.5c-1.5-1-2.5-2.4-3.1-4.4l-2.7-8.8c-2.3,2.5-4.7,4.7-7.3,6.7
			c-2.5,2-5.3,3.8-8.2,5.2c-2.9,1.5-6.1,2.6-9.5,3.4c-3.4,0.8-7.1,1.2-11,1.2c-6,0-11.6-1.3-16.8-4c-5.2-2.7-9.6-6.6-13.3-11.6
			c-3.7-5.1-6.7-11.3-8.8-18.6c-2.1-7.4-3.2-15.7-3.2-25.1c0-8.7,1.2-16.7,3.6-24.1c2.4-7.4,5.8-13.8,10.1-19.3
			c4.4-5.4,9.6-9.6,15.7-12.7c6.1-3.1,12.9-4.6,20.3-4.6c6,0,11,0.9,15.2,2.6c4.1,1.8,7.9,4.1,11.3,6.9v-58.8h34.7V1005
			L421.1,1004.9L421.1,1004.9L421.1,1004.9z M385.9,980.1c2.5,0,4.8-0.2,6.9-0.7s3.9-1.2,5.7-2.1c1.7-0.9,3.3-2,4.9-3.4
			c1.5-1.3,3-2.9,4.5-4.7v-49.3c-2.7-2.9-5.5-4.9-8.6-6.1c-3-1.2-6.2-1.7-9.6-1.7c-3.2,0-6.2,0.6-8.8,1.9c-2.7,1.3-5,3.3-7,6.1
			s-3.5,6.4-4.6,10.9s-1.7,9.9-1.7,16.2c0,6.1,0.4,11.3,1.3,15.5s2.1,7.6,3.8,10.1c1.6,2.6,3.5,4.4,5.8,5.5
			C380.6,979.5,383.1,980.1,385.9,980.1z"/>
		<path class="st0" d="M509.3,857c0,2.8-0.6,5.4-1.7,7.8c-1.1,2.4-2.7,4.6-4.6,6.4c-1.9,1.8-4.2,3.3-6.8,4.4
			c-2.6,1.1-5.3,1.6-8.2,1.6c-2.8,0-5.5-0.5-8-1.6s-4.6-2.5-6.6-4.4c-1.9-1.8-3.4-4-4.5-6.4s-1.6-5-1.6-7.8s0.5-5.5,1.6-8
			s2.6-4.6,4.5-6.5s4.1-3.3,6.6-4.4c2.5-1,5.1-1.6,8-1.6s5.7,0.5,8.2,1.6c2.6,1,4.8,2.5,6.8,4.4c1.9,1.9,3.5,4,4.6,6.5
			C508.7,851.5,509.3,854.2,509.3,857z M505.3,888.8v116.1h-34.7V888.8H505.3z"/>
		<path class="st0" d="M617,916.3c-1,1.3-2.1,2.3-3,3c-1,0.7-2.4,1.1-4.1,1.1c-1.7,0-3.3-0.4-4.6-1.2c-1.4-0.8-2.9-1.7-4.6-2.7
			c-1.7-1-3.7-1.9-6-2.7s-5.2-1.2-8.6-1.2c-4.3,0-7.9,0.8-11,2.4c-3.1,1.6-5.7,3.8-7.7,6.7s-3.5,6.5-4.5,10.7s-1.5,9-1.5,14.3
			c0,11.1,2.1,19.7,6.4,25.6c4.3,6,10.2,9,17.7,9c4,0,7.2-0.5,9.6-1.5s4.3-2.1,6-3.4c1.6-1.2,3.2-2.4,4.5-3.4c1.4-1,3.1-1.6,5.2-1.6
			c2.8,0,4.9,1,6.3,3l10.1,12.4c-3.6,4.1-7.4,7.4-11.3,10c-4,2.6-8,4.6-12.1,6c-4.1,1.5-8.3,2.5-12.5,3c-4.2,0.6-8.2,0.8-12.2,0.8
			c-7.1,0-13.9-1.3-20.3-4c-6.5-2.7-12.1-6.6-17-11.7c-4.9-5.1-8.8-11.4-11.6-18.9c-2.9-7.5-4.3-16-4.3-25.5
			c0-8.4,1.2-16.2,3.8-23.5c2.5-7.3,6.2-13.6,11.1-18.9c4.9-5.3,10.9-9.5,18.1-12.6c7.2-3.1,15.5-4.6,25-4.6c9.1,0,17.1,1.5,24,4.4
			s13.1,7.2,18.6,12.8L617,916.3z"/>
		<path class="st0" d="M722.3,1004.9c-3.3,0-5.8-0.4-7.4-1.3s-3.1-2.8-4.2-5.6l-2.5-6.4c-2.9,2.5-5.7,4.6-8.4,6.5s-5.5,3.5-8.3,4.8
			c-2.9,1.3-5.9,2.3-9.2,2.9c-3.2,0.6-6.9,1-10.8,1c-5.3,0-10.1-0.7-14.4-2.1c-4.3-1.4-8-3.4-11-6.1s-5.4-6-7-10.1
			c-1.6-4-2.5-8.6-2.5-13.9c0-4.1,1-8.4,3.1-12.7s5.7-8.3,10.9-11.9c5.2-3.6,12.1-6.5,20.8-8.9s19.7-3.6,33-3.6v-5
			c0-6.9-1.4-11.8-4.2-14.9s-6.8-4.6-11.9-4.6c-4.1,0-7.5,0.4-10.1,1.3c-2.6,0.9-4.9,1.9-7,3s-4.1,2.1-6,3s-4.3,1.3-6.9,1.3
			c-2.4,0-4.4-0.6-6.1-1.7c-1.7-1.2-3-2.6-4-4.3l-6.3-10.9c7-6.2,14.8-10.8,23.3-13.8s17.7-4.5,27.5-4.5c7,0,13.3,1.1,19,3.4
			c5.6,2.3,10.4,5.5,14.3,9.5c3.9,4.1,6.9,8.9,9,14.5s3.1,11.7,3.1,18.4v72.6L722.3,1004.9L722.3,1004.9z M682.4,983.7
			c4.5,0,8.4-0.8,11.8-2.4c3.4-1.6,6.8-4.1,10.2-7.6v-15.9c-6.9,0-12.7,0.5-17.1,1.4c-4.5,0.9-8,2-10.6,3.4s-4.4,2.9-5.4,4.6
			s-1.5,3.6-1.5,5.6c0,4,1.1,6.8,3.2,8.4C675.1,982.9,678.2,983.7,682.4,983.7z"/>
		<path class="st0" d="M798.6,837.3v167.6h-34.7V837.3H798.6z"/>
		<path class="st0" d="M979.5,962.7c0.9,0,1.8,0.2,2.7,0.5s1.8,0.9,2.6,1.7l15,15.8c-6.6,8.6-14.8,15.1-24.7,19.4
			c-9.9,4.4-21.6,6.6-35.1,6.6c-12.4,0-23.5-2.1-33.3-6.3s-18.1-10-25-17.5c-6.8-7.4-12.1-16.2-15.7-26.4
			c-3.7-10.2-5.5-21.3-5.5-33.2c0-12.2,2.1-23.3,6.3-33.5s10-19,17.5-26.4s16.5-13.1,26.9-17.2c10.5-4.1,22-6.2,34.6-6.2
			c6.1,0,11.9,0.5,17.3,1.6c5.4,1.1,10.5,2.6,15.2,4.5s9,4.2,13,6.8c4,2.7,7.5,5.6,10.5,8.8L989,878.8c-0.8,1-1.8,2-2.9,2.9
			c-1.1,0.9-2.7,1.3-4.7,1.3c-1.3,0-2.6-0.3-3.8-0.9c-1.2-0.6-2.5-1.3-3.8-2.2s-2.8-1.8-4.4-2.8c-1.6-1-3.5-1.9-5.7-2.8
			c-2.2-0.9-4.8-1.6-7.7-2.2c-2.9-0.6-6.4-0.9-10.4-0.9c-6.9,0-13.1,1.2-18.8,3.6c-5.7,2.4-10.5,5.9-14.6,10.4s-7.2,10-9.5,16.4
			s-3.4,13.6-3.4,21.6c0,8.4,1.1,15.8,3.4,22.3c2.3,6.5,5.4,12,9.3,16.4c3.9,4.4,8.5,7.8,13.7,10.1s10.8,3.5,16.8,3.5
			c3.4,0,6.6-0.2,9.4-0.5c2.8-0.3,5.5-0.9,7.9-1.7s4.7-1.9,6.9-3.2s4.4-2.9,6.7-4.9c0.9-0.7,1.9-1.4,2.9-1.8
			C977.3,962.9,978.4,962.7,979.5,962.7z"/>
		<path class="st0" d="M1052.8,837.3v167.6h-34.7V837.3H1052.8z"/>
		<path class="st0" d="M1120.7,857c0,2.8-0.6,5.4-1.7,7.8c-1.1,2.4-2.7,4.6-4.6,6.4c-1.9,1.8-4.2,3.3-6.8,4.4
			c-2.6,1.1-5.3,1.6-8.2,1.6c-2.8,0-5.5-0.5-8-1.6s-4.6-2.5-6.6-4.4c-1.9-1.8-3.4-4-4.5-6.4s-1.6-5-1.6-7.8s0.5-5.5,1.6-8
			s2.6-4.6,4.5-6.5s4.1-3.3,6.6-4.4c2.5-1,5.1-1.6,8-1.6s5.7,0.5,8.2,1.6c2.6,1,4.8,2.5,6.8,4.4c1.9,1.9,3.5,4,4.6,6.5
			S1120.7,854.2,1120.7,857z M1116.7,888.8v116.1H1082V888.8H1116.7z"/>
		<path class="st0" d="M1144.6,1004.9V888.8h21.5c2.2,0,4,0.5,5.4,1.5c1.5,1,2.5,2.4,3.1,4.4l2,6.7c2.2-2.1,4.6-4,6.9-5.8
			c2.4-1.8,4.9-3.3,7.7-4.5c2.7-1.2,5.7-2.2,8.8-2.9c3.2-0.7,6.6-1.1,10.4-1.1c6.3,0,12,1.1,16.9,3.3s9,5.3,12.4,9.2s5.9,8.6,7.6,14
			s2.6,11.3,2.6,17.6v73.8h-34.7v-73.8c0-5.7-1.3-10.1-3.9-13.3s-6.5-4.8-11.5-4.8c-3.8,0-7.4,0.8-10.8,2.5
			c-3.4,1.6-6.6,3.8-9.6,6.6v82.8L1144.6,1004.9L1144.6,1004.9z"/>
		<path class="st0" d="M1314.4,857c0,2.8-0.6,5.4-1.7,7.8c-1.1,2.4-2.7,4.6-4.6,6.4c-1.9,1.8-4.2,3.3-6.8,4.4
			c-2.6,1.1-5.3,1.6-8.2,1.6c-2.8,0-5.5-0.5-8-1.6s-4.6-2.5-6.6-4.4c-1.9-1.8-3.4-4-4.5-6.4s-1.6-5-1.6-7.8s0.5-5.5,1.6-8
			s2.6-4.6,4.5-6.5s4.1-3.3,6.6-4.4c2.5-1,5.1-1.6,8-1.6s5.7,0.5,8.2,1.6c2.6,1,4.8,2.5,6.8,4.4c1.9,1.9,3.5,4,4.6,6.5
			S1314.4,854.2,1314.4,857z M1310.4,888.8v116.1h-34.7V888.8H1310.4z"/>
		<path class="st0" d="M1422.1,916.3c-1,1.3-2.1,2.3-3,3c-1,0.7-2.4,1.1-4.1,1.1s-3.3-0.4-4.6-1.2c-1.4-0.8-2.9-1.7-4.6-2.7
			s-3.7-1.9-6-2.7s-5.2-1.2-8.6-1.2c-4.3,0-7.9,0.8-11,2.4c-3.1,1.6-5.7,3.8-7.7,6.7s-3.5,6.5-4.5,10.7s-1.5,9-1.5,14.3
			c0,11.1,2.1,19.7,6.4,25.6c4.3,6,10.2,9,17.7,9c4,0,7.2-0.5,9.6-1.5s4.3-2.1,6-3.4c1.6-1.2,3.2-2.4,4.5-3.4c1.4-1,3.1-1.6,5.2-1.6
			c2.8,0,4.9,1,6.3,3l10.1,12.4c-3.6,4.1-7.4,7.4-11.3,10c-4,2.6-8,4.6-12.1,6c-4.1,1.5-8.3,2.5-12.5,3c-4.2,0.6-8.3,0.8-12.2,0.8
			c-7.1,0-13.9-1.3-20.3-4c-6.5-2.7-12.1-6.6-17-11.7c-4.9-5.1-8.8-11.4-11.6-18.9c-2.9-7.5-4.3-16-4.3-25.5
			c0-8.4,1.2-16.2,3.8-23.5c2.5-7.3,6.2-13.6,11.1-18.9c4.9-5.3,10.9-9.5,18.1-12.6s15.5-4.6,25-4.6c9.1,0,17.1,1.5,24,4.4
			s13.1,7.2,18.6,12.8L1422.1,916.3z"/>
	</g>
</g>
</svg>
