<?xml version="1.0" encoding="utf-8"?>
<!-- Generator: Adobe Illustrator 22.1.0, SVG Export Plug-In . SVG Version: 6.00 Build 0)  -->
<svg version="1.1" id="Layer_1" xmlns="http://www.w3.org/2000/svg" xmlns:xlink="http://www.w3.org/1999/xlink" x="0px" y="0px"
	 viewBox="0 0 401.7 334.9" style="enable-background:new 0 0 401.7 334.9;" xml:space="preserve">
<style type="text/css">
	.st0{fill:#F5F5F5;}
	.st1{opacity:0.9;fill:#F5F5F5;enable-background:new    ;}
	.st2{fill:#3399FF;}
	.st3{opacity:0.3;}
	.st4{opacity:0.4;fill:#FAFAFA;enable-background:new    ;}
	.st5{opacity:0.2;fill:#FAFAFA;enable-background:new    ;}
	.st6{opacity:0.1;fill:#FAFAFA;enable-background:new    ;}
	.st7{opacity:0.1;enable-background:new    ;}
	.st8{fill:#FAFAFA;}
	.st9{opacity:0.1;}
	.st10{opacity:0.8;}
	.st11{opacity:0.2;}
	.st12{fill:#E4897B;}
	.st13{opacity:0.3;enable-background:new    ;}
	.st14{fill:#263238;}
	.st15{fill:#DE5753;}
	.st16{opacity:0.6;fill:#FAFAFA;enable-background:new    ;}
	.st17{opacity:0.7;enable-background:new    ;}
	.st18{opacity:0.8;enable-background:new    ;}
	.st19{fill:#CE6F64;}
	.st20{fill:#1E2A4C;}
	.st21{opacity:0.3;fill:#FAFAFA;enable-background:new    ;}
</style>
<g>
	<g id="freepik--background-simple--inject-18">
		<path class="st0" d="M82,186.3C5.7,143.8,0.6-12.9,111.8,0.9c38.9,4.8,67.2,40.1,103.4,52c41.8,13.7,72.2-8.7,112-6.4
			c94.6,5.7,97.8,123.5,17,154.1c-43.5,16.5-85.6,13.4-129.3,7.1C176.9,202.2,117.9,206.2,82,186.3z"/>
		<path class="st1" d="M82,186.3C5.7,143.8,0.6-12.9,111.8,0.9c38.9,4.8,67.2,40.1,103.4,52c41.8,13.7,72.2-8.7,112-6.4
			c94.6,5.7,97.8,123.5,17,154.1c-43.5,16.5-85.6,13.4-129.3,7.1C176.9,202.2,117.9,206.2,82,186.3z"/>
	</g>
	<g id="freepik--Shadow--inject-18">
		<ellipse class="st0" cx="193.9" cy="323.6" rx="193.9" ry="11.3"/>
	</g>
	<g id="freepik--Calendar--inject-18">
		<path class="st2" d="M124.3,179.8c-1.3-0.1-2.3-1.2-2.2-2.5c0.1-1.2,1-2.1,2.2-2.2c5.7,0,10.5-8.2,10.5-17.9
			c0.1-1.3,1.2-2.3,2.5-2.2c1.2,0.1,2.1,1,2.2,2.2C139.6,169.9,132.9,179.8,124.3,179.8z"/>
		<path class="st2" d="M159.6,179.8c-1.3-0.1-2.3-1.2-2.2-2.5c0.1-1.2,1-2.1,2.2-2.2c5.7,0,10.5-8.2,10.5-17.9
			c0.1-1.3,1.2-2.3,2.5-2.2c1.2,0.1,2.1,1,2.2,2.2C174.9,169.9,168.2,179.8,159.6,179.8z"/>
		<path class="st2" d="M194.9,179.8c-1.3-0.1-2.3-1.2-2.2-2.5c0.1-1.2,1-2.1,2.2-2.2c5.7,0,10.5-8.2,10.5-17.9c0-1.3,1-2.3,2.3-2.3
			c1.3,0,2.3,1,2.3,2.3C210.1,169.9,203.4,179.8,194.9,179.8z"/>
		<path class="st2" d="M230.2,179.8c-1.3,0.1-2.4-0.9-2.5-2.2s0.9-2.4,2.2-2.5c0.1,0,0.2,0,0.3,0c5.7,0,10.5-8.2,10.5-17.9
			c0-1.3,1-2.3,2.3-2.3c1.3,0,2.3,1,2.3,2.3C245.4,169.9,238.7,179.8,230.2,179.8z"/>
		<path class="st2" d="M265.5,179.8c-1.3-0.1-2.3-1.2-2.2-2.5c0.1-1.2,1-2.1,2.2-2.2c5.7,0,10.5-8.2,10.5-17.9
			c0.1-1.3,1.2-2.3,2.5-2.2c1.2,0.1,2.1,1,2.2,2.2C280.7,169.9,274,179.8,265.5,179.8z"/>
		<path class="st2" d="M300.8,179.8c-1.3-0.1-2.3-1.2-2.2-2.5c0.1-1.2,1-2.1,2.2-2.2c5.7,0,10.5-8.2,10.5-17.9
			c0.1-1.3,1.2-2.3,2.5-2.2c1.2,0.1,2.1,1,2.2,2.2C316,169.9,309.3,179.8,300.8,179.8z"/>
		<g class="st3">
			<path d="M124.3,179.8c-1.3-0.1-2.3-1.2-2.2-2.5c0.1-1.2,1-2.1,2.2-2.2c5.7,0,10.5-8.2,10.5-17.9c0.1-1.3,1.2-2.3,2.5-2.2
				c1.2,0.1,2.1,1,2.2,2.2C139.6,169.9,132.9,179.8,124.3,179.8z"/>
			<path d="M159.6,179.8c-1.3-0.1-2.3-1.2-2.2-2.5c0.1-1.2,1-2.1,2.2-2.2c5.7,0,10.5-8.2,10.5-17.9c0.1-1.3,1.2-2.3,2.5-2.2
				c1.2,0.1,2.1,1,2.2,2.2C174.9,169.9,168.2,179.8,159.6,179.8z"/>
			<path d="M194.9,179.8c-1.3-0.1-2.3-1.2-2.2-2.5c0.1-1.2,1-2.1,2.2-2.2c5.7,0,10.5-8.2,10.5-17.9c0-1.3,1-2.3,2.3-2.3
				c1.3,0,2.3,1,2.3,2.3C210.1,169.9,203.4,179.8,194.9,179.8z"/>
			<path d="M230.2,179.8c-1.3,0.1-2.4-0.9-2.5-2.2s0.9-2.4,2.2-2.5c0.1,0,0.2,0,0.3,0c5.7,0,10.5-8.2,10.5-17.9c0-1.3,1-2.3,2.3-2.3
				c1.3,0,2.3,1,2.3,2.3C245.4,169.9,238.7,179.8,230.2,179.8z"/>
			<path d="M265.5,179.8c-1.3-0.1-2.3-1.2-2.2-2.5c0.1-1.2,1-2.1,2.2-2.2c5.7,0,10.5-8.2,10.5-17.9c0.1-1.3,1.2-2.3,2.5-2.2
				c1.2,0.1,2.1,1,2.2,2.2C280.7,169.9,274,179.8,265.5,179.8z"/>
			<path d="M300.8,179.8c-1.3-0.1-2.3-1.2-2.2-2.5c0.1-1.2,1-2.1,2.2-2.2c5.7,0,10.5-8.2,10.5-17.9c0.1-1.3,1.2-2.3,2.5-2.2
				c1.2,0.1,2.1,1,2.2,2.2C316,169.9,309.3,179.8,300.8,179.8z"/>
		</g>
		<path class="st2" d="M102.2,159.6h227.2c6.3,0.1,11.5,4.9,12.2,11.2l12.6,141.8c0.6,5.6-3.4,10.5-9,11.1c-0.4,0-0.8,0.1-1.2,0.1
			H116.8c-6.3-0.1-11.5-4.9-12.2-11.2L92,170.8c-0.6-5.5,3.4-10.5,8.9-11.1C101.4,159.6,101.8,159.6,102.2,159.6z"/>
		<path class="st4" d="M102.2,159.6h227.2c6.3,0.1,11.5,4.9,12.2,11.2l12.6,141.8c0.6,5.6-3.4,10.5-9,11.1c-0.4,0-0.8,0.1-1.2,0.1
			H116.8c-6.3-0.1-11.5-4.9-12.2-11.2L92,170.8c-0.6-5.5,3.4-10.5,8.9-11.1C101.4,159.6,101.8,159.6,102.2,159.6z"/>
		<path class="st2" d="M327.5,159.6H100.3c-6.2,0.1-11.3,5-11.7,11.2l-6.4,141.8c-0.3,5.9,4.2,10.9,10.1,11.2c0.2,0,0.4,0,0.6,0
			h227.2c6.2-0.1,11.3-5,11.7-11.2l6.4-141.8c0.3-5.9-4.2-10.9-10.1-11.2C327.9,159.6,327.7,159.6,327.5,159.6z"/>
		<path class="st5" d="M327.5,159.6H100.3c-6.2,0.1-11.3,5-11.7,11.2l-6.4,141.8c-0.3,5.9,4.2,10.9,10.1,11.2c0.2,0,0.4,0,0.6,0
			h227.2c6.2-0.1,11.3-5,11.7-11.2l6.4-141.8c0.3-5.9-4.2-10.9-10.1-11.2C327.9,159.6,327.7,159.6,327.5,159.6z"/>
		<path class="st2" d="M104.5,286.4l5.3-117.1c0.1-2.4,2.1-4.3,4.5-4.3h198.8c2.2,0,4.1,1.8,4.1,4c0,0.1,0,0.2,0,0.2l-5.3,117.1
			c-0.1,2.4-2.1,4.3-4.5,4.3H108.6c-2.2,0-4.1-1.8-4.1-4C104.5,286.5,104.5,286.4,104.5,286.4z"/>
		<path class="st6" d="M104.5,286.4l5.3-117.1c0.1-2.4,2.1-4.3,4.5-4.3h198.8c2.2,0,4.1,1.8,4.1,4c0,0.1,0,0.2,0,0.2l-5.3,117.1
			c-0.1,2.4-2.1,4.3-4.5,4.3H108.6c-2.2,0-4.1-1.8-4.1-4C104.5,286.5,104.5,286.4,104.5,286.4z"/>
		<path class="st7" d="M98.9,295.9l5.6-123c0.1-2.5,2.2-4.5,4.7-4.5h208.8c2.4,0,4.3,1.9,4.3,4.2c0,0.1,0,0.2,0,0.3l-5.6,123
			c-0.1,2.5-2.2,4.5-4.7,4.5H103.2c-2.3,0-4.3-1.9-4.3-4.2C98.9,296.1,98.9,296,98.9,295.9z"/>
		<path class="st8" d="M93.7,305.8l5.8-128.3c0.2-2.6,2.3-4.6,4.9-4.7h217.8c2.5,0,4.5,2,4.5,4.4c0,0.1,0,0.2,0,0.3l-5.8,128.3
			c-0.2,2.6-2.3,4.6-4.9,4.7H98.2c-2.5,0-4.5-1.9-4.5-4.4C93.7,306,93.7,305.9,93.7,305.8z"/>
		<path class="st2" d="M300.8,180.5L300.8,180.5c-1.7,0-3-1.3-3-3c0-0.1,0-0.1,0-0.2l0,0c0.1-1.7,1.4-3,3.1-3l0,0c1.7,0,3,1.3,3,3
			c0,0.1,0,0.1,0,0.2l0,0C303.8,179.2,302.4,180.5,300.8,180.5z"/>
		<path class="st2" d="M265.5,180.5L265.5,180.5c-1.7,0-3-1.3-3-3c0-0.1,0-0.1,0-0.2l0,0c0.1-1.7,1.4-3,3.1-3l0,0c1.7,0,3,1.3,3,3
			c0,0.1,0,0.1,0,0.2l0,0C268.5,179.2,267.1,180.5,265.5,180.5z"/>
		<path class="st2" d="M230.2,180.5L230.2,180.5c-1.7,0-3-1.3-3-3c0-0.1,0-0.1,0-0.2l0,0c0.1-1.7,1.4-3,3.1-3l0,0c1.7,0,3,1.3,3,3
			c0,0.1,0,0.1,0,0.2l0,0C233.2,179.2,231.8,180.5,230.2,180.5z"/>
		<path class="st2" d="M194.9,180.5L194.9,180.5c-1.7,0-3-1.3-3-3c0-0.1,0-0.1,0-0.2l0,0c0.1-1.7,1.5-3,3.1-3l0,0c1.7,0,3,1.3,3,3
			c0,0.1,0,0.1,0,0.2l0,0C197.9,179.2,196.6,180.5,194.9,180.5z"/>
		<path class="st2" d="M159.6,180.5L159.6,180.5c-1.7,0-3-1.3-3-3c0-0.1,0-0.1,0-0.2l0,0c0.1-1.7,1.4-3,3.1-3l0,0c1.7,0,3,1.3,3,3
			c0,0.1,0,0.1,0,0.2l0,0C162.6,179.2,161.3,180.5,159.6,180.5z"/>
		<path class="st2" d="M124.3,180.5L124.3,180.5c-1.7,0-3-1.3-3-3c0-0.1,0-0.1,0-0.2l0,0c0.1-1.7,1.4-3,3.1-3l0,0c1.7,0,3,1.3,3,3
			c0,0.1,0,0.1,0,0.2l0,0C127.3,179.2,126,180.5,124.3,180.5z"/>
		<g class="st9">
			<path class="st8" d="M300.8,180.5L300.8,180.5c-1.7,0-3-1.3-3-3c0-0.1,0-0.1,0-0.2l0,0c0.1-1.7,1.4-3,3.1-3l0,0c1.7,0,3,1.3,3,3
				c0,0.1,0,0.1,0,0.2l0,0C303.8,179.2,302.4,180.5,300.8,180.5z"/>
			<path class="st8" d="M265.5,180.5L265.5,180.5c-1.7,0-3-1.3-3-3c0-0.1,0-0.1,0-0.2l0,0c0.1-1.7,1.4-3,3.1-3l0,0c1.7,0,3,1.3,3,3
				c0,0.1,0,0.1,0,0.2l0,0C268.5,179.2,267.1,180.5,265.5,180.5z"/>
			<path class="st8" d="M230.2,180.5L230.2,180.5c-1.7,0-3-1.3-3-3c0-0.1,0-0.1,0-0.2l0,0c0.1-1.7,1.4-3,3.1-3l0,0c1.7,0,3,1.3,3,3
				c0,0.1,0,0.1,0,0.2l0,0C233.2,179.2,231.8,180.5,230.2,180.5z"/>
			<path class="st8" d="M194.9,180.5L194.9,180.5c-1.7,0-3-1.3-3-3c0-0.1,0-0.1,0-0.2l0,0c0.1-1.7,1.5-3,3.1-3l0,0c1.7,0,3,1.3,3,3
				c0,0.1,0,0.1,0,0.2l0,0C197.9,179.2,196.6,180.5,194.9,180.5z"/>
			<path class="st8" d="M159.6,180.5L159.6,180.5c-1.7,0-3-1.3-3-3c0-0.1,0-0.1,0-0.2l0,0c0.1-1.7,1.4-3,3.1-3l0,0c1.7,0,3,1.3,3,3
				c0,0.1,0,0.1,0,0.2l0,0C162.6,179.2,161.3,180.5,159.6,180.5z"/>
			<path class="st8" d="M124.3,180.5L124.3,180.5c-1.7,0-3-1.3-3-3c0-0.1,0-0.1,0-0.2l0,0c0.1-1.7,1.4-3,3.1-3l0,0c1.7,0,3,1.3,3,3
				c0,0.1,0,0.1,0,0.2l0,0C127.3,179.2,126,180.5,124.3,180.5z"/>
		</g>
		<path class="st2" d="M133.1,191.7h-17.8c-1,0-1.9-0.8-1.9-1.8c0-0.1,0-0.1,0-0.2l0,0c0-1.1,0.9-2,2-2h17.8c1,0,1.9,0.8,1.9,1.8
			c0,0.1,0,0.1,0,0.2l0,0C135.1,190.8,134.2,191.7,133.1,191.7z"/>
		<path class="st2" d="M168.4,191.7h-17.8c-1,0-1.9-0.8-1.9-1.8c0-0.1,0-0.1,0-0.2l0,0c0-1.1,0.9-2,2.1-2h17.7c1,0,1.9,0.8,1.9,1.9
			c0,0,0,0.1,0,0.1l0,0C170.4,190.8,169.5,191.7,168.4,191.7z"/>
		<path class="st2" d="M203.7,191.7H186c-1,0-1.9-0.8-1.9-1.9c0,0,0-0.1,0-0.1l0,0c0-1.1,0.9-2,2.1-2h17.8c1,0,1.9,0.8,1.9,1.8
			c0,0.1,0,0.1,0,0.2l0,0C205.7,190.8,204.8,191.7,203.7,191.7z"/>
		<path class="st2" d="M239,191.7h-17.8c-1,0-1.9-0.8-1.9-1.8c0-0.1,0-0.1,0-0.2l0,0c0-1.1,0.9-2,2-2h17.8c1,0,1.9,0.8,1.9,1.8
			c0,0.1,0,0.1,0,0.2l0,0C240.9,190.8,240.1,191.7,239,191.7z"/>
		<path class="st2" d="M274.3,191.7h-17.8c-1,0-1.9-0.8-1.9-1.8c0-0.1,0-0.1,0-0.2l0,0c0-1.1,0.9-2,2.1-2h17.8c1,0,1.9,0.8,1.9,1.8
			c0,0.1,0,0.1,0,0.2l0,0C276.3,190.8,275.4,191.7,274.3,191.7z"/>
		<path class="st2" d="M309.6,191.7h-17.8c-1,0-1.9-0.8-1.9-1.8c0-0.1,0-0.1,0-0.2l0,0c0-1.1,0.9-2,2-2h17.7c1,0,1.9,0.8,1.9,1.9
			c0,0,0,0.1,0,0.1l0,0C311.6,190.8,310.7,191.7,309.6,191.7z"/>
		<g class="st3">
			<path d="M133.1,191.7h-17.8c-1,0-1.9-0.8-1.9-1.8c0-0.1,0-0.1,0-0.2l0,0c0-1.1,0.9-2,2-2h17.8c1,0,1.9,0.8,1.9,1.8
				c0,0.1,0,0.1,0,0.2l0,0C135.1,190.8,134.2,191.7,133.1,191.7z"/>
			<path d="M168.4,191.7h-17.8c-1,0-1.9-0.8-1.9-1.8c0-0.1,0-0.1,0-0.2l0,0c0-1.1,0.9-2,2.1-2h17.7c1,0,1.9,0.8,1.9,1.9
				c0,0,0,0.1,0,0.1l0,0C170.4,190.8,169.5,191.7,168.4,191.7z"/>
			<path d="M203.7,191.7H186c-1,0-1.9-0.8-1.9-1.9c0,0,0-0.1,0-0.1l0,0c0-1.1,0.9-2,2.1-2h17.8c1,0,1.9,0.8,1.9,1.8
				c0,0.1,0,0.1,0,0.2l0,0C205.7,190.8,204.8,191.7,203.7,191.7z"/>
			<path d="M239,191.7h-17.8c-1,0-1.9-0.8-1.9-1.8c0-0.1,0-0.1,0-0.2l0,0c0-1.1,0.9-2,2-2h17.8c1,0,1.9,0.8,1.9,1.8
				c0,0.1,0,0.1,0,0.2l0,0C240.9,190.8,240.1,191.7,239,191.7z"/>
			<path d="M274.3,191.7h-17.8c-1,0-1.9-0.8-1.9-1.8c0-0.1,0-0.1,0-0.2l0,0c0-1.1,0.9-2,2.1-2h17.8c1,0,1.9,0.8,1.9,1.8
				c0,0.1,0,0.1,0,0.2l0,0C276.3,190.8,275.4,191.7,274.3,191.7z"/>
			<path d="M309.6,191.7h-17.8c-1,0-1.9-0.8-1.9-1.8c0-0.1,0-0.1,0-0.2l0,0c0-1.1,0.9-2,2-2h17.7c1,0,1.9,0.8,1.9,1.9
				c0,0,0,0.1,0,0.1l0,0C311.6,190.8,310.7,191.7,309.6,191.7z"/>
		</g>
		<path class="st2" d="M134.1,229.5H111c-2.1,0-3.7-1.7-3.7-3.7c0-0.1,0-0.1,0-0.2l1-23.1c0.1-2.2,1.9-3.9,4.1-3.9h23.1
			c2.1,0,3.7,1.7,3.7,3.7c0,0.1,0,0.1,0,0.2l-1,23.1C138.1,227.8,136.3,229.5,134.1,229.5z"/>
		<path class="st2" d="M169.4,229.5h-23.1c-2.1,0-3.7-1.6-3.7-3.7c0-0.1,0-0.2,0-0.2l1-23.1c0.1-2.2,1.9-3.9,4.1-3.9h23.1
			c2.1,0,3.7,1.7,3.8,3.7c0,0.1,0,0.1,0,0.2l-1.1,23.1C173.4,227.8,171.6,229.5,169.4,229.5z"/>
		<path class="st2" d="M204.7,229.5h-23.1c-2.1,0-3.7-1.7-3.8-3.7c0-0.1,0-0.1,0-0.2l1-23.1c0.1-2.2,1.9-3.9,4.1-3.9H206
			c2.1,0,3.7,1.6,3.7,3.7c0,0.1,0,0.2,0,0.2l-1,23.1C208.6,227.8,206.9,229.5,204.7,229.5z"/>
		<path class="st2" d="M240,229.5h-23.1c-2.1,0-3.7-1.6-3.8-3.7c0-0.1,0-0.1,0-0.2l1-23.1c0.1-2.2,1.9-3.9,4.1-3.9h23.1
			c2.1,0,3.7,1.7,3.7,3.7c0,0.1,0,0.1,0,0.2l-1,23.1C244,227.8,242.2,229.5,240,229.5z"/>
		<path class="st2" d="M275.3,229.5h-23.1c-2.1,0-3.7-1.7-3.7-3.7c0-0.1,0-0.1,0-0.2l1-23.1c0.1-2.2,1.9-3.9,4.1-3.9h23.1
			c2.1,0,3.7,1.6,3.8,3.7c0,0.1,0,0.1,0,0.2l-1,23.1C279.2,227.8,277.4,229.5,275.3,229.5z"/>
		<path class="st2" d="M310.5,229.5h-23.1c-2.1,0-3.7-1.6-3.7-3.7c0-0.1,0-0.2,0-0.2l1-23.1c0.1-2.2,1.9-3.9,4.1-3.9h23.1
			c2.1,0,3.7,1.7,3.8,3.7c0,0.1,0,0.1,0,0.2l-1,23.1C314.5,227.7,312.7,229.5,310.5,229.5z"/>
		<g class="st10">
			<path class="st8" d="M134.1,229.5H111c-2.1,0-3.7-1.7-3.7-3.7c0-0.1,0-0.1,0-0.2l1-23.1c0.1-2.2,1.9-3.9,4.1-3.9h23.1
				c2.1,0,3.7,1.7,3.7,3.7c0,0.1,0,0.1,0,0.2l-1,23.1C138.1,227.8,136.3,229.5,134.1,229.5z"/>
			<path class="st8" d="M169.4,229.5h-23.1c-2.1,0-3.7-1.6-3.7-3.7c0-0.1,0-0.2,0-0.2l1-23.1c0.1-2.2,1.9-3.9,4.1-3.9h23.1
				c2.1,0,3.7,1.7,3.8,3.7c0,0.1,0,0.1,0,0.2l-1.1,23.1C173.4,227.8,171.6,229.5,169.4,229.5z"/>
			<path class="st8" d="M204.7,229.5h-23.1c-2.1,0-3.7-1.7-3.8-3.7c0-0.1,0-0.1,0-0.2l1-23.1c0.1-2.2,1.9-3.9,4.1-3.9H206
				c2.1,0,3.7,1.6,3.7,3.7c0,0.1,0,0.2,0,0.2l-1,23.1C208.6,227.8,206.9,229.5,204.7,229.5z"/>
			<path class="st8" d="M240,229.5h-23.1c-2.1,0-3.7-1.6-3.8-3.7c0-0.1,0-0.1,0-0.2l1-23.1c0.1-2.2,1.9-3.9,4.1-3.9h23.1
				c2.1,0,3.7,1.7,3.7,3.7c0,0.1,0,0.1,0,0.2l-1,23.1C244,227.8,242.2,229.5,240,229.5z"/>
			<path class="st8" d="M275.3,229.5h-23.1c-2.1,0-3.7-1.7-3.7-3.7c0-0.1,0-0.1,0-0.2l1-23.1c0.1-2.2,1.9-3.9,4.1-3.9h23.1
				c2.1,0,3.7,1.6,3.8,3.7c0,0.1,0,0.1,0,0.2l-1,23.1C279.2,227.8,277.4,229.5,275.3,229.5z"/>
			<path class="st8" d="M310.5,229.5h-23.1c-2.1,0-3.7-1.6-3.7-3.7c0-0.1,0-0.2,0-0.2l1-23.1c0.1-2.2,1.9-3.9,4.1-3.9h23.1
				c2.1,0,3.7,1.7,3.8,3.7c0,0.1,0,0.1,0,0.2l-1,23.1C314.5,227.7,312.7,229.5,310.5,229.5z"/>
		</g>
		<path class="st2" d="M132.5,265.4h-23.1c-2.1,0-3.7-1.7-3.7-3.7c0-0.1,0-0.1,0-0.2l1-23.1c0.1-2.2,1.9-3.9,4.1-3.9h23.2
			c2.1,0,3.7,1.7,3.7,3.7c0,0.1,0,0.1,0,0.2l-1,23.1C136.5,263.6,134.7,265.4,132.5,265.4z"/>
		<path class="st2" d="M167.8,265.4h-23.1c-2.1,0-3.7-1.7-3.7-3.7c0-0.1,0-0.1,0-0.2l1-23.1c0.1-2.2,1.9-3.9,4.1-3.9h23.1
			c2.1,0,3.8,1.6,3.8,3.7c0,0.1,0,0.2,0,0.2l-1,23.1C171.8,263.6,170,265.3,167.8,265.4z"/>
		<path class="st2" d="M203.1,265.4h-23.1c-2.1,0-3.7-1.6-3.7-3.7c0-0.1,0-0.2,0-0.2l1-23.1c0.1-2.2,1.9-3.9,4.1-3.9h23.1
			c2.1,0,3.7,1.6,3.7,3.7c0,0.1,0,0.2,0,0.2l-1,23.1C207,263.6,205.2,265.3,203.1,265.4z"/>
		<path class="st2" d="M238.3,265.4h-23.1c-2.1,0-3.7-1.7-3.8-3.7c0-0.1,0-0.1,0-0.2l1-23.1c0.1-2.2,1.9-3.9,4.1-3.9h23.1
			c2.1,0,3.8,1.6,3.8,3.7c0,0.1,0,0.2,0,0.3l-1,23.1C242.3,263.7,240.5,265.4,238.3,265.4z"/>
		<path class="st2" d="M273.6,265.4h-23.1c-2.1,0-3.7-1.7-3.7-3.7c0-0.1,0-0.1,0-0.2l1-23.1c0.1-2.2,1.9-3.9,4.1-4H275
			c2.1,0,3.7,1.7,3.7,3.7c0,0.1,0,0.1,0,0.2l-1,23.1C277.6,263.6,275.8,265.3,273.6,265.4z"/>
		<path class="st2" d="M308.9,265.4h-23.1c-2.1,0-3.7-1.6-3.7-3.7c0-0.1,0-0.2,0-0.2l1-23.1c0.1-2.2,1.9-3.9,4.1-3.9h23.1
			c2.1,0,3.7,1.7,3.8,3.7c0,0.1,0,0.1,0,0.2l-1,23.1C312.9,263.6,311.1,265.3,308.9,265.4z"/>
		<g class="st10">
			<path class="st8" d="M132.5,265.4h-23.1c-2.1,0-3.7-1.7-3.7-3.7c0-0.1,0-0.1,0-0.2l1-23.1c0.1-2.2,1.9-3.9,4.1-3.9h23.2
				c2.1,0,3.7,1.7,3.7,3.7c0,0.1,0,0.1,0,0.2l-1,23.1C136.5,263.6,134.7,265.4,132.5,265.4z"/>
			<path class="st8" d="M167.8,265.4h-23.1c-2.1,0-3.7-1.7-3.7-3.7c0-0.1,0-0.1,0-0.2l1-23.1c0.1-2.2,1.9-3.9,4.1-3.9h23.1
				c2.1,0,3.8,1.6,3.8,3.7c0,0.1,0,0.2,0,0.2l-1,23.1C171.8,263.6,170,265.3,167.8,265.4z"/>
			<path class="st8" d="M203.1,265.4h-23.1c-2.1,0-3.7-1.6-3.7-3.7c0-0.1,0-0.2,0-0.2l1-23.1c0.1-2.2,1.9-3.9,4.1-3.9h23.1
				c2.1,0,3.7,1.6,3.7,3.7c0,0.1,0,0.2,0,0.2l-1,23.1C207,263.6,205.2,265.3,203.1,265.4z"/>
			<path class="st8" d="M238.3,265.4h-23.1c-2.1,0-3.7-1.7-3.8-3.7c0-0.1,0-0.1,0-0.2l1-23.1c0.1-2.2,1.9-3.9,4.1-3.9h23.1
				c2.1,0,3.8,1.6,3.8,3.7c0,0.1,0,0.2,0,0.3l-1,23.1C242.3,263.7,240.5,265.4,238.3,265.4z"/>
			<path class="st8" d="M273.6,265.4h-23.1c-2.1,0-3.7-1.7-3.7-3.7c0-0.1,0-0.1,0-0.2l1-23.1c0.1-2.2,1.9-3.9,4.1-4H275
				c2.1,0,3.7,1.7,3.7,3.7c0,0.1,0,0.1,0,0.2l-1,23.1C277.6,263.6,275.8,265.3,273.6,265.4z"/>
			<path class="st8" d="M308.9,265.4h-23.1c-2.1,0-3.7-1.6-3.7-3.7c0-0.1,0-0.2,0-0.2l1-23.1c0.1-2.2,1.9-3.9,4.1-3.9h23.1
				c2.1,0,3.7,1.7,3.8,3.7c0,0.1,0,0.1,0,0.2l-1,23.1C312.9,263.6,311.1,265.3,308.9,265.4z"/>
		</g>
		<path class="st2" d="M130.9,301.2h-23.1c-2.1,0-3.7-1.6-3.7-3.7c0-0.1,0-0.2,0-0.2l1-23.1c0.1-2.2,1.9-3.9,4.1-3.9h23.1
			c2.1,0,3.7,1.6,3.7,3.7c0,0.1,0,0.2,0,0.2l-1,23.1C134.8,299.5,133.1,301.2,130.9,301.2z"/>
		<path class="st2" d="M166.2,301.2H143c-2.1,0-3.7-1.6-3.7-3.7c0-0.1,0-0.2,0-0.2l1-23.1c0.1-2.2,1.9-3.9,4.1-3.9h23.1
			c2.1,0,3.7,1.6,3.8,3.7c0,0.1,0,0.2,0,0.2l-1,23.1C170.1,299.5,168.3,301.2,166.2,301.2z"/>
		<path class="st2" d="M201.4,301.2h-23.1c-2.1,0-3.7-1.6-3.7-3.7c0-0.1,0-0.2,0-0.2l1-23.1c0.1-2.2,1.9-3.9,4.1-3.9h23.2
			c2.1,0,3.7,1.6,3.8,3.7c0,0.1,0,0.1,0,0.2l-1,23.1C205.5,299.5,203.6,301.2,201.4,301.2z"/>
		<path class="st2" d="M236.7,301.2h-23.1c-2.1,0-3.7-1.6-3.8-3.7c0-0.1,0-0.1,0-0.2l1-23.1c0.1-2.2,1.9-3.9,4.1-3.9h23.1
			c2.1,0,3.7,1.6,3.7,3.7c0,0.1,0,0.2,0,0.2l-1,23.1C240.7,299.5,238.9,301.2,236.7,301.2z"/>
		<path class="st2" d="M272,301.2h-23.1c-2.1,0-3.7-1.6-3.7-3.7c0-0.1,0-0.2,0-0.2l1-23.1c0.1-2.2,1.9-3.9,4.1-3.9h23.1
			c2.1,0,3.7,1.6,3.7,3.7c0,0.1,0,0.2,0,0.2l-1,23.1C276,299.5,274.2,301.2,272,301.2z"/>
		<path class="st2" d="M307.3,301.2h-23.1c-2.1,0-3.7-1.6-3.7-3.7c0-0.1,0-0.2,0-0.2l1-23.1c0.1-2.2,1.9-3.9,4.1-3.9h23.1
			c2.1,0,3.7,1.6,3.8,3.7c0,0.1,0,0.1,0,0.2l-1,23.1C311.2,299.5,309.5,301.2,307.3,301.2z"/>
		<g class="st10">
			<path class="st8" d="M130.9,301.2h-23.1c-2.1,0-3.7-1.6-3.7-3.7c0-0.1,0-0.2,0-0.2l1-23.1c0.1-2.2,1.9-3.9,4.1-3.9h23.1
				c2.1,0,3.7,1.6,3.7,3.7c0,0.1,0,0.2,0,0.2l-1,23.1C134.8,299.5,133.1,301.2,130.9,301.2z"/>
			<path class="st8" d="M166.2,301.2H143c-2.1,0-3.7-1.6-3.7-3.7c0-0.1,0-0.2,0-0.2l1-23.1c0.1-2.2,1.9-3.9,4.1-3.9h23.1
				c2.1,0,3.7,1.6,3.8,3.7c0,0.1,0,0.2,0,0.2l-1,23.1C170.1,299.5,168.3,301.2,166.2,301.2z"/>
			<path class="st8" d="M201.4,301.2h-23.1c-2.1,0-3.7-1.6-3.7-3.7c0-0.1,0-0.2,0-0.2l1-23.1c0.1-2.2,1.9-3.9,4.1-3.9h23.2
				c2.1,0,3.7,1.6,3.8,3.7c0,0.1,0,0.1,0,0.2l-1,23.1C205.5,299.5,203.6,301.2,201.4,301.2z"/>
			<path class="st8" d="M236.7,301.2h-23.1c-2.1,0-3.7-1.6-3.8-3.7c0-0.1,0-0.1,0-0.2l1-23.1c0.1-2.2,1.9-3.9,4.1-3.9h23.1
				c2.1,0,3.7,1.6,3.7,3.7c0,0.1,0,0.2,0,0.2l-1,23.1C240.7,299.5,238.9,301.2,236.7,301.2z"/>
			<path class="st8" d="M272,301.2h-23.1c-2.1,0-3.7-1.6-3.7-3.7c0-0.1,0-0.2,0-0.2l1-23.1c0.1-2.2,1.9-3.9,4.1-3.9h23.1
				c2.1,0,3.7,1.6,3.7,3.7c0,0.1,0,0.2,0,0.2l-1,23.1C276,299.5,274.2,301.2,272,301.2z"/>
			<path class="st8" d="M307.3,301.2h-23.1c-2.1,0-3.7-1.6-3.7-3.7c0-0.1,0-0.2,0-0.2l1-23.1c0.1-2.2,1.9-3.9,4.1-3.9h23.1
				c2.1,0,3.7,1.6,3.8,3.7c0,0.1,0,0.1,0,0.2l-1,23.1C311.2,299.5,309.5,301.2,307.3,301.2z"/>
		</g>
		<path class="st2" d="M124.3,179.8c-8.5,0-15.2-9.9-15.2-22.6s6.7-22.6,15.2-22.6s15.2,9.9,15.2,22.6c-0.1,1.3-1.2,2.3-2.5,2.2
			c-1.2-0.1-2.1-1-2.2-2.2c0-9.7-4.8-17.9-10.5-17.9s-10.5,8.2-10.5,17.9s4.8,17.9,10.5,17.9c1.3-0.1,2.4,0.9,2.5,2.2
			s-0.9,2.4-2.2,2.5C124.5,179.8,124.4,179.8,124.3,179.8L124.3,179.8z"/>
		<path class="st2" d="M159.6,179.8c-8.5,0-15.2-9.9-15.2-22.6s6.7-22.6,15.2-22.6s15.3,9.9,15.3,22.6c-0.1,1.3-1.2,2.3-2.5,2.2
			c-1.2-0.1-2.1-1-2.2-2.2c0-9.7-4.8-17.9-10.5-17.9s-10.5,8.2-10.5,17.9s4.8,17.9,10.5,17.9c1.3,0.1,2.3,1.2,2.2,2.5
			C161.8,178.8,160.9,179.7,159.6,179.8L159.6,179.8z"/>
		<path class="st2" d="M194.9,179.8c-8.5,0-15.2-9.9-15.2-22.6s6.7-22.6,15.2-22.6c8.5,0,15.2,9.9,15.2,22.6c0,1.3-1,2.3-2.3,2.3
			c-1.3,0-2.3-1-2.3-2.3c0-9.7-4.8-17.9-10.5-17.9s-10.5,8.2-10.5,17.9s4.8,17.9,10.5,17.9c1.3,0.1,2.3,1.2,2.2,2.5
			C197,178.8,196.1,179.7,194.9,179.8L194.9,179.8z"/>
		<path class="st2" d="M230.2,179.8c-8.5,0-15.2-9.9-15.2-22.6s6.7-22.6,15.2-22.6s15.2,9.9,15.2,22.6c0,1.3-1,2.3-2.3,2.3
			c-1.3,0-2.3-1-2.3-2.3c0-9.7-4.8-17.9-10.5-17.9s-10.5,8.2-10.5,17.9s4.8,17.9,10.5,17.9c1.3,0.1,2.3,1.2,2.2,2.5
			C232.3,178.8,231.4,179.7,230.2,179.8L230.2,179.8z"/>
		<path class="st2" d="M265.5,179.8c-8.5,0-15.2-9.9-15.2-22.6s6.7-22.6,15.2-22.6s15.2,9.9,15.2,22.6c-0.1,1.3-1.2,2.3-2.5,2.2
			c-1.2-0.1-2.1-1-2.2-2.2c0-9.7-4.8-17.9-10.5-17.9c-5.7,0-10.5,8.2-10.5,17.9s4.8,17.9,10.5,17.9c1.3-0.1,2.4,0.9,2.5,2.2
			c0.1,1.3-0.9,2.4-2.2,2.5C265.7,179.8,265.6,179.8,265.5,179.8L265.5,179.8z"/>
		<path class="st2" d="M300.8,179.8c-8.5,0-15.2-9.9-15.2-22.6s6.7-22.6,15.2-22.6s15.2,9.9,15.2,22.6c-0.1,1.3-1.2,2.3-2.5,2.2
			c-1.2-0.1-2.1-1-2.2-2.2c0-9.7-4.8-17.9-10.5-17.9s-10.5,8.2-10.5,17.9s4.8,17.9,10.5,17.9c1.3,0.1,2.3,1.2,2.2,2.5
			C302.9,178.8,302,179.7,300.8,179.8L300.8,179.8z"/>
		<g class="st3">
			<path d="M124.3,179.8c-8.5,0-15.2-9.9-15.2-22.6s6.7-22.6,15.2-22.6s15.2,9.9,15.2,22.6c-0.1,1.3-1.2,2.3-2.5,2.2
				c-1.2-0.1-2.1-1-2.2-2.2c0-9.7-4.8-17.9-10.5-17.9s-10.5,8.2-10.5,17.9s4.8,17.9,10.5,17.9c1.3-0.1,2.4,0.9,2.5,2.2
				s-0.9,2.4-2.2,2.5C124.5,179.8,124.4,179.8,124.3,179.8L124.3,179.8z"/>
			<path d="M159.6,179.8c-8.5,0-15.2-9.9-15.2-22.6s6.7-22.6,15.2-22.6s15.3,9.9,15.3,22.6c-0.1,1.3-1.2,2.3-2.5,2.2
				c-1.2-0.1-2.1-1-2.2-2.2c0-9.7-4.8-17.9-10.5-17.9s-10.5,8.2-10.5,17.9s4.8,17.9,10.5,17.9c1.3,0.1,2.3,1.2,2.2,2.5
				C161.8,178.8,160.9,179.7,159.6,179.8L159.6,179.8z"/>
			<path d="M194.9,179.8c-8.5,0-15.2-9.9-15.2-22.6s6.7-22.6,15.2-22.6c8.5,0,15.2,9.9,15.2,22.6c0,1.3-1,2.3-2.3,2.3
				c-1.3,0-2.3-1-2.3-2.3c0-9.7-4.8-17.9-10.5-17.9s-10.5,8.2-10.5,17.9s4.8,17.9,10.5,17.9c1.3,0.1,2.3,1.2,2.2,2.5
				C197,178.8,196.1,179.7,194.9,179.8L194.9,179.8z"/>
			<path d="M230.2,179.8c-8.5,0-15.2-9.9-15.2-22.6s6.7-22.6,15.2-22.6s15.2,9.9,15.2,22.6c0,1.3-1,2.3-2.3,2.3
				c-1.3,0-2.3-1-2.3-2.3c0-9.7-4.8-17.9-10.5-17.9s-10.5,8.2-10.5,17.9s4.8,17.9,10.5,17.9c1.3,0.1,2.3,1.2,2.2,2.5
				C232.3,178.8,231.4,179.7,230.2,179.8L230.2,179.8z"/>
			<path d="M265.5,179.8c-8.5,0-15.2-9.9-15.2-22.6s6.7-22.6,15.2-22.6s15.2,9.9,15.2,22.6c-0.1,1.3-1.2,2.3-2.5,2.2
				c-1.2-0.1-2.1-1-2.2-2.2c0-9.7-4.8-17.9-10.5-17.9c-5.7,0-10.5,8.2-10.5,17.9s4.8,17.9,10.5,17.9c1.3-0.1,2.4,0.9,2.5,2.2
				c0.1,1.3-0.9,2.4-2.2,2.5C265.7,179.8,265.6,179.8,265.5,179.8L265.5,179.8z"/>
			<path d="M300.8,179.8c-8.5,0-15.2-9.9-15.2-22.6s6.7-22.6,15.2-22.6s15.2,9.9,15.2,22.6c-0.1,1.3-1.2,2.3-2.5,2.2
				c-1.2-0.1-2.1-1-2.2-2.2c0-9.7-4.8-17.9-10.5-17.9s-10.5,8.2-10.5,17.9s4.8,17.9,10.5,17.9c1.3,0.1,2.3,1.2,2.2,2.5
				C302.9,178.8,302,179.7,300.8,179.8L300.8,179.8z"/>
		</g>
		<path class="st2" d="M232.6,230.8c-8.2-1.6-17.3,0.3-20.6,8.9c-2.6,6.9,0.7,14.4,8,16.3c6.4,1.6,17.4-0.4,19.7-7.7
			c2.6-8.4-8-11.2-14-11.7c-1.8-0.1-1.8,2.6,0,2.8c2.7,0.2,5.8,0.4,8.2,1.9c5,3.1,2.9,8.1-1.3,10.5s-10.8,3-15,0.3
			c-4.6-2.9-4.8-9.4-2-13.6c3.6-5.5,10.2-6.2,16.1-5C233.5,233.8,234.3,231.1,232.6,230.8L232.6,230.8z"/>
		<path class="st6" d="M232.6,230.8c-8.2-1.6-17.3,0.3-20.6,8.9c-2.6,6.9,0.7,14.4,8,16.3c6.4,1.6,17.4-0.4,19.7-7.7
			c2.6-8.4-8-11.2-14-11.7c-1.8-0.1-1.8,2.6,0,2.8c2.7,0.2,5.8,0.4,8.2,1.9c5,3.1,2.9,8.1-1.3,10.5s-10.8,3-15,0.3
			c-4.6-2.9-4.8-9.4-2-13.6c3.6-5.5,10.2-6.2,16.1-5C233.5,233.8,234.3,231.1,232.6,230.8L232.6,230.8z"/>
		<path class="st2" d="M142.5,198.6c7.8,10.3,16.5,20,26,28.8c1.3,1.2,3.3-0.8,2-2c-9.3-8.6-17.9-18.1-25.6-28.2
			C143.9,195.7,141.5,197.1,142.5,198.6L142.5,198.6z"/>
		<path class="st2" d="M145.4,226.2c5.9-10.5,16.2-19.4,26-26.3c1.5-1,0.1-3.5-1.4-2.4c-10.2,7.1-20.8,16.4-27,27.3
			c-0.4,0.7-0.1,1.5,0.6,1.9C144.2,227,145,226.8,145.4,226.2z"/>
		<g class="st11">
			<path d="M142.5,198.6c7.8,10.3,16.5,20,26,28.8c1.3,1.2,3.3-0.8,2-2c-9.3-8.6-17.9-18.1-25.6-28.2
				C143.9,195.7,141.5,197.1,142.5,198.6L142.5,198.6z"/>
			<path d="M145.4,226.2c5.9-10.5,16.2-19.4,26-26.3c1.5-1,0.1-3.5-1.4-2.4c-10.2,7.1-20.8,16.4-27,27.3c-0.4,0.7-0.1,1.5,0.6,1.9
				C144.2,227,145,226.8,145.4,226.2z"/>
		</g>
		<path class="st2" d="M253.8,207.5H272c0.8-0.1,1.3-0.7,1.3-1.5c-0.1-0.7-0.6-1.2-1.3-1.3h-18.3c-0.8,0.1-1.3,0.7-1.3,1.5
			C252.5,206.9,253.1,207.5,253.8,207.5z"/>
		<path class="st2" d="M253.6,212.7h10.6c0.8,0,1.4-0.6,1.4-1.4c0-0.8-0.6-1.4-1.4-1.4h-10.6c-0.8,0-1.4,0.6-1.4,1.4
			C252.2,212.1,252.8,212.7,253.6,212.7z"/>
		<g class="st9">
			<path class="st8" d="M253.8,207.5H272c0.8-0.1,1.3-0.7,1.3-1.5c-0.1-0.7-0.6-1.2-1.3-1.3h-18.3c-0.8,0.1-1.3,0.7-1.3,1.5
				C252.5,206.9,253.1,207.5,253.8,207.5z"/>
			<path class="st8" d="M253.6,212.7h10.6c0.8,0,1.4-0.6,1.4-1.4c0-0.8-0.6-1.4-1.4-1.4h-10.6c-0.8,0-1.4,0.6-1.4,1.4
				C252.2,212.1,252.8,212.7,253.6,212.7z"/>
		</g>
		<path class="st2" d="M144.4,279.2h15.6c0.8,0,1.4-0.6,1.4-1.4c0-0.8-0.6-1.4-1.4-1.4h-15.6c-0.8,0-1.4,0.6-1.4,1.4
			C143.1,278.5,143.7,279.2,144.4,279.2z"/>
		<path class="st2" d="M143.9,285.2h20.3c0.8,0,1.4-0.6,1.4-1.4c0-0.8-0.6-1.4-1.4-1.4h-20.3c-0.8,0-1.4,0.6-1.4,1.4
			C142.5,284.5,143.1,285.2,143.9,285.2z"/>
		<path class="st2" d="M143.9,291.4H154c0.8,0,1.4-0.6,1.4-1.4c0-0.8-0.6-1.4-1.4-1.4h-10.1c-0.8,0-1.4,0.6-1.4,1.4
			C142.5,290.7,143.1,291.4,143.9,291.4z"/>
		<g class="st9">
			<path class="st8" d="M144.4,279.2h15.6c0.8,0,1.4-0.6,1.4-1.4c0-0.8-0.6-1.4-1.4-1.4h-15.6c-0.8,0-1.4,0.6-1.4,1.4
				C143.1,278.5,143.7,279.2,144.4,279.2z"/>
			<path class="st8" d="M143.9,285.2h20.3c0.8,0,1.4-0.6,1.4-1.4c0-0.8-0.6-1.4-1.4-1.4h-20.3c-0.8,0-1.4,0.6-1.4,1.4
				C142.5,284.5,143.1,285.2,143.9,285.2z"/>
			<path class="st8" d="M143.9,291.4H154c0.8,0,1.4-0.6,1.4-1.4c0-0.8-0.6-1.4-1.4-1.4h-10.1c-0.8,0-1.4,0.6-1.4,1.4
				C142.5,290.7,143.1,291.4,143.9,291.4z"/>
		</g>
	</g>
	<g id="freepik--Character--inject-18">
		<path class="st12" d="M34.1,122.2l4.7-0.2l-2.1,9c-1.7-1.2-3.2-2.5-4.6-4c-0.8-1-0.7-2.4,0.2-3.2L34.1,122.2z"/>
		<polygon class="st12" points="44.3,126.8 42.2,134.1 36.7,130.9 38.8,121.9 		"/>
		
			<rect x="44.8" y="83.3" transform="matrix(0.9957 -9.219680e-02 9.219680e-02 0.9957 -18.5652 5.4429)" class="st2" width="9.7" height="240.8"/>
		
			<rect x="44.8" y="83.3" transform="matrix(0.9957 -9.219680e-02 9.219680e-02 0.9957 -18.5652 5.4429)" class="st13" width="9.7" height="240.8"/>
		
			<rect x="64.1" y="81.5" transform="matrix(0.9957 -9.219680e-02 9.219680e-02 0.9957 -18.3171 7.2203)" class="st2" width="9.7" height="240.8"/>
		
			<rect x="64.1" y="81.5" transform="matrix(0.9957 -9.219680e-02 9.219680e-02 0.9957 -18.3171 7.2203)" class="st13" width="9.7" height="240.8"/>
		
			<rect x="54.5" y="82.4" transform="matrix(0.9957 -9.219680e-02 9.219680e-02 0.9957 -18.4411 6.332)" class="st2" width="9.7" height="240.8"/>
		
			<rect x="54.5" y="82.4" transform="matrix(0.9957 -9.219680e-02 9.219680e-02 0.9957 -18.4411 6.332)" class="st7" width="9.7" height="240.8"/>
		<polygon class="st2" points="51,65.7 42.3,66.5 33.7,84.2 62.7,81.5 		"/>
		<g class="st10">
			<polygon class="st8" points="51,65.7 42.3,66.5 33.7,84.2 62.7,81.5 			"/>
		</g>
		<polygon class="st14" points="46,58.9 42.3,66.5 51,65.7 		"/>
		<path class="st12" d="M119.2,72.4c1,1,1.8,1.9,2.7,3s1.7,2,2.5,3c1.6,2,3.2,4.1,4.7,6.3c3.1,4.4,5.7,9.1,7.8,14
			c0.3,0.6,0.5,1.3,0.7,2l0.4,1c0.2,0.6,0.3,1.2,0.4,1.8c0.2,2,0,4-0.8,5.9c-1.1,2.8-2.6,5.3-4.5,7.6c-3.3,4.1-7.2,7.7-11.4,10.9
			l-3.8-4c3-3.7,5.7-7.6,8.1-11.7c1.1-1.7,1.9-3.6,2.4-5.6c0.2-0.5,0.2-1,0.1-1.5l0,0l-0.3-0.7c-0.2-0.5-0.4-1-0.7-1.5
			c-2.1-4.1-4.6-8-7.4-11.7c-1.4-1.9-2.9-3.8-4.4-5.6c-0.8-0.9-1.5-1.8-2.3-2.7l-2.3-2.6L119.2,72.4z"/>
		<polygon class="st12" points="111.8,126.9 116.1,135.3 120.3,131.7 116.8,125.7 		"/>
		<path class="st12" d="M79.7,77.4c-2.6,4.9-5.3,9.8-8.1,14.6c-1.4,2.4-2.8,4.8-4.2,7.2l-2.2,3.6l-0.5,0.9c-0.3,0.4-0.6,0.9-0.8,1.3
			s-0.5,0.8-0.8,1.1s-0.5,0.7-0.8,0.9c-2,2.2-4.2,4.3-6.4,6.2c-2.2,1.9-4.4,3.7-6.6,5.4c-4.5,3.5-9.1,6.7-13.8,9.8l-3.4-4.3
			l11.8-11.7c1.9-2,3.9-3.9,5.8-5.9c1.8-1.9,3.5-3.8,5.1-5.9c0.2-0.2,0.4-0.5,0.5-0.7c0.2-0.2,0.3-0.4,0.4-0.6
			c0.1-0.2,0.2-0.3,0.3-0.5l0.5-0.9l1.8-3.8c1.3-2.5,2.5-5,3.8-7.5c2.6-5,5.2-9.9,8-14.8L79.7,77.4z"/>
		<path class="st14" d="M107.8,43.6c-0.1,0.6,0.1,1.1,0.4,1.2s0.8-0.3,0.9-0.9s-0.1-1.1-0.5-1.2S107.9,43,107.8,43.6z"/>
		<path class="st15" d="M107.8,44.7c0.3,2,0.9,3.9,1.7,5.6c-0.9,0.4-2,0.3-2.9-0.2L107.8,44.7z"/>
		<path class="st14" d="M109.3,40.1c-0.1,0-0.1,0-0.2-0.1c-0.7-0.5-1.7-0.5-2.5-0.2c-0.2,0.1-0.4,0-0.5-0.2c-0.1-0.2,0-0.4,0.2-0.5
			c1-0.4,2.2-0.4,3.1,0.2c0.2,0.1,0.2,0.3,0.1,0.5c0,0,0,0,0,0C109.6,40,109.4,40.1,109.3,40.1z"/>
		<path class="st12" d="M87.6,45.8c1.3,5.4,2.7,15.2-0.9,18.8c0,0,1.7,5.4,11.7,5.4c11,0,5-5.4,5-5.4c-6.1-1.4-6.1-5.9-5.2-10.1
			L87.6,45.8z"/>
		<path class="st2" d="M85.3,66.5c-0.9-1.7-1.8-3.7,0-4.3c1.9-0.7,12.7-1.4,16.5-0.1c2.1,0.6,3.4,2.7,2.9,4.8L85.3,66.5z"/>
		<path class="st16" d="M85.3,66.5c-0.9-1.7-1.8-3.7,0-4.3c1.9-0.7,12.7-1.4,16.5-0.1c2.1,0.6,3.4,2.7,2.9,4.8L85.3,66.5z"/>
		<path class="st8" d="M70.9,317.4c-0.6,0-1.3-0.1-1.9-0.2c-0.1,0-0.1-0.1-0.1-0.1c0-0.1,0-0.1,0.1-0.2c0.1-0.1,2-1.4,3.1-1.2
			c0.2,0,0.5,0.2,0.6,0.4c0.2,0.2,0.2,0.6,0,0.8C72.4,317.3,71.6,317.4,70.9,317.4z M69.5,316.9c1.1,0.2,2.6,0.2,2.9-0.2
			c0,0,0.1-0.2-0.1-0.5c-0.1-0.1-0.2-0.2-0.4-0.2C71.1,316,70.2,316.4,69.5,316.9L69.5,316.9z"/>
		<path class="st8" d="M69,317.2L69,317.2c-0.1,0-0.2-0.1-0.2-0.1c0-0.1,0.1-2.2,0.9-2.9c0.2-0.2,0.5-0.3,0.7-0.2
			c0.3,0,0.5,0.2,0.6,0.5C71.2,315.2,69.8,316.8,69,317.2L69,317.2z M70.4,314.2c-0.1,0-0.3,0.1-0.4,0.1c-0.5,0.7-0.8,1.5-0.8,2.3
			c0.7-0.6,1.6-1.8,1.5-2.3C70.7,314.3,70.7,314.2,70.4,314.2L70.4,314.2z"/>
		<path class="st8" d="M115,317.4c-0.8,0-1.5-0.1-2.3-0.2c-0.1,0-0.1-0.1-0.1-0.1c0-0.1,0-0.1,0.1-0.2c0.4-0.2,3.6-2.1,4.4-0.8
			c0.2,0.2,0.2,0.5,0,0.8C116.9,317.3,115.9,317.4,115,317.4z M113.3,316.9c1.4,0.2,3.2,0.2,3.6-0.3c0,0,0.1-0.1-0.1-0.4
			C116.4,315.5,114.4,316.4,113.3,316.9L113.3,316.9z"/>
		<path class="st8" d="M112.8,317.2c0,0-0.1,0-0.1,0c-0.1,0-0.1-0.1-0.1-0.2c0-0.1,0.1-2.1,1-2.8c0.3-0.2,0.6-0.4,1-0.3
			c0.5,0,0.6,0.3,0.7,0.5C115.4,315.2,113.7,316.8,112.8,317.2L112.8,317.2z M114.5,314.2c-0.2,0-0.4,0.1-0.6,0.2
			c-0.5,0.6-0.8,1.4-0.9,2.3c0.9-0.5,2-1.8,1.9-2.3C114.9,314.4,114.9,314.2,114.5,314.2L114.5,314.2z"/>
		<polygon class="st12" points="104.7,317 112.1,317 112.1,300 104.8,300 		"/>
		<polygon class="st12" points="60.6,317 67.9,317 71,300 63.6,300 		"/>
		<path class="st14" d="M68.4,316.2h-8.3c-0.3,0-0.6,0.2-0.6,0.5l-1.2,6.5c-0.1,0.6,0.3,1.2,0.9,1.3c0.1,0,0.1,0,0.2,0
			c2.9,0,4.3-0.2,7.9-0.2c2.2,0,6.8,0.2,9.9,0.2s3.4-3,2.1-3.3c-5.7-1.2-7.9-3-9.8-4.6C69.3,316.3,68.9,316.2,68.4,316.2z"/>
		<path class="st14" d="M112,316.2h-8c-0.3,0-0.6,0.2-0.6,0.5l-1.2,6.5c-0.1,0.6,0.3,1.2,0.9,1.3c0.1,0,0.1,0,0.2,0
			c2.9,0,7.1-0.2,10.7-0.2c4.3,0,7.9,0.2,12.9,0.2c3,0,3.7-3,2.5-3.3c-5.8-1.3-10.5-1.4-15.6-4.5C113.2,316.4,112.6,316.2,112,316.2
			z"/>
		<path class="st2" d="M72.6,66.3c-6.8,1.6-14,20.4-14,20.4l14.2,9.5c3.3-4.9,6.1-10.1,8.5-15.5C85.1,72,79.6,64.7,72.6,66.3z"/>
		<path class="st17" d="M72.6,66.3c-6.8,1.6-14,20.4-14,20.4l14.2,9.5c3.3-4.9,6.1-10.1,8.5-15.5C85.1,72,79.6,64.7,72.6,66.3z"/>
		<path class="st2" d="M78,78.2l-5.9,17.4l0.7,0.4c0,0,2.7-4,5.5-9.3L78,78.2z"/>
		<path class="st18" d="M78,78.2l-5.9,17.4l0.7,0.4c0,0,2.7-4,5.5-9.3L78,78.2z"/>
		<path class="st2" d="M118.5,99.1c-0.1,8.2-0.6,18.4-1.8,31.1H77.4c-0.5-6,2.1-35.5-4.8-63.9c4.3-0.8,8.7-1.4,13.1-1.7
			c5.6-0.3,11.1-0.3,16.7,0c3.8,0.4,7.6,1,11.4,2c0,0,3.4,3.6,4.4,20.7C118.4,90.7,118.5,94.6,118.5,99.1z"/>
		<path class="st17" d="M118.5,99.1c-0.1,8.2-0.6,18.4-1.8,31.1H77.4c-0.5-6,2.1-35.5-4.8-63.9c4.3-0.8,8.7-1.4,13.1-1.7
			c5.6-0.3,11.1-0.3,16.7,0c3.8,0.4,7.6,1,11.4,2c0,0,3.4,3.6,4.4,20.7C118.4,90.7,118.5,94.6,118.5,99.1z"/>
		<path class="st2" d="M118.5,99.1c-2.4-4.3-6.7-13.1-6.1-18l5.8,6.3C118.4,90.7,118.5,94.6,118.5,99.1z"/>
		<path class="st18" d="M118.5,99.1c-2.4-4.3-6.7-13.1-6.1-18l5.8,6.3C118.4,90.7,118.5,94.6,118.5,99.1z"/>
		<path class="st2" d="M106.1,73.3c-0.6,7,15.3,23.8,15.3,23.8l12.7-10.4c-3.3-5.6-7.3-10.8-11.9-15.5
			C114.7,64.1,106.8,65.4,106.1,73.3z"/>
		<path class="st17" d="M106.1,73.3c-0.6,7,15.3,23.8,15.3,23.8l12.7-10.4c-3.3-5.6-7.3-10.8-11.9-15.5
			C114.7,64.1,106.8,65.4,106.1,73.3z"/>
		<polygon class="st19" points="112.1,300 112.1,308.8 104.7,308.8 104.8,300 		"/>
		<polygon class="st19" points="63.6,300 71,300 69.4,308.8 62.1,308.8 		"/>
		<path class="st12" d="M88.9,37.5c-1.1,7.2-2.1,11.4,0.7,16c2.7,4.5,8.5,6,13,3.3c1.7-1,3-2.5,3.8-4.2c2.9-6,4.1-16.8-2.2-21.4
			c-4.2-3.2-10.2-2.5-13.4,1.7C89.8,34.3,89.1,35.8,88.9,37.5z"/>
		<path class="st14" d="M110.6,34.1c-2.2,1.2-4.5,1.9-7,2.1c-1.8,8.4-6.7,18-14.6,15.2c-3-1-6-8.3-6.3-14.7
			c-0.5,0.6-0.9,1.4-1.1,1.8c-0.4-2.9-0.1-5.8,0.9-8.5c2.2-6.2,3.6-2.1,6-5.8c1.5-2.5,4.3-3.8,9-3.9c-1.3,0.7-1.6,1.8,0.4,1.6
			s10.4-0.6,15.3,2.7c-3.3,0.8-1.3,6,3.1,3.2C114.7,30.4,112.7,32.9,110.6,34.1z"/>
		<path class="st12" d="M98,42c0,1.8,0.6,3.6,1.8,5.1c1.5,1.9,3.2,1,3.6-1.2c0.4-1.9,0-5.2-1.9-6.4S98,39.8,98,42z"/>
		<path class="st20" d="M89,25c-2-0.1-3.9-1.3-4.9-3C84.1,22,84,27.8,89,25z"/>
		<path class="st2" d="M102.7,130.1c0,0-6.2,56.1-9.9,77.2c-4.1,23-20,99.8-20,99.8H59.3c0,0,9.6-74.9,11.6-97.7
			c2.1-24.8,6.5-79.3,6.5-79.3L102.7,130.1z"/>
		<path class="st16" d="M102.7,130.1c0,0-6.2,56.1-9.9,77.2c-4.1,23-20,99.8-20,99.8H59.3c0,0,9.6-74.9,11.6-97.7
			c2.1-24.8,6.5-79.3,6.5-79.3L102.7,130.1z"/>
		<path class="st2" d="M74.7,302.1c0.1,0-1.2,5.2-1.2,5.2H58.4l0.1-4.6L74.7,302.1z"/>
		<path class="st6" d="M74.7,302.1c0.1,0-1.2,5.2-1.2,5.2H58.4l0.1-4.6L74.7,302.1z"/>
		<path class="st2" d="M98.3,150.1c-9.6,1.9-7.2,37.8-5.3,56.3c2.3-13.1,5.4-38.2,7.5-56.1C99.8,150.1,99,150,98.3,150.1z"/>
		<path class="st4" d="M98.3,150.1c-9.6,1.9-7.2,37.8-5.3,56.3c2.3-13.1,5.4-38.2,7.5-56.1C99.8,150.1,99,150,98.3,150.1z"/>
		<path class="st2" d="M116.7,130.1c0,0,3.1,54.9,3.2,77.3c0.1,23.3-5.1,99.6-5.1,99.6h-12.4c0,0-3.4-74.9-4.8-97.8
			c-1.6-25-6.7-79.1-6.7-79.1L116.7,130.1z"/>
		<path class="st16" d="M116.7,130.1c0,0,3.1,54.9,3.2,77.3c0.1,23.3-5.1,99.6-5.1,99.6h-12.4c0,0-3.4-74.9-4.8-97.8
			c-1.6-25-6.7-79.1-6.7-79.1L116.7,130.1z"/>
		<path class="st12" d="M119.7,123.1l-3.5,0.3c-1.1,0.1-1.8,1-1.8,2.1c0,0.1,0,0.3,0.1,0.4l1.4,4.8c0.4,1.4,1.8,2.1,3.2,1.7
			c0.3-0.1,0.6-0.2,0.8-0.4c1.8-1.7,3.1-3.8,3.7-6.2L119.7,123.1z"/>
		<path class="st2" d="M111.8,298.1L111.8,298.1c-0.1,0-0.1-0.1-0.1-0.1c1.4-21.1,4.6-72.2,4.5-90.5c0-18.8-2.3-60.7-3-73.1
			c0-0.1,0-0.1,0.1-0.1c0,0,0,0,0,0c0.1,0,0.1,0.1,0.1,0.1c0.7,12.4,2.9,54.4,3,73.1c0.1,18.3-3.1,69.4-4.5,90.5
			C111.9,298.1,111.9,298.1,111.8,298.1C111.8,298.1,111.8,298.1,111.8,298.1z"/>
		<path class="st21" d="M111.8,298.1L111.8,298.1c-0.1,0-0.1-0.1-0.1-0.1c1.4-21.1,4.6-72.2,4.5-90.5c0-18.8-2.3-60.7-3-73.1
			c0-0.1,0-0.1,0.1-0.1c0,0,0,0,0,0c0.1,0,0.1,0.1,0.1,0.1c0.7,12.4,2.9,54.4,3,73.1c0.1,18.3-3.1,69.4-4.5,90.5
			C111.9,298.1,111.9,298.1,111.8,298.1C111.8,298.1,111.8,298.1,111.8,298.1z"/>
		<path class="st2" d="M117,302.1c0.1,0-0.5,5.2-0.5,5.2h-15.1l-0.6-4.6L117,302.1z"/>
		<path class="st6" d="M117,302.1c0.1,0-0.5,5.2-0.5,5.2h-15.1l-0.6-4.6L117,302.1z"/>
	</g>
</g>
</svg>
