<?xml version="1.0" encoding="utf-8"?>
<!-- Generator: Adobe Illustrator 22.1.0, SVG Export Plug-In . SVG Version: 6.00 Build 0)  -->
<svg version="1.1" id="Layer_1" xmlns="http://www.w3.org/2000/svg" xmlns:xlink="http://www.w3.org/1999/xlink" x="0px" y="0px"
	 viewBox="0 0 603.3 232.3" style="enable-background:new 0 0 603.3 232.3;" xml:space="preserve">
<style type="text/css">
	.st0{fill:#3399FF;}
</style>
<g>
	<g>
		<g>
			<path class="st0" d="M265.9,101.2h-13.2c6.8-24.6,3.8-48.1-8.9-67.3c-14-20.9-38.2-34-63.1-34c-21.2,0-40,9.6-52.6,26.2
				C115.4,9.6,96.7,0,75.5,0c-24.9,0-49,13-63,33.9c-15,22.6-16.6,51.3-4.3,80.7l2.4,5.9h87.1l6.7-14.6l31.2,62.6l23.8-48.1h64.1
				c-17,29.5-49.7,60-95.6,89.1c-31.5-20-56.6-40.4-74.7-60.9H28.1l6.2,7.4c20.7,24.8,50.5,49.3,88.7,73l5.1,3.1l5.1-3.1
				c57-35.3,94.8-71.8,112.3-108.7h0.2l0,0H266c5.3,0,9.6-4.3,9.6-9.6C275.5,105.5,271.2,101.2,265.9,101.2z M147.5,101.2l-11.8,24
				l-31.8-63.7l-18.4,39.7H23.7c-7.2-21.1-5.6-41,4.8-56.6C39,29,56.9,19.3,75.5,19.3c19.4,0,35.3,10.9,43.7,29.8l8.8,19.8l8.8-19.8
				c8.4-19,24.5-29.8,43.9-29.8c18.6,0,36.7,9.7,47.1,25.4c10.4,15.6,12,35.5,4.8,56.6h-73l0,0L147.5,101.2L147.5,101.2L147.5,101.2
				z"/>
		</g>
	</g>
	<rect x="326.5" y="54.7" class="st0" width="9" height="124"/>
</g>
<g>
	<path class="st0" d="M388.6,175.8V58.4h40.5c7.7,0,14.2,0.7,19.7,2.2c5.4,1.5,9.9,3.5,13.4,6.3c3.5,2.7,6,6,7.7,9.8
		c1.6,3.8,2.4,8.2,2.4,13c0,2.8-0.4,5.4-1.2,7.9c-0.8,2.5-2.1,4.9-3.8,7.1c-1.7,2.2-3.9,4.2-6.5,6c-2.6,1.8-5.8,3.3-9.4,4.5
		c16.1,3.6,24.2,12.3,24.2,26.1c0,5-0.9,9.6-2.8,13.8c-1.9,4.2-4.7,7.9-8.3,10.9c-3.6,3.1-8.1,5.5-13.4,7.2
		c-5.3,1.7-11.4,2.6-18.2,2.6H388.6z M410.4,109.2h17.5c7.4,0,13-1.4,16.9-4.1c3.8-2.7,5.8-7,5.8-12.9c0-6.1-1.7-10.5-5.2-13.1
		c-3.5-2.6-8.9-3.9-16.2-3.9h-18.7V109.2z M410.4,124.3v34.4h22.2c4.1,0,7.5-0.5,10.2-1.5c2.7-1,4.9-2.3,6.6-3.9
		c1.7-1.6,2.8-3.5,3.6-5.7c0.7-2.2,1.1-4.5,1.1-6.9c0-2.5-0.4-4.8-1.2-6.9c-0.8-2-2.1-3.8-3.8-5.2c-1.7-1.4-4-2.5-6.7-3.3
		c-2.7-0.8-6-1.1-9.8-1.1H410.4z"/>
	<path class="st0" d="M517.6,68.2c0,1.7-0.4,3.4-1.1,4.9c-0.7,1.5-1.6,2.8-2.8,4c-1.2,1.1-2.5,2-4.1,2.7c-1.6,0.7-3.2,1-5,1
		c-1.7,0-3.4-0.3-4.9-1c-1.5-0.7-2.9-1.6-4-2.7c-1.1-1.1-2-2.5-2.7-4c-0.7-1.5-1-3.1-1-4.9c0-1.8,0.3-3.5,1-5
		c0.7-1.6,1.6-2.9,2.7-4.1s2.5-2,4-2.7c1.5-0.7,3.2-1,4.9-1c1.8,0,3.5,0.3,5,1c1.6,0.7,2.9,1.6,4.1,2.7c1.2,1.1,2.1,2.5,2.8,4.1
		C517.2,64.7,517.6,66.4,517.6,68.2z M514.6,92.5v83.3h-20.1V92.5H514.6z"/>
	<path class="st0" d="M558.6,55.1v120.6h-20.1V55.1H558.6z"/>
	<path class="st0" d="M602.6,55.1v120.6h-20.1V55.1H602.6z"/>
</g>
</svg>
