<svg xmlns="http://www.w3.org/2000/svg" viewBox="0 0 500 500"><g id="freepik--background-simple--inject-35"><path d="M411.81,130.52l-2-3.33c-17-28-47.72-44.88-80.11-42.83a85,85,0,0,0-12.4,1.7c-29.46,6.31-55.08,28.58-65.71,57.1-6.24,16.78-8,36.09-19.84,49.41-15.43,17.33-41.63,17.87-64.66,17.16s-49.24-.11-64.59,17.29c-9.62,10.89-12.68,26.39-11.9,41,2,38.64,29,73.18,63.21,90.35s74.54,18.71,112,11.15c52.49-10.58,102.41-39.63,132.42-84.52S435.81,179,411.81,130.52Z" style="fill:#ebebeb"></path></g><g id="freepik--speech-bubble--inject-35"><path d="M131.79,142.88l-7.28-12.83a34.37,34.37,0,1,0-8.23,9.16l0,0Z" style="fill:#fff"></path><path d="M131.79,142.88l-15.56-3.53a.12.12,0,0,1-.09-.15.08.08,0,0,1,0,0v0l.19.18a34.23,34.23,0,0,1-16.49,7,30.37,30.37,0,0,1-5.44.28c-.94-.05-1.89-.07-2.85-.15L88.67,146a34.71,34.71,0,0,1-21.48-13.79,34.12,34.12,0,0,1-5.81-13.28,35,35,0,0,1,.4-15.29,33.82,33.82,0,0,1,7.37-14.14A34.44,34.44,0,0,1,82.4,80a35.09,35.09,0,0,1,15.41-2.37A33.91,33.91,0,0,1,112,81.82a34.89,34.89,0,0,1,16.31,20.08,37.42,37.42,0,0,1,1.49,11.18,34.32,34.32,0,0,1-5.14,17V130l7.17,12.89-7.39-12.77a.13.13,0,0,1,0-.12,34.06,34.06,0,0,0,5-16.92,37.26,37.26,0,0,0-1.52-11,34.48,34.48,0,0,0-16.16-19.79,33.56,33.56,0,0,0-14-4.1,34.53,34.53,0,0,0-15.18,2.35,34,34,0,0,0-13,9.32,33.45,33.45,0,0,0-7.27,13.92,34.63,34.63,0,0,0-.41,15.07A34.24,34.24,0,0,0,77.33,141a34.46,34.46,0,0,0,11.42,4.52l2.87.45c.95.08,1.89.11,2.82.16a30.72,30.72,0,0,0,5.38-.25,34.18,34.18,0,0,0,16.38-6.8.12.12,0,0,1,.18,0,.14.14,0,0,1,0,.16v0l-.08-.21Z" style="fill:#263238"></path><polygon points="76.9 112.78 81.83 107.85 91.34 116.3 110.01 98.34 114.59 103.27 90.64 125.81 76.9 112.78" style="fill:#3399FF"></polygon></g><g id="freepik--Floor--inject-35"><path d="M456.37,480.49c0,.15-94.64.26-211.36.26s-211.38-.11-211.38-.26,94.62-.26,211.38-.26S456.37,480.35,456.37,480.49Z" style="fill:#263238"></path></g><g id="freepik--character-2--inject-35"><path d="M278.06,385.51v-8a10.1,10.1,0,0,1,10.13-10.09l46.93.11L374,258.33l1.37-42.95,65.17-2-13.42,50L368.51,385.51Z" style="fill:#455a64"></path><path d="M421.74,262.25c0,.15-10.26.26-22.92.26s-22.93-.11-22.93-.26,10.27-.26,22.93-.26S421.74,262.11,421.74,262.25Z" style="fill:#263238"></path><path d="M354.27,365.17a8.11,8.11,0,0,1,1.83,1.31,28.73,28.73,0,0,1,3.84,3.84,29.17,29.17,0,0,1,3,4.52,8.46,8.46,0,0,1,.92,2.06c-.16.09-1.69-3-4.34-6.25S354.15,365.31,354.27,365.17Z" style="fill:#263238"></path><rect x="278.87" y="458.66" width="31.94" height="4.72" style="fill:#263238"></rect><polygon points="275.1 380.01 275.1 397.27 373.45 397.27 440.49 263.86 440.49 213.41 424.82 213.41 424.72 262.53 365.43 380.01 275.1 380.01" style="fill:#263238"></polygon><rect x="310.52" y="397.27" width="47.55" height="76.5" style="fill:#263238"></rect><path d="M373.45,397.27c0,.15-21.9.3-48.91.35s-48.91,0-48.91-.17,21.89-.3,48.91-.35S373.45,397.13,373.45,397.27Z" style="fill:#455a64"></path><path d="M373.45,397.27a87.7,87.7,0,0,1-4.25-8.52,88.48,88.48,0,0,1-3.77-8.74,86.42,86.42,0,0,1,4.24,8.52A87.27,87.27,0,0,1,373.45,397.27Z" style="fill:#455a64"></path><path d="M440.7,262.25a127.4,127.4,0,0,1-16.27,0,127.4,127.4,0,0,1,16.27,0Z" style="fill:#455a64"></path><polygon points="310.52 473.77 267.36 480.63 396.24 480.63 358.07 473.77 310.52 473.77" style="fill:#263238"></polygon><path d="M362.17,474.06c0,.14-11.5.26-25.68.26s-25.68-.12-25.68-.26,11.5-.26,25.68-.26S362.17,473.92,362.17,474.06Z" style="fill:#455a64"></path><path d="M347.83,134.85a9,9,0,0,1,14.41-8,7.94,7.94,0,0,0,2.14,1.43,7.44,7.44,0,0,0,3.08,0,10.85,10.85,0,0,1,10.68,16,11.69,11.69,0,0,1,5.8,19,7.57,7.57,0,0,1-2.29,12.54,5.23,5.23,0,0,0-2.24,1.2c-1.52,1.84,1.06,4.79,0,6.92-.83,1.61-3.37,1.86-4,3.57-.42,1.23.41,2.51.57,3.8.36,2.81-2.48,5-5.21,5.75-5.41,1.43-11.36-.58-15.53-4.31s-6.75-9-8.22-14.38c-3.46-12.69-1.29-26.15.9-39.12" style="fill:#263238"></path><path d="M343.8,139a3.52,3.52,0,1,1,4.5-5.39c.39.37.76.86,1.29.89s.93-.36,1.35-.64a3.47,3.47,0,0,1,5.39,3.3c1.77-.76,4.22-.54,5.11,1.16.79,1.52-.12,3.5-1.59,4.37a7.56,7.56,0,0,1-5,.63A19.94,19.94,0,0,1,344,138" style="fill:#3399FF"></path><path d="M354.8,139.05c.05.1.63-.12,1.06-.73s.44-1.22.34-1.23-.3.48-.67,1S354.75,139,354.8,139.05Z" style="fill:#fff"></path><path d="M348.53,138.61c.11,0,0-.88.31-1.87s.75-1.72.65-1.79a2.61,2.61,0,0,0-1,1.68A2.56,2.56,0,0,0,348.53,138.61Z" style="fill:#fff"></path><path d="M345.16,137.78c.11,0-.12-.88.08-1.9s.69-1.74.6-1.82a2.38,2.38,0,0,0-1,1.75A2.33,2.33,0,0,0,345.16,137.78Z" style="fill:#fff"></path><path d="M357.32,141.21s.27,0,.66-.12a2.79,2.79,0,0,0,1.25-1,3,3,0,0,0,.51-1.55c0-.42-.09-.67-.14-.66a6.76,6.76,0,0,1-.7,2C358.25,140.8,357.27,141.1,357.32,141.21Z" style="fill:#fff"></path><path d="M321.29,178.69a5.58,5.58,0,0,1-3.72-6.41,6.7,6.7,0,0,1-1.42-9.64,4.72,4.72,0,0,1,2.8-8.28,6.37,6.37,0,0,1,7-8.56,5.83,5.83,0,0,1,9-5.73c2.86-3.86,9.43-4.1,12.56-.45a7.89,7.89,0,0,1,10.81,3.32c2.38-2.21,6.52-1.42,8.68,1s2.67,5.92,2.41,9.16a5.36,5.36,0,0,1,.79,9.3,9.23,9.23,0,0,1-1.68,12.72,10.61,10.61,0,0,1-5.22,10.57" style="fill:#263238"></path><path d="M359.6,160,361,156.1,337,152.27c-7.36-.56-15.09,7-15.33,14.41-.28,8.2-.29,18.23.86,24.31,2.31,12.22,11.77,13.51,11.77,13.51l.74,19.28,26.66-11.22Z" style="fill:#ba785d"></path><path d="M324.88,174.08a1.58,1.58,0,0,0,1.57,1.55,1.52,1.52,0,0,0,1.58-1.47,1.58,1.58,0,0,0-1.57-1.54A1.5,1.5,0,0,0,324.88,174.08Z" style="fill:#263238"></path><path d="M324.42,171.82c.2.2,1.37-.72,3.06-.76s3,.76,3.14.55-.12-.46-.67-.84a4.37,4.37,0,0,0-2.52-.69,4.15,4.15,0,0,0-2.44.86C324.48,171.36,324.32,171.73,324.42,171.82Z" style="fill:#263238"></path><path d="M341.1,174.08a1.58,1.58,0,0,0,1.57,1.55,1.51,1.51,0,0,0,1.58-1.47,1.56,1.56,0,0,0-1.56-1.54A1.51,1.51,0,0,0,341.1,174.08Z" style="fill:#263238"></path><path d="M341.46,171.61c.21.2,1.37-.72,3.07-.76s3,.76,3.14.55-.12-.46-.68-.84a4.32,4.32,0,0,0-2.52-.69,4.14,4.14,0,0,0-2.43.86C341.53,171.15,341.37,171.52,341.46,171.61Z" style="fill:#263238"></path><path d="M335.31,184.4a11.14,11.14,0,0,0-2.77-.42c-.43,0-.85-.1-.93-.4a2.25,2.25,0,0,1,.25-1.29c.38-1.06.77-2.17,1.19-3.33,1.64-4.75,2.81-8.64,2.62-8.71s-1.68,3.73-3.32,8.48c-.39,1.17-.77,2.28-1.13,3.35a2.51,2.51,0,0,0-.17,1.71,1.08,1.08,0,0,0,.73.61,3.47,3.47,0,0,0,.74.08A10.91,10.91,0,0,0,335.31,184.4Z" style="fill:#263238"></path><path d="M334.31,204.53a32.56,32.56,0,0,0,16.74-4.91s-3.9,8.72-16.64,8Z" style="fill:#915641"></path><path d="M342.05,162.71c.1.48,1.8.54,3.73,1.09s3.42,1.35,3.75,1c.15-.18-.06-.65-.63-1.2a4,4,0,0,0-2.66-1.45,6.51,6.51,0,0,0-3-.13C342.44,162.19,342,162.48,342.05,162.71Z" style="fill:#263238"></path><path d="M324.46,166.48c.33.36,1.46-.12,2.86-.25s2.61.06,2.85-.37c.1-.2-.11-.57-.66-.89a3.86,3.86,0,0,0-2.37-.45,3.91,3.91,0,0,0-2.23.95C324.45,165.9,324.32,166.31,324.46,166.48Z" style="fill:#263238"></path><path d="M347.35,152.07a6.12,6.12,0,0,1-1.44,2.65,2.09,2.09,0,0,1-2.76.17,2.73,2.73,0,0,1-4.23-.3,3.74,3.74,0,0,1-4.5.45l-3.66.8c-1.33.29-3,.46-3.79-.62-.19-.25-.33-.57-.61-.7a1.67,1.67,0,0,0-.94,0,3.15,3.15,0,0,1-2.75-1.3,9.28,9.28,0,0,1-1.37-2.85c-.53-1.53-.95-3.52.3-4.56a3.92,3.92,0,0,1,1.76-.69,9.08,9.08,0,0,1,3.87-.29A6.74,6.74,0,0,1,331,147.6a1.72,1.72,0,0,1,1.06-2.12,3.32,3.32,0,0,1,2.56.23,6.65,6.65,0,0,1,2.86,2.44,5.54,5.54,0,0,1,5,3,4.07,4.07,0,0,1,3.15-.57,1.46,1.46,0,0,1,.95.6.65.65,0,0,1-.33.94" style="fill:#263238"></path><path d="M335.49,152.8a4.05,4.05,0,0,1-6.2,4.73,3.76,3.76,0,0,1-4.21,2.42,5.87,5.87,0,0,1-3,5.16,4.56,4.56,0,0,1,.08,3.35,2.78,2.78,0,0,1-1.38,1.64,3.16,3.16,0,0,1-2.53-.18,4.5,4.5,0,0,1-2.58-2.5,2.61,2.61,0,0,1,1.16-3.18,9.68,9.68,0,0,1-2.46-3.51,3.15,3.15,0,0,1-.2-2.4,1.37,1.37,0,0,1,2-.67,3.61,3.61,0,0,1,3.84-5.27,3,3,0,0,1,5-2.22" style="fill:#263238"></path><path d="M350.18,151.42c-.12-1.48,1.31-2.74,2.79-2.95a7.62,7.62,0,0,1,4.28,1,5.28,5.28,0,0,1,5.82-1.49c2,.79,3.25,2.7,4.89,4.07a10.84,10.84,0,0,1,2.47,2.3c.6,1,.59,2.44-.39,3a3.82,3.82,0,0,1,1.1,6.62c-.35.27-.76.51-.9.93a1.63,1.63,0,0,0,.1,1.06,38.67,38.67,0,0,1,1.84,4.9c.35,1.71,0,3.75-1.48,4.71-.38.25-.86.45-1,.88a1.36,1.36,0,0,0,0,.89,15.73,15.73,0,0,0,1.24,2.71,4.18,4.18,0,0,1,.45,2.88,1.88,1.88,0,0,1-2.28,1.37,6.14,6.14,0,0,1-.61,5.7c-1.22,1.57-5.26,2.28-7.65.83l-.22-5.63c.32-1-1.22-6.26-.58-7.34,0,0,1.69,3.66-2.11,3.05-1.24.34-3.61-3.29-3.78-4.56a3.41,3.41,0,0,1,1.74-3.19A5.75,5.75,0,0,1,354.4,166a3.08,3.08,0,0,1-.61-5.95,6.35,6.35,0,0,1-4.06-8.51" style="fill:#263238"></path><path d="M358.69,175.2c.17-.09,6.94-2.84,7.43,4.29s-6.76,6.17-6.79,6S358.69,175.2,358.69,175.2Z" style="fill:#ba785d"></path><path d="M361.32,182.6s.13.08.35.16a1.22,1.22,0,0,0,.93,0,3.1,3.1,0,0,0,1.23-2.86,4.24,4.24,0,0,0-.47-1.75,1.45,1.45,0,0,0-1-.89.64.64,0,0,0-.71.39c-.09.21,0,.35-.07.36s-.16-.11-.12-.4a.78.78,0,0,1,.25-.47.94.94,0,0,1,.67-.23,1.76,1.76,0,0,1,1.38,1,4.28,4.28,0,0,1,.57,2c.05,1.44-.59,2.84-1.6,3.21a1.33,1.33,0,0,1-1.15-.11C361.35,182.77,361.3,182.61,361.32,182.6Z" style="fill:#915641"></path><path d="M340.2,186.75a2.47,2.47,0,0,0-4,.79,2.32,2.32,0,0,0,0,1.88,2.15,2.15,0,0,0,4.07-.49c.17-.89.45-2-.35-2.38" style="fill:#915641"></path><path d="M337.39,174.47a15.85,15.85,0,0,1,.36-1.92,7.89,7.89,0,0,1,3-4.22,7.77,7.77,0,0,1,7.37-1,7.19,7.19,0,0,1,1.94,1.09,7.48,7.48,0,0,1,1.6,1.67,7.71,7.71,0,0,1-.15,9.15,7.49,7.49,0,0,1-1.66,1.62,7.6,7.6,0,0,1-2,1,7.84,7.84,0,0,1-10.16-5.53,18,18,0,0,1-.29-1.92,6.14,6.14,0,0,0,.14,1.95,8,8,0,0,0,6.16,6.11,8.14,8.14,0,0,0,4.27-.26,7.72,7.72,0,0,0,2.08-1.06,8,8,0,0,0,1.75-1.69,8.06,8.06,0,0,0,.16-9.61,7.6,7.6,0,0,0-1.69-1.75,7.2,7.2,0,0,0-2-1.13,8.07,8.07,0,0,0-4.25-.41,8,8,0,0,0-6.37,5.89A6,6,0,0,0,337.39,174.47Z" style="fill:#455a64"></path><path d="M317.5,174.13a16.8,16.8,0,0,1,.35-1.92,7.89,7.89,0,0,1,6.27-5.6,7.79,7.79,0,0,1,4.07.42,7.19,7.19,0,0,1,1.94,1.09,7.31,7.31,0,0,1,1.61,1.67,7.73,7.73,0,0,1-.16,9.15,7.67,7.67,0,0,1-3.64,2.64,7.86,7.86,0,0,1-4.08.29,7.75,7.75,0,0,1-3.25-1.5,7.85,7.85,0,0,1-2.82-4.32,15.17,15.17,0,0,1-.29-1.92,5.79,5.79,0,0,0,.14,2,7.87,7.87,0,0,0,2.79,4.52,8.05,8.05,0,0,0,7.63,1.33,7.57,7.57,0,0,0,2.08-1.06,7.78,7.78,0,0,0,1.75-1.69,8.06,8.06,0,0,0,.16-9.61,7.6,7.6,0,0,0-1.69-1.75,7.45,7.45,0,0,0-2-1.13,8,8,0,0,0-7.67,1.07,7.91,7.91,0,0,0-2.95,4.41A6.17,6.17,0,0,0,317.5,174.13Z" style="fill:#455a64"></path><path d="M353.13,173.16a16,16,0,0,0,6,1.91,54.39,54.39,0,0,0-6-1.91Z" style="fill:#455a64"></path><path d="M332.54,172.2a13.57,13.57,0,0,1,2.63-.12,14.23,14.23,0,0,1,2.52.74,3.61,3.61,0,0,0-2.48-1.14A3.67,3.67,0,0,0,332.54,172.2Z" style="fill:#455a64"></path><path d="M348,180.57a2.85,2.85,0,0,0,1.27-.47,6.18,6.18,0,0,0,3.09-5.47,2.85,2.85,0,0,0-.25-1.32,9.59,9.59,0,0,0,0,1.32,7.16,7.16,0,0,1-.86,3,7,7,0,0,1-2.1,2.27C348.42,180.32,347.94,180.51,348,180.57Z" style="fill:#fff"></path><path d="M328.28,180a2.34,2.34,0,0,0,1.18-.45,6,6,0,0,0,2.92-5.16,2.43,2.43,0,0,0-.21-1.24,9.42,9.42,0,0,0-.07,1.23,6.66,6.66,0,0,1-2.8,4.93A11.27,11.27,0,0,0,328.28,180Z" style="fill:#fff"></path><path d="M340.81,184.6c.12,0,.32.52.17,1.39a4.4,4.4,0,0,1-5.18,3.49c-.86-.18-1.28-.55-1.22-.67s.55,0,1.29-.06a4.68,4.68,0,0,0,4.4-3C340.57,185.1,340.65,184.61,340.81,184.6Z" style="fill:#263238"></path><path d="M358.35,142.94a1.66,1.66,0,0,1,.38-.25,6.17,6.17,0,0,1,1.16-.61,6.55,6.55,0,0,1,4.85-.22,10,10,0,0,1,5.37,5.12,12.87,12.87,0,0,1,1.17,4.44,6.84,6.84,0,0,1-.25,2.48,4.65,4.65,0,0,1-1.42,2.22l-.08-.42a5.72,5.72,0,0,1,2.19,9.45c-.11.12-.24.22-.35.32l-.07-.44a4.53,4.53,0,0,1,2.44,2.66,7.68,7.68,0,0,1,.42,3.47c-.27,2.3-1.29,4.25-1.94,6.16a13.17,13.17,0,0,0-.7,2.85c-.12,1-.16,1.89-.27,2.81a8.61,8.61,0,0,1-1.9,4.72,9.51,9.51,0,0,1-6.37,3.44,7.85,7.85,0,0,1-2-.08,2.64,2.64,0,0,1-.67-.17,11.17,11.17,0,0,0,2.65.05,9.37,9.37,0,0,0,6.1-3.47,8.38,8.38,0,0,0,1.77-4.54c.09-.9.12-1.84.24-2.81a13,13,0,0,1,.7-3c.65-1.95,1.65-3.9,1.89-6.06a7.28,7.28,0,0,0-.4-3.23,4,4,0,0,0-2.15-2.37l-.38-.15.31-.28c.09-.1.21-.19.31-.3a5.22,5.22,0,0,0-2-8.61L369,156l.33-.28a5.08,5.08,0,0,0,1.53-4.3,12.54,12.54,0,0,0-1.09-4.28,9.76,9.76,0,0,0-5.1-5,6.52,6.52,0,0,0-4.68.08,7.88,7.88,0,0,0-1.18.53A2,2,0,0,1,358.35,142.94Z" style="fill:#455a64"></path><path d="M360.48,141.44s.3.14.71.56a5.68,5.68,0,0,1,1.22,2.14,5.93,5.93,0,0,1-6.07,7.62l.21-.08a7.47,7.47,0,0,1-5.36,2.56,6.53,6.53,0,0,1-1.74-.17,1.84,1.84,0,0,1-.59-.22,16.93,16.93,0,0,0,2.31.07,7.44,7.44,0,0,0,5-2.57l.08-.09h.13a5.51,5.51,0,0,0,2.79-.58,5.61,5.61,0,0,0,2.77-3,5.72,5.72,0,0,0,.11-3.41A7.31,7.31,0,0,0,360.48,141.44Z" style="fill:#455a64"></path><path d="M366.2,142.51s.08.06.2.21a5.26,5.26,0,0,1,.48.71,7.68,7.68,0,0,1,.9,3,8.06,8.06,0,0,1-.95,4.55,7.82,7.82,0,0,1-4.42,3.54,8,8,0,0,1-4.85,0l.3-.12a5.76,5.76,0,0,1-3,2.62,5.49,5.49,0,0,1-3.1.24,5,5,0,0,1-1.87-.79,1.86,1.86,0,0,1-.55-.48,7.5,7.5,0,0,0,2.47,1,5.32,5.32,0,0,0,5.59-2.79l.1-.18.19.06a7.57,7.57,0,0,0,4.54-.05,7.35,7.35,0,0,0,4.16-3.28,7.83,7.83,0,0,0,1-4.28A9.44,9.44,0,0,0,366.2,142.51Z" style="fill:#455a64"></path><path d="M281.6,320.86s-36.88,7.16-45,9.4c-11.9,3.29-17.13,8.06-17.13,16.12s40,100.55,40,100.55l16.3-1.54-23.77-84.24,47.23-1.77Z" style="fill:#ba785d"></path><path d="M282.27,334.62S238,336,229.55,342.68s-5,14.78-2.35,24.18,39.52,86.8,39.52,86.8l15.57-3.33s-7.19-53.14-10.55-62.88-13.33-22.16-13.33-22.16,35.62,4.59,42.33,2.91S282.27,334.62,282.27,334.62Z" style="fill:#ba785d"></path><path d="M266,452.3a2,2,0,0,1-.2-.37l-.53-1.1-2-4.25-7.3-15.7L232,379c-2.36-5.14-4.66-10.15-6.87-15v0a46.16,46.16,0,0,1-1.49-6.63,47.11,47.11,0,0,1-.44-6.55,18.71,18.71,0,0,1,1-6.22,11.08,11.08,0,0,1,3.43-4.94,13,13,0,0,1,5.18-2.35,47.54,47.54,0,0,1,5.25-.84c3.38-.42,6.5-.89,9.34-1.3a134.48,134.48,0,0,1,13.43-1.41c1.58-.08,2.8-.09,3.62-.08l.94,0,.32,0-.32,0-.93,0c-.83,0-2.05.06-3.62.16-3.15.18-7.72.69-13.39,1.57-2.84.42-6,.92-9.34,1.36a47.33,47.33,0,0,0-5.2.86,12.56,12.56,0,0,0-5,2.29,10.56,10.56,0,0,0-3.27,4.75,17.92,17.92,0,0,0-1,6.06,46.12,46.12,0,0,0,.44,6.48,47.26,47.26,0,0,0,1.49,6.56v0l6.88,15c9.28,20.26,17.67,38.61,23.76,51.92l7.15,15.76,1.92,4.3c.21.47.37.84.49,1.12A2,2,0,0,1,266,452.3Z" style="fill:#915641"></path><path d="M247.92,355.4a7.72,7.72,0,0,1,1.84,1.12,39.76,39.76,0,0,1,7.58,7.08,7.38,7.38,0,0,1,1.24,1.76c-.12.1-2.21-2.43-5.16-5.17S247.83,355.53,247.92,355.4Z" style="fill:#915641"></path><path d="M259.1,445.79l.42,1.14S243,462,244.17,465.71l38.48-14.53-5.36-12.61A23.56,23.56,0,0,1,259.1,445.79Z" style="fill:#3399FF"></path><g style="opacity:0.6000000000000001"><path d="M274.94,444.14a1.67,1.67,0,0,1,1.76,1.38,1.61,1.61,0,0,1-1.35,1.76,1.77,1.77,0,0,1-1.86-1.47c0-.83.79-1.79,1.61-1.68" style="fill:#fff"></path></g><g style="opacity:0.6000000000000001"><path d="M282.65,451.18l-1.29-3-36.41,15s-1.43,1.4-.78,2.53Z" style="fill:#fff"></path></g><path d="M259.43,447.09c.08.19,1.05-.08,2.2.17s1.94.86,2.09.72-.55-1.12-2-1.4S259.32,446.93,259.43,447.09Z" style="fill:#263238"></path><path d="M256,450.28c0,.2,1,.22,1.9.77s1.44,1.32,1.63,1.24-.1-1.18-1.28-1.85S256,450.1,256,450.28Z" style="fill:#263238"></path><path d="M255.56,456c.18,0,.09-1.06-.78-1.91s-1.91-.92-1.93-.74.73.54,1.44,1.24S255.36,456,255.56,456Z" style="fill:#263238"></path><path d="M371.45,349.14c-.86,2.17,1.22-2.31,0,0Z" style="fill:#3399FF"></path><path d="M372.44,319.51s5.81-74,4.07-90.47c-1.2-11.42-15.19-20.33-15.19-20.33l-26.66,5.13s-18,25.2-21.68,37.68c-1,3.35-1.56,15-1.83,18.86-1,15.1-4.75,30-5.53,39.41a7.82,7.82,0,0,1-6.53,7l-21.54,3.53c-7.66-5.36-20.12.18-21.3,4.75s11.59,9.53,11.59,9.53,6.71,6.05,11.41,20.15,21.49,13.43,21.49,13.43h39.13a35.68,35.68,0,0,0,31.58-19.07C375.81,338.06,372.44,319.51,372.44,319.51Z" style="fill:#3399FF"></path><g style="opacity:0.30000000000000004"><path d="M370.16,298a3.11,3.11,0,0,0-3.39-1.79c-1.58.49-2,2.46-2.32,4.09-.7,4.14-1.88,8.32-4.43,11.66s-6.67,5.71-10.84,5.23c-1.79-.2-3.51-.91-5.31-1a10.78,10.78,0,0,0-6.7,2.18A31.83,31.83,0,0,0,332,323.3l.16.45c2.56.23,5.28-.93,7.84-.65a25.29,25.29,0,0,1,4.57,1.46,13.92,13.92,0,0,0,8.72-.32,22.75,22.75,0,0,0,7.49-4.67c4.49-4.07,7.46-7.6,9.11-13.44C370.46,304.05,371.17,299.91,370.16,298Z"></path></g><path d="M299.64,299.19a11.09,11.09,0,0,1-1.82-4.32c-.18-2,13.4-25.59,13.4-25.59s-2.24,26.49-1.38,27-3.25,3.61-3.25,3.61Z" style="fill:#3399FF"></path><path d="M311.55,264a1.69,1.69,0,0,1,.05.53c0,.41,0,.92,0,1.54,0,1.34-.06,3.27-.23,5.66a181.46,181.46,0,0,1-2.63,18.47c-.63,3.59-1.24,7-1.71,10.11s-.82,5.94-1,8.31c-.12,1.19-.17,2.26-.2,3.21s-.08,1.76-.07,2.42,0,1.13,0,1.54a2.1,2.1,0,0,1,0,.54,2,2,0,0,1-.06-.54c0-.41-.05-.91-.08-1.53s0-1.49,0-2.44,0-2,.12-3.22c.12-2.39.45-5.22.87-8.35s1.05-6.55,1.68-10.14c1.31-7.16,2.35-13.67,2.78-18.41.21-2.38.35-4.3.39-5.63l.08-1.54A2.46,2.46,0,0,1,311.55,264Z" style="fill:#263238"></path><path d="M336.62,299.9s3.34,16.29,7.52,18.59c0,0,2.27,4,8.95,1.4A28.63,28.63,0,0,0,363.68,313c6.39-6.49,4.29-16.19,4.29-16.19a4.74,4.74,0,0,0,2.49-3.62,9.78,9.78,0,0,0,0-4s3.55-2.89,3.34-6.44-.84-4.59-.84-4.59l3.55-28.41s-.42-15.46-4.8-22.77-9.61-7.31-13.79-6.68-14,8.35-14.83,43.86l-1.25,27.36,1,4S335.58,295.52,336.62,299.9Z" style="fill:#3399FF"></path><path d="M375.32,249.15s0,.25-.05.74l-.21,2.18c-.18,1.93-.45,4.72-.8,8.27s-.7,7.91-.93,12.91a56.22,56.22,0,0,0,.11,8,15,15,0,0,1-.16,4.37,6.14,6.14,0,0,1-2.47,3.87l.07-.29a5.93,5.93,0,0,1-2.82,7.88l.13-.28c1.56,5.63-.34,12.32-4.82,17a24.89,24.89,0,0,1-8.07,5.57,30,30,0,0,1-4.79,1.64,5.07,5.07,0,0,1-2.63.15,6.74,6.74,0,0,1-2.37-1.17c-.55-.39-1.05-.81-1.54-1.23l-.05,0,0-.06-7.24-17.33v-.06a6.35,6.35,0,0,1,.16-2.9,4.68,4.68,0,0,1,1.86-2.2,6.41,6.41,0,0,1,5.38-.85l-.2.44a6.88,6.88,0,0,1-2.69-5.45,51,51,0,0,1,.2-5.85c.28-3.79.64-7.4,1-10.8.72-6.79,1.45-12.76,2.12-17.7s1.31-8.83,1.8-11.49c.26-1.33.46-2.35.63-3l.18-.77a1.25,1.25,0,0,1,.08-.26,1.41,1.41,0,0,1,0,.27c0,.19-.08.45-.14.78-.15.69-.32,1.71-.55,3-.45,2.67-1,6.57-1.66,11.51s-1.33,10.91-2,17.71c-.33,3.39-.67,7-.93,10.78a50.46,50.46,0,0,0-.19,5.79,8.35,8.35,0,0,0,.66,2.83,5.06,5.06,0,0,0,1.82,2.24l1.4.91-1.6-.48a5.93,5.93,0,0,0-5,.8,4.29,4.29,0,0,0-1.67,2,6,6,0,0,0-.13,2.67l0-.07,7.25,17.32-.07-.1c.49.42,1,.84,1.5,1.21a6.4,6.4,0,0,0,2.19,1.08,4.6,4.6,0,0,0,2.38-.14,30.43,30.43,0,0,0,4.71-1.62,24.33,24.33,0,0,0,7.91-5.44c4.38-4.53,6.23-11.05,4.74-16.49l-.05-.2.18-.08a5.49,5.49,0,0,0,2.62-7.25l-.09-.17.17-.11a5.71,5.71,0,0,0,2.3-3.59,14.47,14.47,0,0,0,.16-4.25,58.05,58.05,0,0,1-.06-8c.26-5,.68-9.35,1-12.92s.69-6.36.92-8.26c.12-.94.21-1.66.27-2.17S375.32,249.15,375.32,249.15Z" style="fill:#263238"></path><path d="M375.32,229.63c-.05,0-.05-.52-.27-1.42a12,12,0,0,0-1.65-3.54,13.66,13.66,0,0,0-4-4.07,11.29,11.29,0,0,0-6.83-1.08,16.88,16.88,0,0,0-3.53,1,13.74,13.74,0,0,0-3,1.62,16.73,16.73,0,0,0-3.84,4.31c-.92,1.4-1.57,2.59-2,3.39a7.34,7.34,0,0,1-.78,1.24,8.6,8.6,0,0,1,.6-1.33c.42-.84,1-2.06,1.91-3.49a16.4,16.4,0,0,1,3.86-4.5,13.56,13.56,0,0,1,3.09-1.71,16.29,16.29,0,0,1,3.64-1,11.57,11.57,0,0,1,7.16,1.17,13.6,13.6,0,0,1,4.1,4.29,11.34,11.34,0,0,1,1.54,3.69,5.62,5.62,0,0,1,.1,1.09C375.35,229.5,375.34,229.63,375.32,229.63Z" style="fill:#263238"></path><g style="opacity:0.30000000000000004"><path d="M359.07,303.68c-1.14-3.36-3.27-4.72-5.84-5.84s-9.25-2.36-9.25-2.36,3.12,2.44,5.94,4.35c2.14,1.45,2.89,4,4.34,6.16.83,1.22,2.1,2.51,3.52,2.14a2.41,2.41,0,0,0,1.64-1.88A5,5,0,0,0,359.07,303.68Z"></path></g><path d="M353.81,305.09a27.56,27.56,0,0,0-10.05-9.53,6.06,6.06,0,0,1,1.93.79,19.38,19.38,0,0,1,7.22,6.86A6.47,6.47,0,0,1,353.81,305.09Z" style="fill:#263238"></path><path d="M357.93,301.58a8.46,8.46,0,0,0-1.53-1.81,15.36,15.36,0,0,0-5.25-2.34,57.88,57.88,0,0,0-5.68-1.41,14.13,14.13,0,0,1-2.38-.52,9.74,9.74,0,0,1,2.44.16,37.65,37.65,0,0,1,5.77,1.27,13.5,13.5,0,0,1,5.34,2.56A3.5,3.5,0,0,1,357.93,301.58Z" style="fill:#263238"></path><path d="M371,289.05a4.25,4.25,0,0,1-1.35.91,11.16,11.16,0,0,1-3.77,1.19,27.37,27.37,0,0,1-3.91.11,6.09,6.09,0,0,1-1.62-.09,4.51,4.51,0,0,1,1.61-.27c1-.09,2.38-.09,3.86-.27C368.78,290.26,370.91,288.87,371,289.05Z" style="fill:#263238"></path><path d="M333.76,326.75a3.44,3.44,0,0,1-.63.09l-1.83.17-6.74.57c-5.69.45-13.55,1.17-22.25,1.65s-16.62.44-22.33.25c-2.85-.1-5.16-.2-6.75-.3l-1.84-.13a2.52,2.52,0,0,1-.64-.08,4.72,4.72,0,0,1,.65,0l1.84,0,6.75.15c5.71.08,13.59.08,22.29-.41s16.55-1.14,22.25-1.5c2.85-.19,5.16-.32,6.75-.4l1.84-.07A2.84,2.84,0,0,1,333.76,326.75Z" style="fill:#263238"></path><path d="M300.72,296.5c-.28.46-11.29,29.06-11.29,29.06l6.4,2.59s9.69-6.84,9.83-11.09,1.26-22.55,1.26-22.55S303.62,291.79,300.72,296.5Z" style="fill:#ba785d"></path><path d="M336.9,301.17l-39.6,19.77s-1-1.2-6.44-1.92c-6-.78-15.33,10.09-15.33,10.09s31.71.91,44-1.63,24.57-9,24.57-9Z" style="fill:#ba785d"></path><path d="M336.81,301.58a3.16,3.16,0,0,1-.59.38c-.4.24-1,.56-1.77,1-1.55.81-3.8,1.95-6.6,3.33-5.6,2.76-13.37,6.5-22,10.54l-6.3,2.93-1.53.69a2.62,2.62,0,0,1-1.73.15,20.54,20.54,0,0,1-3.09-.84,7.91,7.91,0,0,0-2.88-.47,10.63,10.63,0,0,0-2.73.49,17.12,17.12,0,0,0-4.44,2.35,39.79,39.79,0,0,0-5.49,4.88c-.6.63-1.05,1.14-1.35,1.48a4.34,4.34,0,0,1-.48.51,2.76,2.76,0,0,1,.4-.57c.28-.37.7-.9,1.28-1.56a36.46,36.46,0,0,1,5.43-5,17.17,17.17,0,0,1,4.52-2.46,10.83,10.83,0,0,1,2.84-.54,8.37,8.37,0,0,1,3,.47,21.38,21.38,0,0,0,3,.81,2.22,2.22,0,0,0,1.46-.12l1.51-.69,6.3-2.94Z" style="fill:#915641"></path><path d="M265,452.37l.4,1.11s-16,14.51-14.83,18.14l37.18-14-5.18-12.18A22.73,22.73,0,0,1,265,452.37Z" style="fill:#3399FF"></path><g style="opacity:0.6000000000000001"><path d="M280.27,450.78a1.62,1.62,0,0,1,1.71,1.33,1.57,1.57,0,0,1-1.31,1.7,1.7,1.7,0,0,1-1.8-1.42c0-.8.77-1.72,1.56-1.62" style="fill:#fff"></path></g><g style="opacity:0.6000000000000001"><path d="M287.72,457.58l-1.24-2.93-35.19,14.53s-1.38,1.35-.75,2.44Z" style="fill:#fff"></path></g><path d="M265.28,453.63c.08.18,1-.08,2.13.17s1.88.83,2,.69-.53-1.08-1.88-1.36S265.18,453.48,265.28,453.63Z" style="fill:#263238"></path><path d="M262,456.72c0,.19.93.2,1.84.74s1.39,1.28,1.57,1.2-.1-1.15-1.24-1.79S261.93,456.54,262,456.72Z" style="fill:#263238"></path><path d="M261.54,462.22c.18,0,.09-1-.75-1.84s-1.84-.9-1.86-.72.7.52,1.38,1.2S261.35,462.27,261.54,462.22Z" style="fill:#263238"></path><path d="M278.28,332.26h0c.24,11.23,4.14,13.3,8.67,13.3H302.9a8.72,8.72,0,0,0,8.72-8.72v-4.58Z" style="fill:#ebebeb"></path><path d="M279.8,332.26s-1.06,11.42,6.2,11.42c8.64,0,7.86-11.42,7.86-11.42Z" style="fill:#e0e0e0"></path><path d="M292.22,345.07c0,.49,4.36,13.42,4.36,13.42h5.89l-4-12.93Z" style="fill:#ebebeb"></path><path d="M324.54,396.93a.48.48,0,0,1-.45-.28l-20.93-44.37H290.38a.5.5,0,0,1,0-1h13.1a.49.49,0,0,1,.45.29L325,396.22a.5.5,0,0,1-.24.67A.52.52,0,0,1,324.54,396.93Z" style="fill:#e0e0e0"></path><path d="M304.12,345.67c0,.06-4.26.1-9.51.1s-9.52,0-9.52-.1,4.26-.11,9.52-.11S304.12,345.61,304.12,345.67Z" style="fill:#263238"></path><path d="M293.81,332.58a1.09,1.09,0,0,1,0,.31c0,.26,0,.54,0,.87a20.55,20.55,0,0,1-.2,3.19,9.28,9.28,0,0,1-1.82,4.37,6.84,6.84,0,0,1-5.16,2.46,5.9,5.9,0,0,1-3-.7,6.59,6.59,0,0,1-2.13-1.84,9.33,9.33,0,0,1-1.78-4.39,21.31,21.31,0,0,1-.23-3.19v-.87a1.92,1.92,0,0,1,0-.31,1.09,1.09,0,0,1,0,.31c0,.26,0,.54,0,.87a26.22,26.22,0,0,0,.29,3.17,9.43,9.43,0,0,0,1.79,4.29,6.56,6.56,0,0,0,2.08,1.78,5.7,5.7,0,0,0,2.84.67,6.71,6.71,0,0,0,5-2.37,9.14,9.14,0,0,0,1.82-4.27,23.64,23.64,0,0,0,.27-3.18c0-.32,0-.61,0-.86A1.92,1.92,0,0,1,293.81,332.58Z" style="fill:#263238"></path></g><g id="freepik--character-1--inject-35"><path d="M183.08,447.18l-1.49,24.71,4.46,19.88a2.53,2.53,0,0,1-2.09,3.06h0a2.48,2.48,0,0,1-2.2-.74c-3.64-3.76-16.73-17.54-16.68-19.08.07-2-.24-26.55-.24-26.55Z" style="fill:#3399FF"></path><path d="M184,494.83l-18.88-22.66L165,474c0,1-.06,1.55.51,2.26a210.88,210.88,0,0,0,15.93,18.21,2.82,2.82,0,0,0,2.49.35Z" style="fill:#263238"></path><path d="M170.44,465.17a1.54,1.54,0,0,1,.35,2,1.48,1.48,0,0,1-2,.36,1.61,1.61,0,0,1-.35-2.14,1.53,1.53,0,0,1,2.12-.14" style="fill:#fff"></path><path d="M178.71,483.81c.14.08.75-1.2,2.24-1.84a7.64,7.64,0,0,1,2.87-.44c0-.06-.28-.26-.86-.37a4,4,0,0,0-2.23.31,3.94,3.94,0,0,0-1.72,1.46C178.7,483.43,178.65,483.79,178.71,483.81Z" style="fill:#263238"></path><path d="M180.35,487.19a20.78,20.78,0,0,1,2.23-1A19.36,19.36,0,0,1,185,486a2.78,2.78,0,0,0-2.56-.31C181,486.05,180.22,487.12,180.35,487.19Z" style="fill:#263238"></path><path d="M175.59,479.45a24.38,24.38,0,0,1,3.34-1.75,23.77,23.77,0,0,1,3.7-.72,5.65,5.65,0,0,0-3.88.2A5.57,5.57,0,0,0,175.59,479.45Z" style="fill:#263238"></path><path d="M175.41,471.9c.06.15,1.45-.37,3.23-.37s3.18.48,3.23.33a4.87,4.87,0,0,0-3.23-.87A4.92,4.92,0,0,0,175.41,471.9Z" style="fill:#263238"></path><path d="M175.67,464.63a12.84,12.84,0,0,1,3.35-.47,12.22,12.22,0,0,1,3.25.95c0-.05-.22-.37-.78-.73a5.36,5.36,0,0,0-2.44-.76,5.43,5.43,0,0,0-2.52.41C175.93,464.3,175.63,464.58,175.67,464.63Z" style="fill:#263238"></path><path d="M179,462.78a2.2,2.2,0,0,0,.07-.94,6.44,6.44,0,0,0-.65-2.48,2.92,2.92,0,0,0-1.19-1.42,1,1,0,0,0-1.15.19,1.64,1.64,0,0,0-.43,1.1,3.57,3.57,0,0,0,3,3.43,4.15,4.15,0,0,0,4.16-2,1.46,1.46,0,0,0,.12-1.2,1,1,0,0,0-1-.57,3.58,3.58,0,0,0-1.66.79,7.12,7.12,0,0,0-1.76,1.86,2.16,2.16,0,0,0-.41.84,11.6,11.6,0,0,1,2.39-2.39,3.36,3.36,0,0,1,1.47-.65.56.56,0,0,1,.56.31,1,1,0,0,1-.12.78,3.7,3.7,0,0,1-3.63,1.71,3.1,3.1,0,0,1-2.6-2.87,1.13,1.13,0,0,1,.27-.78.53.53,0,0,1,.63-.12,2.66,2.66,0,0,1,1,1.19A9.65,9.65,0,0,1,179,462.78Z" style="fill:#263238"></path><path d="M142.82,448.53l.85,20.44s-20.5,7.73-20.71,11.52l39.7-.22V448.36Z" style="fill:#3399FF"></path><path d="M155.93,467.18a1.62,1.62,0,0,1,1.13,1.85,1.54,1.54,0,0,1-1.81,1.13,1.7,1.7,0,0,1-1.19-2,1.62,1.62,0,0,1,2-1" style="fill:#fff"></path><path d="M162.66,480.27v-2.9l-38.27,1.1s-1.35.92-1.43,2Z" style="fill:#263238"></path><path d="M143,468.77c0,.2,1,.28,1.94.9s1.47,1.43,1.64,1.35-.11-1.2-1.28-1.92S143,468.6,143,468.77Z" style="fill:#263238"></path><path d="M138.87,470.52c-.05.19.8.51,1.46,1.33s.86,1.68,1,1.67.31-1.11-.53-2.11S138.87,470.33,138.87,470.52Z" style="fill:#263238"></path><path d="M136.53,475.51c.18.05.44-.92-.06-2s-1.41-1.48-1.5-1.32.49.73.89,1.6S136.34,475.5,136.53,475.51Z" style="fill:#263238"></path><path d="M143.35,464.09c.08.18,1-.09,2.06,0s2,.41,2.05.25-.72-.86-2-.92S143.25,463.94,143.35,464.09Z" style="fill:#263238"></path><path d="M128.16,353.09s10.27,93.3,13.7,108.19h40.85S194.5,379.52,196.41,357Z" style="fill:#263238"></path><path d="M164,364.77c.14,0,.26,21.61.26,48.25s-.12,48.26-.26,48.26-.26-21.6-.26-48.26S163.82,364.77,164,364.77Z" style="fill:#455a64"></path><path d="M144.08,111.07q-4.43,13.29-8.83,26.6c-1.9,5.7-3.82,11.46-6.92,16.61-1.4,2.32-3.05,4.57-3.6,7.21s0,5.39-.75,7.93-2.93,4.54-4.4,6.83-2.19,5.59-.28,7.53c0,0,19.53,3.45,20,3.79S144.08,111.07,144.08,111.07Z" style="fill:#263238"></path><path d="M154.08,153.69l-8.64,10-20.07,7.16s-8.16,81.73-10,92.13-8.54,93-8.54,93,58.71,11.93,83.45,8,25.21-13.3,25.21-13.3l-1.87-100.82-1.28-26.61s1-3.49,1.51-15.86,1-30.79-3-33.59-23.63-8.42-23.63-8.42l-8.17-8.17Z" style="fill:#fff"></path><path d="M154.08,153.69l1.61.2,4.79.65,18.58,2.55h0l0,0,8.19,8.15-.06,0c4.49,1.3,9.38,2.78,14.62,4.57a68,68,0,0,1,8,3.21c.34.17.65.38,1,.57a4.14,4.14,0,0,1,.46.37l.38.45a7.91,7.91,0,0,1,1,2.09,26.74,26.74,0,0,1,1,4.59,140.16,140.16,0,0,1,.55,20.08c-.1,3.52-.21,7.13-.42,10.83-.11,1.84-.25,3.71-.44,5.59a45.63,45.63,0,0,1-.85,5.7v-.07q.45,9,.91,18.51c.13,3.18.35,6.41.42,9.69s.13,6.6.19,10c.26,13.47.52,27.64.8,42.39s.57,30.07.86,45.84a6.14,6.14,0,0,1-.06,1.53,6.07,6.07,0,0,1-.56,1.43A11.07,11.07,0,0,1,213.3,355a19.65,19.65,0,0,1-4.84,3.61,46.15,46.15,0,0,1-11.35,4.18c-1,.22-2,.5-3,.68l-3,.55c-1,.22-2,.27-3,.41s-2,.24-3.06.32c-2.05.07-4.11.21-6.17.22s-4.13,0-6.2-.08c-11.49-.45-22.77-1.73-33.77-3.25s-21.73-3.38-32.13-5.43l-.22,0,0-.23c1.65-20.27,3.3-39.69,4.94-58,.83-9.14,1.65-18,2.57-26.54.22-2.14.48-4.25.75-6.35s.66-4.14.91-6.19c.55-4.09,1-8.12,1.47-12.05,3.55-31.51,6.16-57.55,8.06-76v-.08l.07,0,20.09-7.11,0,0c3-3.42,5.14-5.92,6.57-7.58l1.59-1.82c.35-.4.53-.59.53-.59l-.51.62L152,156.17l-6.49,7.61h0l-20,7.2.08-.1c-1.85,18.45-4.4,44.5-7.91,76-.45,3.94-.9,8-1.45,12.07-.25,2-.61,4.12-.9,6.19s-.52,4.2-.74,6.33c-.91,8.54-1.72,17.4-2.54,26.55-1.63,18.28-3.26,37.7-4.91,58l-.2-.27c10.38,2,21.11,3.84,32.1,5.41s22.25,2.79,33.72,3.24c2.06.07,4.12,0,6.18.08s4.1-.15,6.14-.22c1-.08,2-.21,3-.32s2-.18,3-.4l3-.55c1-.18,2-.45,2.95-.67a46.34,46.34,0,0,0,11.23-4.13,18.79,18.79,0,0,0,4.71-3.51,10.76,10.76,0,0,0,1.7-2.34,5.91,5.91,0,0,0,.51-1.32,6,6,0,0,0,.05-1.42c-.29-15.77-.57-31.09-.84-45.83s-.52-28.91-.77-42.38q-.09-5.06-.18-10c-.06-3.28-.28-6.5-.41-9.69q-.45-9.54-.88-18.5v-.07a44.31,44.31,0,0,0,.85-5.62c.19-1.87.33-3.73.44-5.58.22-3.68.33-7.29.44-10.81a138,138,0,0,0-.51-20,24.61,24.61,0,0,0-1-4.53,7.29,7.29,0,0,0-1-2,4.53,4.53,0,0,0-1.71-1.3,68,68,0,0,0-7.94-3.2c-5.22-1.81-10.11-3.31-14.59-4.62h0l0,0L179,157.27l.06,0-18.52-2.65-4.8-.7C154.63,153.79,154.08,153.69,154.08,153.69Z" style="fill:#263238"></path><path d="M128.87,186.37l.24,23.33L126.48,234l20.83,2.35-1.45,27.63s-26.8-.3-39.64-5.43-9.78-14.27-8.85-23.6,14.94-55.55,19.14-58.81,10.74-5.21,10.74-5.21Z" style="fill:#fff"></path><path d="M216.39,185.43c-2.8-13.77-8.17-12.37-8.17-12.37l3.61,58.57-12.28,2.58-1.36,11.06c-.24,12,11.79,16,11.79,16s17.61-11.71,18.78-19.18S219.19,199.2,216.39,185.43Z" style="fill:#fff"></path><path d="M156,153.69a10,10,0,0,0-2.34,7.7c.47,4.91,4.44,13.07,6.54,15.87S174.62,205,174.62,205l6.53-34.14.41-11.18-2.51-2.52Z" style="fill:#3399FF"></path><path d="M171.53,204.39A2.65,2.65,0,0,1,171,204l-1.57-1.13-5.71-4.26-8.42-6.37-5-3.78a4.46,4.46,0,0,1-1.94-2.8,7.54,7.54,0,0,1,.67-3.43,42.57,42.57,0,0,1,3.43-6.43l.31.37-8.9,3.95-.36.16,0-.38c.55-4.8,1-8.82,1.35-11.7.17-1.36.31-2.45.41-3.27a7,7,0,0,1,.2-1.15,8.51,8.51,0,0,1-.06,1.17c-.07.81-.17,1.91-.29,3.28-.29,2.89-.69,6.91-1.17,11.71l-.31-.22,8.9-4,.74-.34-.43.71a43.94,43.94,0,0,0-3.37,6.35,7.16,7.16,0,0,0-.65,3.17,4,4,0,0,0,1.75,2.47l4.94,3.8,8.36,6.45,5.61,4.39,1.51,1.22A3.43,3.43,0,0,1,171.53,204.39Z" style="fill:#263238"></path><path d="M174.62,205a2.22,2.22,0,0,1,.32-.53l1-1.46,3.72-5.34c1.57-2.25,3.44-4.94,5.47-7.95,1-1.51,2.08-3.09,3.13-4.76.53-.83,1.05-1.69,1.55-2.57a5.71,5.71,0,0,0,1-2.74,4.82,4.82,0,0,0-1.91-3.29,14.4,14.4,0,0,0-3.24-2.11l-1.24-.61,1.36.13,9.66.9-.18.35-5.91-7-1.61-2a4.52,4.52,0,0,1-.53-.72,6.65,6.65,0,0,1,.63.64l1.69,1.88,6.05,6.9.34.39-.52,0-9.66-.82.12-.48a14.43,14.43,0,0,1,3.38,2.18,7.88,7.88,0,0,1,1.4,1.58,3.89,3.89,0,0,1,.69,2.09,2.41,2.41,0,0,1-.09.84l-.1.4-.17.37a12.28,12.28,0,0,1-.72,1.4c-.51.89-1,1.75-1.57,2.58-1.06,1.68-2.14,3.26-3.16,4.76-2.06,3-4,5.67-5.57,7.9s-2.93,4-3.86,5.24L175,204.57A2.63,2.63,0,0,1,174.62,205Z" style="fill:#263238"></path><path d="M175.72,364.82c-.14,0-.68-35.9-1.19-80.18s-.81-80.18-.67-80.19.68,35.89,1.19,80.19S175.86,364.82,175.72,364.82Z" style="fill:#263238"></path><path d="M211.54,231.71a5,5,0,0,1,1.71-1.46,10,10,0,0,1,10.44-.07,5.11,5.11,0,0,1,1.73,1.44c-.06.07-.7-.5-1.91-1.12a10.67,10.67,0,0,0-10.08.07C212.24,231.2,211.6,231.78,211.54,231.71Z" style="fill:#263238"></path><path d="M225.92,237.92c-.08.05-.53-.79-1.52-1.93a13.54,13.54,0,0,0-4.69-3.43,13.33,13.33,0,0,0-5.72-1c-1.51.06-2.42.31-2.45.22a6.35,6.35,0,0,1,2.43-.59,12.08,12.08,0,0,1,10.71,4.6A6.19,6.19,0,0,1,225.92,237.92Z" style="fill:#263238"></path><path d="M103.66,236.56s.23-.25.72-.63a15.41,15.41,0,0,1,2.17-1.42,21.68,21.68,0,0,1,3.53-1.55,24.24,24.24,0,0,1,4.61-1,23.42,23.42,0,0,1,4.72-.05,21.4,21.4,0,0,1,3.79.71,15.2,15.2,0,0,1,2.44.88,3.26,3.26,0,0,1,.84.45c0,.09-1.27-.47-3.37-1a24.4,24.4,0,0,0-3.74-.58,25.78,25.78,0,0,0-4.62.08,27.21,27.21,0,0,0-4.52,1,25.38,25.38,0,0,0-3.51,1.43C104.79,235.81,103.72,236.64,103.66,236.56Z" style="fill:#263238"></path><path d="M111.09,225.75a2.18,2.18,0,0,1,.72-.13,10.66,10.66,0,0,1,2-.05,15.91,15.91,0,0,1,11.3,5.86,11.28,11.28,0,0,1,1.11,1.64c.22.41.32.64.29.66s-.6-.84-1.68-2.06a17.33,17.33,0,0,0-11-5.73C112.13,225.76,111.1,225.85,111.09,225.75Z" style="fill:#263238"></path><path d="M144.46,236.09a8.78,8.78,0,0,1-1.37-.07l-3.76-.37-12.88-1.44-.24,0,0-.25c.17-1.85.35-3.82.59-5.84.75-6.58,1.62-12.51,2.29-16.79.33-2.15.62-3.88.84-5.07.1-.55.19-1,.26-1.38a2.14,2.14,0,0,1,.12-.47,1.66,1.66,0,0,1,0,.49c0,.38-.1.84-.16,1.39l-.68,5.09c-.57,4.3-1.38,10.23-2.13,16.8-.24,2-.43,4-.6,5.82l-.23-.27,12.86,1.62,3.75.52A8.65,8.65,0,0,1,144.46,236.09Z" style="fill:#263238"></path><path d="M124.2,172.06l-.41.14-1.21.36a14,14,0,0,0-4.33,2.06c-1.7,1.25-3.09,3.49-4.28,6.22s-2.18,6-3.34,9.59c-2.3,7.18-4.92,15.77-7.73,25.34-2.54,9.59-6.84,20-6,31.6,0,.33,0,.67,0,1v-.05a14.2,14.2,0,0,0,3.51,6.79,18.72,18.72,0,0,0,6.49,3.76,48.22,48.22,0,0,0,7.12,1.87c2.37.48,4.71.89,7,1.2s4.55.52,6.76.64l6.43.42,11.66.76-.2.17c.63-8.39,1.15-15.2,1.51-19.94.19-2.33.33-4.15.43-5.42.06-.6.1-1.07.13-1.41s.06-.48.06-.48,0,.16,0,.48,0,.81-.07,1.42c-.08,1.26-.2,3.09-.34,5.43-.32,4.74-.77,11.55-1.34,19.95v.19h-.19l-11.66-.7-6.44-.4c-2.21-.11-4.49-.3-6.79-.62s-4.66-.71-7-1.19a49.31,49.31,0,0,1-7.2-1.88,19.21,19.21,0,0,1-6.68-3.88,14.68,14.68,0,0,1-3.65-7v0c0-.32,0-.66,0-1-.09-5.74.15-11.48,1.79-16.7,1.42-5.24,2.89-10.27,4.3-15.05,2.84-9.56,5.5-18.14,7.84-25.31,1.19-3.58,2.24-6.83,3.43-9.6s2.65-5,4.41-6.26a13.52,13.52,0,0,1,4.43-2c.53-.16,1-.25,1.23-.32Z" style="fill:#263238"></path><path d="M141.07,238.34c.31-.3,6.24-4.42,6.24-4.42s.34-2.84,1.87-3.35c0,0,1.11-2.54,4.77-2.54h8.84l7.62,8.53a2.18,2.18,0,0,1-2.34,1.93l2.09,3.93s-2.39,1.76-4.43.34-4.87-3.86-4.87-3.86l4.06,6.4s-.34,1.42-2.61.41a15.44,15.44,0,0,1-4.5-3.86l-6.8-.72,5.79,1.93,4.46,4.07s-.4,1.42-2.43.91a16.55,16.55,0,0,1-4.37-2.13l-3.05.2a4.6,4.6,0,0,1-2.54,3.35,11.28,11.28,0,0,1-5.18,1L137,252.81C136.91,248.9,139,242.94,141.07,238.34Z" style="fill:#ffbe9d"></path><path d="M168.07,238.49a15.38,15.38,0,0,1-1.57-1.83,22.75,22.75,0,0,0-1.78-1.89,6.24,6.24,0,0,0-2.63-1.6,25.47,25.47,0,0,0-5.65-1.14,18.72,18.72,0,0,1-2.4-.28,8.43,8.43,0,0,1,2.43-.09,20.83,20.83,0,0,1,5.79,1,6.81,6.81,0,0,1,1.57.73,9.68,9.68,0,0,1,1.22,1,16.76,16.76,0,0,1,1.73,2A8.69,8.69,0,0,1,168.07,238.49Z" style="fill:#eb996e"></path><path d="M160.86,238.9c-.07,0-.4-.31-1-.78a7,7,0,0,0-2.69-1.22,16.78,16.78,0,0,0-3-.32,3.38,3.38,0,0,1-1.28-.15,3.3,3.3,0,0,1,1.27-.22,11,11,0,0,1,3.13.18,5.86,5.86,0,0,1,2.81,1.45C160.68,238.41,160.9,238.87,160.86,238.9Z" style="fill:#eb996e"></path><path d="M145.85,240.59s-.32-.15-.56-.62a2.86,2.86,0,0,1,1-3.64c.45-.27.78-.3.8-.24s-1.11.65-1.49,2A4.89,4.89,0,0,0,145.85,240.59Z" style="fill:#eb996e"></path><path d="M140.46,249c.09-.11.79.31,1.71.66s1.73.49,1.72.63-.89.24-1.9-.15S140.36,249.11,140.46,249Z" style="fill:#eb996e"></path><path d="M144.35,236.14c0,.05-.47.15-1.19.63a7.25,7.25,0,0,0-2.36,2.71,38.06,38.06,0,0,0-2,5.08,26.6,26.6,0,0,0-1.47,6.49,14.6,14.6,0,0,0,.55,5.47,10,10,0,0,0,2.36,4.06,8.75,8.75,0,0,0,3,2.05,7.78,7.78,0,0,0,2.22.54l.31,0-.29.1a3.13,3.13,0,0,1-.73.23s.2-.14.68-.36l0,.14a7,7,0,0,1-2.32-.41,8.73,8.73,0,0,1-3.2-2,10.14,10.14,0,0,1-2.54-4.2,14.59,14.59,0,0,1-.6-5.66,26.48,26.48,0,0,1,1.53-6.61,34.91,34.91,0,0,1,2.16-5.1,7,7,0,0,1,2.57-2.71,4,4,0,0,1,.95-.39A1,1,0,0,1,144.35,236.14Z" style="fill:#263238"></path><path d="M127.8,191.41a32.25,32.25,0,0,1,2.79,7.7,16.42,16.42,0,0,1-1.64-3.76A16.67,16.67,0,0,1,127.8,191.41Z" style="fill:#263238"></path><path d="M203.41,233.18A2.32,2.32,0,0,1,204,233l1.64-.35,6.08-1.2-.15.2c-.34-5.29-.82-12.47-1.34-20.4s-.88-15.12-1.19-20.41c-.13-2.56-.23-4.66-.3-6.19q0-1-.06-1.68a2.65,2.65,0,0,1,0-.59,2.3,2.3,0,0,1,.09.58l.15,1.68c.12,1.53.27,3.62.47,6.18.34,5.28.82,12.46,1.34,20.4s.88,15.12,1.19,20.4v.17l-.16,0-6.11,1-1.67.26A2.31,2.31,0,0,1,203.41,233.18Z" style="fill:#263238"></path><path d="M211.54,174.25s.08.07.21.24l.58.76a32.93,32.93,0,0,1,1.7,3.23c1.35,2.87,3.05,7.13,5,12.45s4.08,11.71,6.35,18.83q.84,2.69,1.72,5.49a35.82,35.82,0,0,1,1.33,5.87,106.44,106.44,0,0,1,.94,12.59c0,2.16.05,4.3-.09,6.41a14.27,14.27,0,0,1-.16,1.59,7.8,7.8,0,0,1-.44,1.54,16.94,16.94,0,0,1-1.38,2.8,25.36,25.36,0,0,1-3.84,4.66c-1.39,1.39-2.81,2.68-4.22,3.92s-2.82,2.4-4.22,3.49c-.7.55-1.41,1.07-2.12,1.56a10.57,10.57,0,0,1-1.13.68c-.37.15-.7.39-1.1.59a2.06,2.06,0,0,1-1.33.18,6.23,6.23,0,0,1-1.2-.37,16.48,16.48,0,0,1-2.16-1,17.62,17.62,0,0,1-3.61-2.65,17.43,17.43,0,0,1-2.61-3.12,13.34,13.34,0,0,1-.93-1.63,10.54,10.54,0,0,1-.54-1.68,17.87,17.87,0,0,1-.23-5.78c.15-1.58.37-2.79.52-3.61.08-.38.14-.69.19-.93a1.87,1.87,0,0,1,.08-.31,1.29,1.29,0,0,1,0,.32c0,.24-.08.55-.13.94-.12.82-.31,2-.43,3.61a18.45,18.45,0,0,0,.31,5.69,9.12,9.12,0,0,0,1.47,3.2,17.16,17.16,0,0,0,2.58,3,17.46,17.46,0,0,0,3.55,2.57,16.39,16.39,0,0,0,2.12,1,2.59,2.59,0,0,0,2.19.19c.34-.16.7-.43,1.11-.61a8.54,8.54,0,0,0,1.06-.64c.7-.48,1.4-1,2.09-1.55,1.39-1.09,2.78-2.26,4.18-3.49s2.81-2.53,4.18-3.91a24.81,24.81,0,0,0,3.76-4.57c2.45-3.39,2-7.8,2-12.07a107.42,107.42,0,0,0-.93-12.53,35.41,35.41,0,0,0-1.3-5.8c-.58-1.87-1.14-3.7-1.7-5.48-2.24-7.13-4.37-13.52-6.24-18.86s-3.52-9.6-4.81-12.49c-.63-1.45-1.22-2.52-1.61-3.25l-.53-.78A3,3,0,0,1,211.54,174.25Z" style="fill:#263238"></path><path d="M193.86,236.67l4.67-6.1s4.49-1.74,6.21,1.14c0,0,4.42.26,3.82,4.68a5.35,5.35,0,0,1,1.57,4.86l.13,12L205.6,251a4.56,4.56,0,0,1-4.09-.91c-1.36-1.15-1.65-3.81-1.65-3.81s-2.33,1.74-3.36.41c-1.36-1.75,1.51-3.93,1.51-3.93s-2.77,1.22-3.67-.06a2,2,0,0,1-.08-2.37l1.12-1.57S192.9,239.07,193.86,236.67Z" style="fill:#ffbe9d"></path><path d="M201.11,233.73a14.7,14.7,0,0,1-2.76,2.78,15.12,15.12,0,0,1-3.11,2.39,14.7,14.7,0,0,1,2.76-2.78A15.12,15.12,0,0,1,201.11,233.73Z" style="fill:#eb996e"></path><path d="M204.57,236.66a23.52,23.52,0,0,1-3.48,3.56,24.71,24.71,0,0,1-3.83,3.17,24.13,24.13,0,0,1,3.48-3.56A24.71,24.71,0,0,1,204.57,236.66Z" style="fill:#eb996e"></path><path d="M207.79,240.89c.06.16-2,.88-4.19,2.4s-3.59,3.19-3.72,3.08a10.55,10.55,0,0,1,3.42-3.51A10.44,10.44,0,0,1,207.79,240.89Z" style="fill:#eb996e"></path><path d="M209.69,248.7c.05,0-.22.49-.87,1a6.17,6.17,0,0,1-3,1.34,6,6,0,0,1-3.27-.21c-.78-.38-1.11-.79-1.07-.83s.47.23,1.21.48a6.87,6.87,0,0,0,3,0A10,10,0,0,0,209.69,248.7Z" style="fill:#eb996e"></path><path d="M208.53,244.78s-.05.22-.31.5a4.68,4.68,0,0,1-1.33.88,4.37,4.37,0,0,0-1.76,1.25,5.35,5.35,0,0,0-.45,1.23,1.81,1.81,0,0,1-1.29,1,2,2,0,0,1-1.6-.35,2.32,2.32,0,0,1-.81-1.26,2.43,2.43,0,0,1,0-1.34,6.54,6.54,0,0,1,.42-1c.61-1.21,1.33-1.74,1.38-1.65a9.75,9.75,0,0,0-1,1.81,3,3,0,0,0-.33,2.07,1.6,1.6,0,0,0,1.84,1.23,1.3,1.3,0,0,0,.93-.71,5.32,5.32,0,0,1,.53-1.3,4.32,4.32,0,0,1,2-1.31A6.08,6.08,0,0,0,208.53,244.78Z" style="fill:#eb996e"></path><path d="M210.26,241.13a16.65,16.65,0,0,1,.2,2.89c.06,1.79.17,4.26.21,7a58.45,58.45,0,0,1-.28,7,12.33,12.33,0,0,1-.5,2.86A21.07,21.07,0,0,1,210,258c.1-1.78.15-4.24.12-7s-.09-5.19-.06-7A14.37,14.37,0,0,1,210.26,241.13Z" style="fill:#263238"></path><path d="M201.09,212.15a2,2,0,0,1-.24.49l-.77,1.32c-.67,1.15-1.7,2.78-3,4.78a185.92,185.92,0,0,1-11,15c-4.58,5.65-9.06,10.48-12.42,13.85-1.68,1.69-3.07,3-4.05,3.93l-1.13,1c-.27.23-.41.35-.42.33s.1-.15.34-.41l1.07-1.1c.94-.94,2.28-2.32,3.93-4,3.29-3.44,7.71-8.3,12.28-13.93s8.39-11,11.07-14.91c1.34-2,2.4-3.56,3.13-4.68.34-.51.63-.93.85-1.27A2.93,2.93,0,0,1,201.09,212.15Z" style="fill:#263238"></path><path d="M182.46,94.34c2.3.46,4.72.12,7,.75,3.26.92,5.68,3.8,6.93,7s1.49,6.59,1.73,10c.21,3,.43,6.06.64,9.09a27.57,27.57,0,0,0,.81,5.79c.59,2.09,2.22,7.66,2.33,10.38.35,8.86-.25,26.9-4.2,31.38-2.09,2.36-14.4-3.53-17.49-2.9-1.36-1.19-4.77-6.07-6.14-7.27-.23-.2,9.9-7.95,9.78-8.23a2.16,2.16,0,0,1,.14-1.47,72.43,72.43,0,0,0-3.06-53.95" style="fill:#263238"></path><path d="M181.36,169.11c.17-11.82.43-14.16.43-14.09s10.16-1.71,12.23-15c1-6.6.68-17.41.1-26.24-.51-8-5.81-17.7-13.73-16.84l-24.73,6.3A4.67,4.67,0,0,0,151.5,108h0v61s6.91,6.26,16.37,5.06S181.36,169.11,181.36,169.11Z" style="fill:#ffbe9d"></path><path d="M191.08,123.68a1.7,1.7,0,0,1-1.64,1.72,1.62,1.62,0,0,1-1.75-1.53,1.69,1.69,0,0,1,1.63-1.72A1.63,1.63,0,0,1,191.08,123.68Z" style="fill:#263238"></path><path d="M191,119.44c-.21.22-1.5-.73-3.33-.72s-3.17.92-3.37.7.12-.5.7-.93a4.68,4.68,0,0,1,2.7-.83,4.43,4.43,0,0,1,2.65.85C190.94,118.94,191.14,119.34,191,119.44Z" style="fill:#263238"></path><path d="M173.62,124.38A1.7,1.7,0,0,1,172,126.1a1.62,1.62,0,0,1-1.75-1.53,1.7,1.7,0,0,1,1.63-1.72A1.64,1.64,0,0,1,173.62,124.38Z" style="fill:#263238"></path><path d="M173.05,120.73c-.21.22-1.5-.73-3.33-.72s-3.17.93-3.37.7.12-.5.7-.92a4.68,4.68,0,0,1,2.7-.84,4.43,4.43,0,0,1,2.65.85C173,120.23,173.15,120.63,173.05,120.73Z" style="fill:#263238"></path><path d="M179.72,133.37a12.47,12.47,0,0,1,3-.54c.47-.05.91-.15,1-.46a2.38,2.38,0,0,0-.32-1.39c-.44-1.13-.9-2.31-1.39-3.55-1.93-5.06-3.33-9.22-3.12-9.3s1.93,4,3.86,9c.47,1.25.91,2.44,1.33,3.58a2.67,2.67,0,0,1,.25,1.83,1.17,1.17,0,0,1-.77.69,3,3,0,0,1-.79.11A12.36,12.36,0,0,1,179.72,133.37Z" style="fill:#263238"></path><path d="M181.79,155a35.77,35.77,0,0,1-18.52-4.7s5.07,9.33,18.34,8.06Z" style="fill:#eb996e"></path><path d="M179,137.78a3.29,3.29,0,0,0-2.95-1.22,3,3,0,0,0-2.08,1.12,1.91,1.91,0,0,0-.14,2.18,2.21,2.21,0,0,0,2.4.61,7.14,7.14,0,0,0,2.34-1.41,2.06,2.06,0,0,0,.52-.54.6.6,0,0,0,0-.68" style="fill:#3399FF"></path><path d="M174.34,134.65c.3,0,.3,2,2,3.37s3.81,1.18,3.83,1.46-.47.39-1.37.41a4.88,4.88,0,0,1-3.19-1.1,4.32,4.32,0,0,1-1.56-2.83C174,135.13,174.2,134.64,174.34,134.65Z" style="fill:#263238"></path><path d="M173.87,115.38c-.18.5-2,.27-4.15.53s-3.88.86-4.17.41c-.12-.21.18-.68.87-1.16a6.83,6.83,0,0,1,3.09-1.09,7,7,0,0,1,3.25.37C173.55,114.76,174,115.15,173.87,115.38Z" style="fill:#263238"></path><path d="M190.35,116.1c-.32.42-1.58,0-3.1,0s-2.8.29-3.1-.15c-.12-.21.08-.62.64-1a4.5,4.5,0,0,1,5,.15C190.31,115.47,190.49,115.9,190.35,116.1Z" style="fill:#263238"></path><path d="M173.08,135.54s-.09-.16-.07-.45a1.93,1.93,0,0,1,.44-1,1.84,1.84,0,0,1,1-.59c.28-.06.46,0,.46,0s-.17.06-.42.16a2.09,2.09,0,0,0-.81.58,2.26,2.26,0,0,0-.46.9C173.11,135.37,173.12,135.54,173.08,135.54Z" style="fill:#eb996e"></path><path d="M170.84,136.42a1.35,1.35,0,0,1-.18-.71,2.88,2.88,0,0,1,.43-1.73,2.91,2.91,0,0,1,1.38-1.14,1.44,1.44,0,0,1,.73-.13s-.27.09-.66.28a3.1,3.1,0,0,0-1.25,1.11,3,3,0,0,0-.47,1.6C170.81,136.14,170.88,136.41,170.84,136.42Z" style="fill:#eb996e"></path><path d="M180.18,92.61s-29.28-8-36.12,15.48c-3.46,11.91-22.41,73.14-22.41,73.14S129,192.85,139,193.69s18-16.9,18-16.9l4.4-59.28s5.11-3.78,11.71-8.23l12-12.64Z" style="fill:#263238"></path><path d="M123.25,182.34a2.88,2.88,0,0,1-.14-.77,16.88,16.88,0,0,1-.13-2.24,24.78,24.78,0,0,1,1.5-8.11,38.54,38.54,0,0,1,6-10.64,96.08,96.08,0,0,1,10.37-10.79,120.34,120.34,0,0,0,10.46-10.56,42,42,0,0,0,6.42-10.2,27.5,27.5,0,0,0,2.09-7.84c.19-1.92.11-3,.19-3a2.59,2.59,0,0,1,.09.77,16.17,16.17,0,0,1,0,2.25,25.79,25.79,0,0,1-1.89,8,40.92,40.92,0,0,1-6.37,10.44,112.43,112.43,0,0,1-10.49,10.66A102.22,102.22,0,0,0,131.05,161a39.57,39.57,0,0,0-6.07,10.4,26.37,26.37,0,0,0-1.71,7.93C123.19,181.27,123.33,182.34,123.25,182.34Z" style="fill:#ebebeb"></path><path d="M128.49,186.7a3.36,3.36,0,0,1-.5-.65,11.39,11.39,0,0,1-1.1-2.1,16.4,16.4,0,0,1-.91-8.61,23.79,23.79,0,0,1,5.39-11.65c3-3.83,7.19-7.25,11.52-10.74s8.35-7,11.15-10.87a34.46,34.46,0,0,0,5.44-11.41,36.22,36.22,0,0,0,1.24-8.49c0-2-.06-3.16,0-3.17a3.21,3.21,0,0,1,.13.82,22.26,22.26,0,0,1,.15,2.35,33.11,33.11,0,0,1-1,8.62,34.21,34.21,0,0,1-5.39,11.69c-2.83,4-6.91,7.55-11.24,11s-8.45,6.86-11.46,10.59a23.57,23.57,0,0,0-5.4,11.29,16.9,16.9,0,0,0,.65,8.43C127.87,185.74,128.56,186.66,128.49,186.7Z" style="fill:#455a64"></path><path d="M142.34,118.62s0-.17,0-.5a6.15,6.15,0,0,1,.35-1.41,11.1,11.1,0,0,1,3-4.4,17.72,17.72,0,0,1,6.88-3.86,88.76,88.76,0,0,1,9.38-2.11,66.33,66.33,0,0,0,16.28-5.74,10.21,10.21,0,0,0,4-3.16,8.8,8.8,0,0,0,.79-1.72,1.42,1.42,0,0,1,0,.51,4.62,4.62,0,0,1-.52,1.37,10,10,0,0,1-4,3.48,60.24,60.24,0,0,1-16.37,6c-3.35.69-6.54,1.16-9.32,2a17.76,17.76,0,0,0-6.74,3.58,11.57,11.57,0,0,0-3.07,4.12C142.52,118,142.41,118.64,142.34,118.62Z" style="fill:#ebebeb"></path></g></svg>