<?xml version="1.0" encoding="utf-8"?>
<!-- Generator: Adobe Illustrator 22.1.0, SVG Export Plug-In . SVG Version: 6.00 Build 0)  -->
<svg version="1.1" id="Layer_1" xmlns="http://www.w3.org/2000/svg" xmlns:xlink="http://www.w3.org/1999/xlink" x="0px" y="0px"
	 viewBox="0 0 1191.5 232.3" style="enable-background:new 0 0 1191.5 232.3;" xml:space="preserve">
<style type="text/css">
	.st0{fill:#3399FF;}
</style>
<g>
	<g>
		<g>
			<path class="st0" d="M265.9,101.2h-13.2c6.8-24.6,3.8-48.1-8.9-67.3c-14-20.9-38.2-34-63.1-34c-21.2,0-40,9.6-52.6,26.2
				C115.4,9.6,96.7,0,75.5,0c-24.9,0-49,13-63,33.9C-2.5,56.5-4.1,85.2,8.2,114.6l2.4,5.9h87.1l6.7-14.6l31.2,62.6l23.8-48.1h64.1
				c-17,29.5-49.7,60-95.6,89.1c-31.5-20-56.6-40.4-74.7-60.9H28.1l6.2,7.4c20.7,24.8,50.5,49.3,88.7,73l5.1,3.1l5.1-3.1
				c57-35.3,94.8-71.8,112.3-108.7h0.2l0,0h20.3c5.3,0,9.6-4.3,9.6-9.6C275.5,105.5,271.2,101.2,265.9,101.2z M147.5,101.2l-11.8,24
				l-31.8-63.7l-18.4,39.7H23.7c-7.2-21.1-5.6-41,4.8-56.6C39,29,56.9,19.3,75.5,19.3c19.4,0,35.3,10.9,43.7,29.8l8.8,19.8l8.8-19.8
				c8.4-19,24.5-29.8,43.9-29.8c18.6,0,36.7,9.7,47.1,25.4c10.4,15.6,12,35.5,4.8,56.6h-73l0,0L147.5,101.2L147.5,101.2L147.5,101.2
				z"/>
		</g>
	</g>
	<g>
		<path class="st0" d="M412.4,128.8v37.3h-19.7V60h34.6c7.1,0,13.2,0.8,18.4,2.5c5.2,1.7,9.5,4,12.8,7c3.4,3,5.9,6.6,7.5,10.7
			c1.6,4.2,2.4,8.7,2.4,13.6c0,5.1-0.9,9.8-2.6,14.1c-1.7,4.3-4.3,8-7.7,11c-3.4,3.1-7.7,5.5-12.8,7.2c-5.1,1.7-11.2,2.6-18,2.6
			H412.4z M412.4,113.4h14.8c3.6,0,6.8-0.5,9.5-1.4c2.7-0.9,4.9-2.2,6.7-3.9c1.8-1.7,3.1-3.7,4-6.2c0.9-2.4,1.3-5.1,1.3-8.1
			c0-2.8-0.4-5.4-1.3-7.7c-0.9-2.3-2.2-4.3-4-5.9c-1.8-1.6-4-2.8-6.7-3.7c-2.7-0.9-5.8-1.3-9.5-1.3h-14.8V113.4z"/>
		<path class="st0" d="M482.7,166.1V90.8h10.6c1.9,0,3.2,0.3,3.9,1c0.7,0.7,1.2,1.9,1.5,3.5l1.1,9.1c2.7-4.6,5.8-8.3,9.5-11
			c3.6-2.7,7.7-4,12.2-4c3.7,0,6.8,0.9,9.2,2.6l-2.3,13.6c-0.1,0.9-0.5,1.5-1,1.9c-0.5,0.4-1.1,0.5-2,0.5c-0.7,0-1.7-0.2-3-0.5
			c-1.3-0.3-3-0.5-5.1-0.5c-3.8,0-7,1-9.7,3.1c-2.7,2.1-5,5.1-6.8,9.1v46.9H482.7z"/>
		<path class="st0" d="M573.7,89.7c4.7,0,9.1,0.8,13.1,2.3c4,1.5,7.4,3.7,10.3,6.6c2.9,2.9,5.1,6.5,6.8,10.7
			c1.6,4.2,2.4,9.1,2.4,14.5c0,1.4-0.1,2.5-0.2,3.4c-0.1,0.9-0.3,1.6-0.7,2.1c-0.3,0.5-0.7,0.9-1.3,1.1c-0.5,0.2-1.2,0.3-2.1,0.3
			h-46.5c0.5,7.7,2.6,13.4,6.2,17c3.6,3.6,8.4,5.4,14.4,5.4c2.9,0,5.5-0.3,7.6-1c2.1-0.7,4-1.4,5.6-2.3c1.6-0.8,3-1.6,4.2-2.3
			c1.2-0.7,2.4-1,3.5-1c0.7,0,1.4,0.1,1.9,0.4c0.5,0.3,1,0.7,1.4,1.2l5.3,6.6c-2,2.3-4.3,4.3-6.8,5.9c-2.5,1.6-5.1,2.9-7.8,3.8
			c-2.7,1-5.5,1.6-8.3,2c-2.8,0.4-5.5,0.6-8.2,0.6c-5.2,0-10.1-0.9-14.6-2.6c-4.5-1.7-8.4-4.3-11.7-7.7c-3.3-3.4-5.9-7.6-7.9-12.6
			c-1.9-5-2.9-10.8-2.9-17.4c0-5.1,0.8-10,2.5-14.5c1.7-4.5,4-8.5,7.2-11.8c3.1-3.3,6.9-6,11.4-8C563,90.6,568.1,89.7,573.7,89.7z
			 M574.1,102.7c-5.3,0-9.4,1.5-12.4,4.5c-3,3-4.9,7.2-5.7,12.7h34c0-2.3-0.3-4.6-1-6.6c-0.6-2.1-1.6-3.9-2.9-5.5
			c-1.3-1.6-3-2.8-5-3.7C579.1,103.1,576.8,102.7,574.1,102.7z"/>
		<path class="st0" d="M665.7,105.5c-0.5,0.8-1,1.3-1.5,1.7c-0.5,0.3-1.2,0.5-2.1,0.5c-0.9,0-1.8-0.2-2.8-0.7c-1-0.5-2.2-1-3.5-1.7
			c-1.3-0.6-2.8-1.2-4.5-1.7c-1.7-0.5-3.7-0.7-6-0.7c-3.6,0-6.4,0.8-8.4,2.3c-2.1,1.5-3.1,3.5-3.1,5.9c0,1.6,0.5,3,1.6,4.1
			c1.1,1.1,2.4,2.1,4.2,2.9c1.7,0.8,3.7,1.6,5.9,2.2c2.2,0.7,4.5,1.4,6.7,2.2c2.3,0.8,4.5,1.7,6.8,2.7c2.2,1,4.2,2.3,5.9,3.8
			c1.7,1.5,3.1,3.4,4.2,5.5c1.1,2.2,1.6,4.7,1.6,7.8c0,3.6-0.7,7-2,10c-1.3,3.1-3.3,5.7-5.8,7.9c-2.5,2.2-5.7,4-9.4,5.2
			c-3.7,1.2-8,1.9-12.9,1.9c-2.6,0-5.1-0.2-7.6-0.7c-2.5-0.5-4.8-1.1-7.1-1.9c-2.3-0.8-4.4-1.8-6.3-2.9c-1.9-1.1-3.6-2.3-5.1-3.7
			l4.2-6.9c0.5-0.8,1.2-1.5,1.9-1.9c0.7-0.4,1.7-0.7,2.8-0.7c1.1,0,2.2,0.3,3.2,1c1,0.6,2.2,1.3,3.5,2.1c1.3,0.7,2.9,1.4,4.7,2.1
			c1.8,0.6,4,1,6.8,1c2.2,0,4-0.3,5.5-0.8c1.5-0.5,2.8-1.2,3.8-2c1-0.8,1.7-1.8,2.2-2.9c0.5-1.1,0.7-2.2,0.7-3.4
			c0-1.8-0.5-3.2-1.6-4.3c-1.1-1.1-2.4-2.1-4.2-2.9c-1.7-0.8-3.7-1.6-5.9-2.2c-2.2-0.7-4.5-1.4-6.8-2.2c-2.3-0.8-4.6-1.7-6.8-2.8
			c-2.2-1.1-4.2-2.4-5.9-4c-1.7-1.6-3.1-3.6-4.2-5.9c-1.1-2.3-1.6-5.2-1.6-8.5c0-3.1,0.6-6,1.8-8.8c1.2-2.8,3-5.2,5.4-7.3
			c2.4-2.1,5.3-3.7,8.9-5c3.5-1.2,7.6-1.9,12.3-1.9c5.2,0,9.9,0.9,14.2,2.6c4.3,1.7,7.8,4,10.6,6.8L665.7,105.5z"/>
		<path class="st0" d="M738,106.8c-0.5,0.7-1.1,1.2-1.6,1.6c-0.5,0.4-1.3,0.6-2.2,0.6c-0.9,0-1.8-0.3-2.7-0.8
			c-0.9-0.6-1.9-1.2-3.2-1.9c-1.2-0.7-2.7-1.3-4.4-1.9c-1.7-0.6-3.8-0.8-6.3-0.8c-3.2,0-6,0.6-8.4,1.7c-2.4,1.1-4.4,2.8-6,5
			c-1.6,2.2-2.8,4.8-3.6,7.8c-0.8,3.1-1.2,6.5-1.2,10.4c0,4,0.4,7.6,1.3,10.7c0.9,3.1,2.1,5.8,3.7,7.9c1.6,2.1,3.6,3.7,5.9,4.8
			c2.3,1.1,4.9,1.7,7.8,1.7c2.9,0,5.2-0.4,7-1.1c1.8-0.7,3.3-1.5,4.5-2.3c1.2-0.9,2.3-1.6,3.2-2.3c0.9-0.7,1.9-1.1,3-1.1
			c1.5,0,2.6,0.6,3.3,1.7l5.2,6.6c-2,2.3-4.2,4.3-6.5,5.9c-2.3,1.6-4.8,2.9-7.3,3.8c-2.5,1-5.1,1.6-7.8,2c-2.7,0.4-5.4,0.6-8,0.6
			c-4.6,0-9-0.9-13.1-2.6c-4.1-1.7-7.7-4.3-10.7-7.6c-3.1-3.3-5.5-7.4-7.3-12.2c-1.8-4.8-2.7-10.3-2.7-16.5c0-5.5,0.8-10.6,2.4-15.4
			c1.6-4.7,3.9-8.8,7-12.3s6.9-6.2,11.4-8.1c4.5-2,9.8-2.9,15.7-2.9c5.6,0,10.6,0.9,14.8,2.7c4.2,1.8,8,4.4,11.4,7.8L738,106.8z"/>
		<path class="st0" d="M755.1,166.1V90.8h10.6c1.9,0,3.2,0.3,3.9,1c0.7,0.7,1.2,1.9,1.5,3.5l1.1,9.1c2.7-4.6,5.8-8.3,9.5-11
			c3.6-2.7,7.7-4,12.2-4c3.7,0,6.8,0.9,9.2,2.6l-2.3,13.6c-0.1,0.9-0.5,1.5-1,1.9c-0.5,0.4-1.1,0.5-2,0.5c-0.7,0-1.7-0.2-3-0.5
			c-1.3-0.3-3-0.5-5.1-0.5c-3.8,0-7,1-9.7,3.1c-2.7,2.1-5,5.1-6.8,9.1v46.9H755.1z"/>
		<path class="st0" d="M837.1,68.9c0,1.6-0.3,3-1,4.4c-0.6,1.4-1.5,2.6-2.5,3.6c-1.1,1-2.3,1.8-3.7,2.5c-1.4,0.6-2.9,0.9-4.5,0.9
			c-1.6,0-3-0.3-4.4-0.9c-1.4-0.6-2.6-1.4-3.6-2.5c-1-1-1.8-2.2-2.5-3.6c-0.6-1.4-0.9-2.8-0.9-4.4c0-1.6,0.3-3.1,0.9-4.5
			c0.6-1.4,1.4-2.6,2.5-3.7c1-1,2.2-1.8,3.6-2.5c1.4-0.6,2.9-0.9,4.4-0.9c1.6,0,3.1,0.3,4.5,0.9c1.4,0.6,2.7,1.4,3.7,2.5
			c1.1,1,1.9,2.3,2.5,3.7C836.8,65.8,837.1,67.3,837.1,68.9z M834.4,90.8v75.3h-18.1V90.8H834.4z"/>
		<path class="st0" d="M854.8,190.7V90.8h11.1c1.2,0,2.2,0.3,3,0.8c0.8,0.5,1.4,1.4,1.6,2.5l1.5,7c3-3.5,6.5-6.3,10.5-8.4
			c3.9-2.2,8.5-3.2,13.8-3.2c4.1,0,7.9,0.9,11.3,2.6c3.4,1.7,6.3,4.2,8.8,7.4c2.5,3.3,4.4,7.3,5.7,12c1.3,4.8,2,10.2,2,16.4
			c0,5.6-0.8,10.8-2.3,15.6c-1.5,4.8-3.7,9-6.5,12.5c-2.8,3.5-6.2,6.3-10.2,8.3c-4,2-8.4,3-13.4,3c-4.3,0-7.9-0.6-10.8-1.9
			c-3-1.3-5.6-3.1-8-5.4v30.8H854.8z M890.1,103.8c-3.8,0-7,0.8-9.6,2.4c-2.7,1.6-5.1,3.8-7.4,6.7v33.7c2.1,2.5,4.3,4.3,6.7,5.3
			c2.4,1,5,1.5,7.8,1.5c2.7,0,5.2-0.5,7.4-1.5c2.2-1,4.1-2.6,5.6-4.7c1.5-2.1,2.7-4.8,3.6-8c0.8-3.2,1.2-7,1.2-11.3
			c0-4.4-0.4-8.1-1.1-11.2c-0.7-3.1-1.7-5.5-3-7.4c-1.3-1.9-2.9-3.3-4.8-4.2C894.6,104.2,892.5,103.8,890.1,103.8z"/>
		<path class="st0" d="M962.5,167.3c-6.5,0-11.5-1.8-15-5.5c-3.5-3.7-5.3-8.8-5.3-15.3v-42h-7.6c-1,0-1.8-0.3-2.5-1
			c-0.7-0.6-1.1-1.6-1.1-2.9v-7.2l12.1-2l3.8-20.5c0.2-1,0.6-1.7,1.4-2.3c0.7-0.5,1.6-0.8,2.7-0.8h9.4v23.7h19.8v12.9h-19.8v40.8
			c0,2.3,0.6,4.2,1.8,5.5s2.7,2,4.7,2c1.1,0,2.1-0.1,2.8-0.4c0.8-0.3,1.4-0.6,2-0.8c0.6-0.3,1.1-0.6,1.5-0.8
			c0.4-0.3,0.9-0.4,1.3-0.4c0.5,0,1,0.1,1.3,0.4c0.3,0.3,0.7,0.7,1.1,1.2l5.4,8.8c-2.6,2.2-5.7,3.9-9.1,5
			C969.8,166.7,966.2,167.3,962.5,167.3z"/>
		<path class="st0" d="M1016.6,68.9c0,1.6-0.3,3-1,4.4c-0.6,1.4-1.5,2.6-2.5,3.6c-1.1,1-2.3,1.8-3.7,2.5c-1.4,0.6-2.9,0.9-4.5,0.9
			c-1.6,0-3-0.3-4.4-0.9c-1.4-0.6-2.6-1.4-3.6-2.5c-1-1-1.8-2.2-2.5-3.6c-0.6-1.4-0.9-2.8-0.9-4.4c0-1.6,0.3-3.1,0.9-4.5
			c0.6-1.4,1.4-2.6,2.5-3.7c1-1,2.2-1.8,3.6-2.5c1.4-0.6,2.9-0.9,4.4-0.9c1.6,0,3.1,0.3,4.5,0.9c1.4,0.6,2.7,1.4,3.7,2.5
			c1.1,1,1.9,2.3,2.5,3.7C1016.3,65.8,1016.6,67.3,1016.6,68.9z M1013.9,90.8v75.3h-18.1V90.8H1013.9z"/>
		<path class="st0" d="M1066.5,89.7c5.6,0,10.7,0.9,15.3,2.7c4.6,1.8,8.5,4.4,11.7,7.7c3.2,3.3,5.7,7.4,7.5,12.2
			c1.8,4.8,2.6,10.1,2.6,16.1c0,6-0.9,11.3-2.6,16.1c-1.8,4.8-4.3,8.9-7.5,12.3s-7.1,6-11.7,7.8c-4.6,1.8-9.7,2.7-15.3,2.7
			c-5.6,0-10.7-0.9-15.3-2.7c-4.6-1.8-8.5-4.4-11.8-7.8c-3.3-3.4-5.8-7.5-7.6-12.3c-1.8-4.8-2.7-10.2-2.7-16.1
			c0-5.9,0.9-11.3,2.7-16.1c1.8-4.8,4.3-8.9,7.6-12.2c3.3-3.3,7.2-5.9,11.8-7.7C1055.8,90.6,1060.9,89.7,1066.5,89.7z M1066.5,153.3
			c6.3,0,10.9-2.1,13.9-6.3c3-4.2,4.5-10.4,4.5-18.5c0-8.1-1.5-14.3-4.5-18.6c-3-4.3-7.6-6.4-13.9-6.4c-6.4,0-11.1,2.1-14.1,6.4
			c-3,4.3-4.5,10.5-4.5,18.5s1.5,14.2,4.5,18.5C1055.5,151.2,1060.2,153.3,1066.5,153.3z"/>
		<path class="st0" d="M1117.8,166.1V90.8h11.1c2.3,0,3.9,1.1,4.6,3.3l1.2,5.9c1.5-1.6,3.1-3,4.8-4.3c1.7-1.3,3.5-2.4,5.4-3.3
			c1.9-0.9,3.9-1.6,6.1-2.1c2.2-0.5,4.5-0.7,7-0.7c4.1,0,7.8,0.7,10.9,2.1c3.2,1.4,5.8,3.4,8,5.9c2.1,2.5,3.7,5.5,4.8,9
			c1.1,3.5,1.7,7.3,1.7,11.6v47.9h-18.1v-47.9c0-4.6-1.1-8.2-3.2-10.7c-2.1-2.5-5.3-3.8-9.6-3.8c-3.1,0-6.1,0.7-8.8,2.1
			c-2.7,1.4-5.3,3.4-7.8,5.8v54.4H1117.8z"/>
	</g>
	<rect x="326.5" y="54.7" class="st0" width="9" height="124"/>
</g>
</svg>
