<svg xmlns="http://www.w3.org/2000/svg" viewBox="0 0 750 500"><g id="freepik--background-simple--inject-69"><path d="M668.33,105.38l-2.55-4.2C644.27,65.74,605.39,44.38,564.4,47a108,108,0,0,0-15.69,2.15c-37.27,8-69.7,36.17-83.14,72.26-7.91,21.23-10.12,45.67-25.12,62.52-19.52,21.93-52.67,22.62-81.81,21.71s-62.31-.13-81.74,21.88c-12.17,13.79-16,33.4-15.06,51.86,2.6,48.89,36.67,92.6,80,114.33s94.33,23.68,141.74,14.12C550,394.41,613.16,357.64,651.13,300.85S698.7,166.68,668.33,105.38Z" style="fill:#ebebeb"></path><circle cx="127.62" cy="128.06" r="55.15" transform="translate(-36.65 203.56) rotate(-69.78)" style="fill:#ebebeb"></circle></g><g id="freepik--Table--inject-69"><path d="M675.9,469.92c0,.14-140.25.26-313.21.26s-313.24-.12-313.24-.26,140.22-.26,313.24-.26S675.9,469.77,675.9,469.92Z" style="fill:#263238"></path></g><g id="freepik--Characters--inject-69"><path d="M242,307.16l21.42,55.14,64.41-13.51,3.41,27.28s-90.6,33.73-97.09,27.82S211.18,315,211.18,315Z" style="fill:#ffbe9d"></path><path d="M307,350.83l18.12-3.09,15.6-12.58L360.68,322l21.8-4.22s.93,4.92-4.93,7.27S366.07,330,366.07,330l16.46-3.75s1.46,3.52,0,5.39-9.9,5.63-9.9,5.63l-8,5.15L375,338.56s2.34,1.29,2.11,2.93-6.1,6.79-6.1,6.79L365.37,352l-5.86,9.85s-11.81,10.88-14.15,10.64L316,383.86Z" style="fill:#455a64"></path><path d="M400.73,268.61a113.8,113.8,0,0,0-18.85,30.74c-7.26,18-42.61,86.77-42.61,86.77s-37.6,51.82-39.71,83.8l40.13-.28s35.32-57,43.4-69,29.2-48.55,29.2-48.55l6.2-45.43Z" style="fill:#ffbe9d"></path><polygon points="581.55 262.95 658.97 375.64 610.48 400.45 577.15 355.15 581.55 262.95" style="fill:#ffbe9d"></polygon><path d="M416.53,257.24s-5.85-4,36.94-10.2l7.2-3.26L524.29,232l4.25,6.38,56,21.25L573.45,434.23l9.73,35.41H412.88l2.73-59.28-3.22-58.13Z" style="fill:#3399FF"></path><path d="M585.48,377.22l55.63-44.53s-51-73.5-58.43-73.75l-5,2.36-8.27,97.42Z" style="fill:#3399FF"></path><path d="M532.19,239.48a.78.78,0,0,1-.06.24l-.23.67c-.24.59-.49,1.49-1,2.57a39.61,39.61,0,0,1-5.25,8.68,44.73,44.73,0,0,1-4.78,5.14c-.91.89-2,1.68-3,2.55s-2.18,1.64-3.4,2.38a45.58,45.58,0,0,1-17.15,6.63,36.09,36.09,0,0,1-18.27-1.47A26,26,0,0,1,467,258a22.08,22.08,0,0,1-4.12-9.24,15.2,15.2,0,0,1-.29-3.71,1.08,1.08,0,0,1,0,.25c0,.19,0,.42.06.71a9.79,9.79,0,0,0,.12,1.15,13.87,13.87,0,0,0,.27,1.56,22.45,22.45,0,0,0,4.21,9.06,25.94,25.94,0,0,0,11.88,8.66,35.94,35.94,0,0,0,18,1.41,45.36,45.36,0,0,0,17-6.53c1.21-.72,2.29-1.56,3.38-2.34s2.07-1.62,3-2.49a48.16,48.16,0,0,0,4.79-5.05,42.1,42.1,0,0,0,5.34-8.54c.56-1.06.85-1.95,1.11-2.52.11-.27.21-.48.28-.66S532.19,239.48,532.19,239.48Z" style="fill:#263238"></path><path d="M580.35,287.26a1.42,1.42,0,0,1,0,.38q0,.41.06,1.11c0,1,.09,2.43.13,4.29.07,3.73.08,9.12,0,15.79-.21,13.33-.88,31.73-1.91,52s-2.2,38.69-3.16,52c-.48,6.65-.92,12-1.27,15.73-.17,1.86-.32,3.3-.45,4.27-.06.49-.12.86-.17,1.1a1.43,1.43,0,0,1-.08.28s-.06.06-.06,0,0,0,0,0,0,.07,0,0a1.19,1.19,0,0,0,0-.27l.12-1.11c.09-1,.21-2.44.36-4.28.29-3.71.67-9.09,1.1-15.74.87-13.29,2-31.67,3-52s1.76-38.7,2.06-52c.16-6.66.2-12.05.19-15.78,0-1.83,0-3.27,0-4.29v-1.11A2.21,2.21,0,0,1,580.35,287.26Z" style="fill:#263238"></path><path d="M636,325.43c.09.11-12.43,10.32-28,22.8s-28.21,22.51-28.3,22.39,12.43-10.31,28-22.8S635.93,325.32,636,325.43Z" style="fill:#263238"></path><path d="M540.2,375.56a1.29,1.29,0,0,1-.17.2l-.52.52-2,2c-.88.87-2,1.92-3.29,3.1s-2.77,2.57-4.46,4-3.5,3.06-5.53,4.71-4.19,3.41-6.5,5.23c-4.65,3.58-9.87,7.39-15.51,11.16s-11.18,7.09-16.28,10c-2.57,1.43-5,2.8-7.33,4s-4.48,2.3-6.48,3.28-3.82,1.82-5.41,2.57-3,1.36-4.14,1.84l-2.63,1.12-.69.27-.24.08.22-.13.67-.32,2.59-1.21c1.13-.51,2.51-1.14,4.09-1.92s3.41-1.61,5.38-2.63,4.15-2.09,6.44-3.34,4.73-2.58,7.29-4c5.08-2.93,10.59-6.29,16.23-10s10.85-7.55,15.51-11.1c2.31-1.81,4.52-3.51,6.52-5.18s3.88-3.21,5.56-4.66,3.18-2.78,4.5-3.94,2.45-2.19,3.36-3l2.11-1.93.56-.49A1,1,0,0,1,540.2,375.56Z" style="fill:#263238"></path><g style="opacity:0.30000000000000004"><path d="M468.08,437.57l56.46-35a49.15,49.15,0,0,1-57.15,34.69"></path></g><path d="M424.39,254.9s-8.23-9.89-12.2,3.15c0,0-5.91-1.78-6.76,6.71,0,0-7.56,3.35-8.17,8.07,0,0,3.5-4.6,5.07-.45,1.48,3.88,11.18,82.11,11.18,82.11l15.31-44.76,2.73-49.5Z" style="fill:#3399FF"></path><path d="M407.09,268.23a4.6,4.6,0,0,1,.19.77c.11.55.26,1.28.45,2.2.38,1.91.88,4.69,1.45,8.14,1.14,6.89,2.45,16.45,3.36,27.07s1.23,20.28,1.28,27.26c0,3.49,0,6.32-.05,8.27,0,.94,0,1.68-.07,2.25a4,4,0,0,1-.06.78,4.37,4.37,0,0,1,0-.79c0-.56,0-1.31,0-2.24,0-1.95-.05-4.78-.12-8.26-.14-7-.53-16.61-1.43-27.22s-2.16-20.17-3.21-27.06c-.52-3.45-1-6.24-1.28-8.17-.15-.92-.26-1.66-.35-2.22A3.69,3.69,0,0,1,407.09,268.23Z" style="fill:#263238"></path><path d="M418.18,311.19a1.84,1.84,0,0,1,0-.53c0-.41.05-.9.08-1.51.1-1.31.21-3.2.33-5.53a141.84,141.84,0,0,0-.25-18.26,118.38,118.38,0,0,0-3-18c-.56-2.27-1.05-4.1-1.42-5.36l-.4-1.45a2,2,0,0,1-.1-.52,3.1,3.1,0,0,1,.2.49c.13.38.3.85.49,1.42.43,1.24,1,3.06,1.59,5.33a106.07,106.07,0,0,1,3.12,18.05,123.63,123.63,0,0,1,.09,18.33c-.16,2.34-.33,4.23-.48,5.53-.08.6-.14,1.1-.19,1.5A2.08,2.08,0,0,1,418.18,311.19Z" style="fill:#263238"></path><path d="M420.43,326a5,5,0,0,1,.1-.69l.39-1.94c.36-1.69.83-4.13,1.37-7.16a214.12,214.12,0,0,0,3.11-47.87c-.15-3.08-.3-5.56-.44-7.28,0-.82-.1-1.47-.13-2a2.79,2.79,0,0,1,0-.69,2.86,2.86,0,0,1,.11.68c.06.51.14,1.16.23,2,.2,1.71.41,4.2.6,7.28a192.18,192.18,0,0,1-3.11,48c-.58,3-1.11,5.46-1.53,7.13l-.48,1.93A3.21,3.21,0,0,1,420.43,326Z" style="fill:#263238"></path><g style="opacity:0.30000000000000004"><path d="M418.2,309.43c-1.38,13.63-1.7,24.15-3.08,37.77,2.44-13.73,4.89-27.5,5.88-41.42s.51-28-2.85-41.59a7.12,7.12,0,0,0-1.45-3.25,2.55,2.55,0,0,0-3.24-.54s.91,2.77,1.36,4.23c4.44,14.44,4.42,29.74,3.38,44.8"></path></g><path d="M525.21,401.21a4.27,4.27,0,0,1-.54.45L523,402.87c-1.41,1.05-3.48,2.52-6.07,4.3-5.18,3.57-12.47,8.28-20.66,13.28s-15.68,9.38-21.09,12.58l-6.42,3.76-1.75,1a4.51,4.51,0,0,1-.63.32,3,3,0,0,1,.58-.41l1.7-1.09,6.33-3.91L496,420c8.18-5,15.5-9.65,20.72-13.14,2.61-1.74,4.72-3.16,6.17-4.16l1.68-1.13A3,3,0,0,1,525.21,401.21Z" style="fill:#263238"></path><g style="opacity:0.30000000000000004"><path d="M526.55,250a26.79,26.79,0,0,1-7.91,11.22,51.44,51.44,0,0,1-11.72,7.37c-4.51,2.16-9.32,4-14.32,4.06-7.61.09-14.68-3.89-20.73-8.52-3.14-2.4-6.33-5.34-7-9.24,0,0,3.63,6,7.88,8.45a36.27,36.27,0,0,0,29,3.78C516.33,263.06,526.55,250,526.55,250Z"></path></g><path d="M568.21,270.11s-10.41,2.32-10,13.66,2.08,14.34,2.08,14.34H537.2s-8.33,1.39-7.87,6.48,1.62,4.86,1.62,4.86-5.35-.17-5.73,5.86c-.22,3.47,3.42,6.41,3.42,6.41s-2.08,5.78-1.39,7.17,5.78,4.4,5.78,4.4-1.62,3.7.47,5.78,13.88,6.48,13.88,6.48,13.87,5.45,19.42,6.14S579,353.28,579,353.28l12.59-29.22s-7.9-11.37-9.06-15.07-9-14.12-9-14.12-4.39-7.4-4.86-12.72S569.57,269.68,568.21,270.11Z" style="fill:#ffbe9d"></path><path d="M661.56,378.56c-6.37-9-73.48-59.78-73.48-59.78l-12.4,32.87s30.4,43.71,38.79,53.66,35.37,32.31,52.49,16.34S667.21,386.55,661.56,378.56Z" style="fill:#ffbe9d"></path><path d="M544.36,311.1a88.75,88.75,0,0,1-13.52-1.66,44.74,44.74,0,0,1,6.79.57A45.39,45.39,0,0,1,544.36,311.1Z" style="fill:#eb996e"></path><path d="M544.83,325.18a10.8,10.8,0,0,1-2.42-.19c-1.49-.19-3.53-.52-5.77-1s-4.26-.93-5.71-1.32a10.9,10.9,0,0,1-2.31-.75,12.7,12.7,0,0,1,2.4.39l5.72,1.17,5.73,1.11A12,12,0,0,1,544.83,325.18Z" style="fill:#eb996e"></path><path d="M541.77,336.4a19.71,19.71,0,0,1-4.35-1.17,20,20,0,0,1-4.18-1.67,19.71,19.71,0,0,1,4.35,1.17A19.36,19.36,0,0,1,541.77,336.4Z" style="fill:#eb996e"></path><path d="M588.08,318.54s.2.13.58.41l1.64,1.22,6.28,4.78c5.44,4.17,13.29,10.22,22.93,17.79s21.09,16.6,33.4,27.15a104.79,104.79,0,0,1,9.07,8.55,129,129,0,0,1,7.51,10.62,36.65,36.65,0,0,1,5.06,12.47,21.19,21.19,0,0,1,.09,6.93,20.05,20.05,0,0,1-2.3,6.63,25.87,25.87,0,0,1-4.26,5.57,28.52,28.52,0,0,1-2.59,2.33l-1.43,1c-.47.34-1,.58-1.49.87a21.66,21.66,0,0,1-13.2,2.15A39.56,39.56,0,0,1,637,423a69.11,69.11,0,0,1-10.58-6.6,82.88,82.88,0,0,1-9-7.77,80.39,80.39,0,0,1-7.2-8.55c-4.35-5.75-8.27-11.2-11.84-16.18-7.13-10-12.81-18.09-16.72-23.71-1.94-2.81-3.45-5-4.49-6.49l-1.15-1.7c-.26-.39-.38-.59-.38-.59s.15.18.42.56l1.2,1.67,4.56,6.43c4,5.59,9.69,13.68,16.86,23.62,3.59,5,7.52,10.39,11.88,16.12a79.22,79.22,0,0,0,7.19,8.5,83.07,83.07,0,0,0,8.92,7.71,69.1,69.1,0,0,0,10.51,6.54,39.46,39.46,0,0,0,12.21,3.94,21,21,0,0,0,12.89-2.1c.49-.29,1-.52,1.46-.85l1.39-1a28.85,28.85,0,0,0,2.54-2.29,25.32,25.32,0,0,0,4.17-5.46A19.69,19.69,0,0,0,674,401.62a36.34,36.34,0,0,0-5-12.3c-2.28-3.74-4.93-7.2-7.46-10.56a104.08,104.08,0,0,0-9-8.51c-12.27-10.55-23.73-19.59-33.31-27.22s-17.42-13.7-22.83-17.92l-6.22-4.85L588.62,319Z" style="fill:#eb996e"></path><path d="M489.16,96.62A11.25,11.25,0,0,0,477,92.13a15.37,15.37,0,0,0-18.8,2.29,13.68,13.68,0,0,0-19.39,13.23,11.43,11.43,0,0,0-8,20.18,11,11,0,0,0,6.78,20.78l50.85-39A11.24,11.24,0,0,0,489.16,96.62Z" style="fill:#263238"></path><path d="M439.73,208.5c-1.38-12-3.09-35.6-3.58-58.19A46.61,46.61,0,0,1,478,102.92l2.4-.24c26.05-1.15,41.57,20.33,42,46.4l3.31,88.21h0c-16.92,29.35-51.18,25.4-58.42,7.56h0L467,236S442.59,233.35,439.73,208.5Z" style="fill:#ffbe9d"></path><path d="M466.79,236s16-.68,31.63-12.89c0,0-6.17,18.48-31.23,18.79Z" style="fill:#eb996e"></path><path d="M448.08,167.64a3.56,3.56,0,0,0,3.79,3.23,3.42,3.42,0,0,0,3.34-3.58,3.57,3.57,0,0,0-3.79-3.23A3.41,3.41,0,0,0,448.08,167.64Z" style="fill:#263238"></path><path d="M442.75,161.93c.49.42,3-1.85,6.8-2.23s6.82,1.24,7.19.73c.18-.23-.35-1-1.66-1.78a9.88,9.88,0,0,0-5.82-1.16,9.39,9.39,0,0,0-5.35,2.36C442.82,160.87,442.51,161.75,442.75,161.93Z" style="fill:#263238"></path><path d="M483.67,165.57a3.57,3.57,0,0,0,3.79,3.24,3.43,3.43,0,0,0,3.34-3.58A3.57,3.57,0,0,0,487,162,3.41,3.41,0,0,0,483.67,165.57Z" style="fill:#263238"></path><path d="M480.41,158.79c.49.42,3-1.85,6.81-2.23s6.82,1.24,7.19.73c.18-.23-.35-1-1.67-1.78a9.68,9.68,0,0,0-5.81-1.16,9.42,9.42,0,0,0-5.36,2.35C480.49,157.73,480.18,158.6,480.41,158.79Z" style="fill:#263238"></path><path d="M469.44,188.58c0-.22-2.42-.39-6.32-.49-1,0-1.93-.1-2.17-.75a5,5,0,0,1,.36-3c.67-2.46,1.38-5,2.12-7.73,2.93-11,4.94-20,4.49-20.12s-3.17,8.71-6.1,19.71c-.69,2.71-1.36,5.29-2,7.76-.26,1.15-.77,2.48-.12,3.89a2.46,2.46,0,0,0,1.75,1.26,6.6,6.6,0,0,0,1.69.06C467,189,469.45,188.79,469.44,188.58Z" style="fill:#263238"></path><path d="M481,190.07c-.63,0-.21,4.18-3.46,7.49s-7.72,3.3-7.69,3.89c0,.26,1.07.7,2.94.56a10.4,10.4,0,0,0,6.45-3,9.07,9.07,0,0,0,2.63-6.25C481.82,191,481.25,190,481,190.07Z" style="fill:#263238"></path><path d="M477.89,143.9c.48,1,4.25.12,8.79.2s8.3.93,8.8-.06c.22-.47-.51-1.39-2.08-2.25a15.35,15.35,0,0,0-13.4-.1C478.42,142.53,477.68,143.43,477.89,143.9Z" style="fill:#263238"></path><path d="M443,150.72c.76.8,3.3-.37,6.47-.74s5.91,0,6.43-1c.23-.47-.28-1.29-1.54-2a9.43,9.43,0,0,0-10.4,1.4C443,149.4,442.68,150.33,443,150.72Z" style="fill:#263238"></path><path d="M437.37,138.65s5-16.26,12.11-20.67c8.65-5.34,13.59,4.25,22,.94s16.67-8.43,26.22-2.64c10.45,6.34,6.43,11.95,8.17,22.94,7,44.51,16.49,56.34,16.65,35,0-2.34,6.24-4.83,6.19-14.69-.06-12.78-1.15-28.2-4.9-36.89-3.16-7.33-8-12.12-16.34-17.09-13.15-7.85-30-6.32-41.24-4S434.33,119.24,437.37,138.65Z" style="fill:#263238"></path><path d="M520.88,173.72a6.79,6.79,0,0,1,6.62-7.26c4.69,0,10.13,2.07,10.8,11.69,1.21,17.07-16.18,14.76-16.24,14.27C522,192.09,521.32,180.86,520.88,173.72Z" style="fill:#ffbe9d"></path><path d="M525.32,185.73c.07-.06.31.19.83.39a3,3,0,0,0,2.22-.11c1.76-.79,3.08-3.76,2.94-6.85a9.68,9.68,0,0,0-1.13-4.19,3.45,3.45,0,0,0-2.39-2.13,1.52,1.52,0,0,0-1.7.94c-.2.49-.07.83-.15.86s-.39-.26-.3-1a1.9,1.9,0,0,1,.59-1.12,2.29,2.29,0,0,1,1.62-.55,4.2,4.2,0,0,1,3.29,2.43,10.19,10.19,0,0,1,1.37,4.68c.13,3.45-1.41,6.79-3.82,7.68a3.17,3.17,0,0,1-2.75-.26C525.38,186.15,525.26,185.77,525.32,185.73Z" style="fill:#eb996e"></path><path d="M517.16,140.79c-2,1.73-4.23,3.53-6.86,4.06s-5.84-.68-6.56-3.27c-.32-1.16-.17-2.57-1-3.4-1.05-1-2.73-.48-4.14-.18a10.93,10.93,0,0,1-12.07-6.63c-1.06,2-4,2.23-6.05,1.2s-3.47-2.92-5.14-4.48-3.93-2.87-6.14-2.32c-1.24.3-2.34,1.17-3.62,1.19-2.25,0-3.61-2.47-4.18-4.66s-1.09-4.74-3.11-5.75-4.07-.06-6.1.46-4.73.3-5.46-1.66a4,4,0,0,1,.44-3.16,11.09,11.09,0,0,1,12.58-5.51A15,15,0,0,1,486.85,101a15.24,15.24,0,0,1,24.8,3,11,11,0,0,1,14,14.71c3.24,1.44,6.17,4.21,6.59,7.72s-2.65,7.38-6.14,6.8a6.12,6.12,0,0,1-9.9,7.15" style="fill:#263238"></path><path d="M527.37,133.08c.06-.06.47,1.39-.72,3.37a5.51,5.51,0,0,1-3.2,2.39,5.93,5.93,0,0,1-5-.92l.71-.18a17.06,17.06,0,0,1-3,4.59,9.69,9.69,0,0,1-2.9,2.25,7.6,7.6,0,0,1-8.59-1.64,9.9,9.9,0,0,1-1.74-3.4,3.31,3.31,0,0,1-.27-1.36c.07,0,.26.43.63,1.22a11.48,11.48,0,0,0,1.9,3.08c1.86,2.27,7.24,3,10.25-.81a17,17,0,0,0,2.83-4.31l.25-.53.46.35a5.17,5.17,0,0,0,4.23.88,5,5,0,0,0,2.92-1.94A8.27,8.27,0,0,0,527.37,133.08Z" style="fill:#455a64"></path><path d="M444,96.08c-.1-.15-1.7,1.2-2.68,4.19a14.53,14.53,0,0,0-.8,5.43,9.68,9.68,0,0,0,2.65,6.26,13.87,13.87,0,0,0,5.85,3.37,38.69,38.69,0,0,0,5.26,1.21c3,.48,4.86.72,4.9.56s-1.78-.71-4.73-1.4c-1.47-.37-3.22-.78-5.08-1.43a13.64,13.64,0,0,1-5.32-3.15,8.88,8.88,0,0,1-2.41-5.49,15.32,15.32,0,0,1,.5-5.11A20.37,20.37,0,0,1,444,96.08Z" style="fill:#e0e0e0"></path><path d="M439.63,116.51a12.55,12.55,0,0,0,6.27,2.25c1.73.09,2.76-.24,2.74-.38s-1.05-.17-2.63-.47a14.78,14.78,0,0,1-9.9-6.91c-.83-1.38-1.17-2.35-1.35-2.3s-.1,1.11.58,2.7" style="fill:#e0e0e0"></path><path d="M472.07,162.09a19.13,19.13,0,0,1,1-3.74,13.55,13.55,0,0,1,2.36-3.86,13.73,13.73,0,0,1,4.75-3.57,12.79,12.79,0,0,1,3.31-1,13.34,13.34,0,0,1,3.75-.14,13.67,13.67,0,0,1,10.52,20.39,13.63,13.63,0,0,1-16.37,6.1,14.57,14.57,0,0,1-3.74-2,14.94,14.94,0,0,1-2.81-2.87,13.33,13.33,0,0,1-2.53-6.68c0-.56-.08-1.09-.11-1.62a4.1,4.1,0,0,0,0-.83.69.69,0,0,0-.26-.45,2.32,2.32,0,0,0-.36-.22,9.51,9.51,0,0,0-2.75-1,7.72,7.72,0,0,0-4.57.52,7.3,7.3,0,0,0-2.31,1.78c-.22.25-.38.45-.48.59s-.15.21-.14.22.24-.25.71-.72a7,7,0,0,1,6.73-2,9,9,0,0,1,2.63,1c.22.13.41.22.4.38a4.47,4.47,0,0,1-.06.75c0,.55.05,1.11.08,1.68a13.84,13.84,0,0,0,2.55,6.94,14.17,14.17,0,0,0,6.78,5.11,14.19,14.19,0,0,0,17.1-6.34,14.06,14.06,0,0,0,1.59-9.89,14.54,14.54,0,0,0-1.74-4.52,14.2,14.2,0,0,0-3-3.52,14,14,0,0,0-7.82-3.27,13.82,13.82,0,0,0-3.88.18,13,13,0,0,0-3.41,1.1,13.85,13.85,0,0,0-4.84,3.74,13.6,13.6,0,0,0-2.32,4,12.7,12.7,0,0,0-.72,2.82A5.91,5.91,0,0,0,472.07,162.09Z" style="fill:#263238"></path><path d="M434.15,169.38a25.29,25.29,0,0,1,.08-3.42,13.92,13.92,0,0,1,4-8.16,13.7,13.7,0,0,1,12.58-3.67,13.54,13.54,0,0,1,6.93,3.86,13.56,13.56,0,0,1,2.2,16,12.71,12.71,0,0,1-2.46,3.27,12.55,12.55,0,0,1-3.16,2.32,13.87,13.87,0,0,1-7,1.6,13.64,13.64,0,0,1-6.08-1.73,13.93,13.93,0,0,1-6.07-6.77,26.16,26.16,0,0,1-1-3.27,4.49,4.49,0,0,0,.1.89,6.23,6.23,0,0,0,.23,1.06,9.79,9.79,0,0,0,.45,1.41,14.09,14.09,0,0,0,12.34,8.92,14.32,14.32,0,0,0,7.32-1.6,13.3,13.3,0,0,0,3.31-2.41,13,13,0,0,0,2.58-3.4,14.11,14.11,0,0,0-2.3-16.68,13.13,13.13,0,0,0-3.4-2.58,13.63,13.63,0,0,0-3.84-1.42,14.1,14.1,0,0,0-13,3.92,13.94,13.94,0,0,0-3.94,8.45,9.61,9.61,0,0,0-.05,1.48,5.63,5.63,0,0,0,.07,1.08A4.61,4.61,0,0,0,434.15,169.38Z" style="fill:#263238"></path><path d="M499.63,166.17c-.05.16,4.75,1.78,10.71,3.61s10.85,3.2,10.9,3-4.75-1.78-10.72-3.61S499.68,166,499.63,166.17Z" style="fill:#263238"></path><path d="M438.34,197.19c0-.95,0-3.55.27-3.47,3.77,1.09,6.2,0,9.71-3.42,4.7-4.55,6.77-7.72,14.79-7.5a28.86,28.86,0,0,1,12,3,47,47,0,0,0,32,3.42l10,12.75s-9.41,34.42-49.82,34.42C439.59,236.38,438.7,206.59,438.34,197.19Z" style="fill:#455a64"></path><path d="M438.73,198.32c4.84.86,6.67-.58,10.7-4.48s5.78-5.48,11.36-6.09c4.75-.51,14.2,2.77,18.6,4.63,9.24,3.9,20.59,2.52,30.33.09l-.47-.54L507,189a47,47,0,0,1-32-3.42,29,29,0,0,0-12-3c-8-.22-10.09,3-14.78,7.5-3.49,3.38-5.75,3.57-9.62,3.59,0,0-.32.15-.3,1.5A22.2,22.2,0,0,0,438.73,198.32Z" style="fill:#e0e0e0"></path><path d="M441.91,210.16a2.46,2.46,0,0,1,.6.05l1.7.24c.74.12,1.64.26,2.7.36s2.25.29,3.58.37,2.79.21,4.36.24,3.24.05,5,0A88.41,88.41,0,0,0,482.48,208c1.69-.52,3.3-1,4.77-1.53s2.85-1,4.09-1.53,2.34-1,3.31-1.41,1.8-.81,2.47-1.14l1.56-.74a3.4,3.4,0,0,1,.56-.23,2.57,2.57,0,0,1-.51.32l-1.52.83c-.65.36-1.47.79-2.43,1.23s-2,1-3.3,1.48-2.59,1.09-4.08,1.6-3.09,1.05-4.78,1.58a92.71,92.71,0,0,1-11.26,2.5,91.11,91.11,0,0,1-11.49.95c-1.78,0-3.46,0-5-.08s-3-.19-4.37-.32-2.53-.3-3.59-.44-2-.3-2.69-.45l-1.69-.34A2.14,2.14,0,0,1,441.91,210.16Z" style="fill:#263238"></path><path d="M453.38,218.76a6.39,6.39,0,0,1,1.4.25c.45.1,1,.22,1.63.32s1.36.27,2.17.36a50.81,50.81,0,0,0,5.7.48,53.68,53.68,0,0,0,7-.34,52.75,52.75,0,0,0,6.86-1.35,49.33,49.33,0,0,0,5.42-1.83c.76-.29,1.43-.61,2-.87s1.1-.5,1.51-.71a7.84,7.84,0,0,1,1.3-.58,8.6,8.6,0,0,1-1.21.76,15.51,15.51,0,0,1-1.47.79c-.59.29-1.25.64-2,1a43.2,43.2,0,0,1-5.43,1.95,48.42,48.42,0,0,1-6.93,1.41,49.52,49.52,0,0,1-7.06.3,42.84,42.84,0,0,1-5.74-.6c-.82-.11-1.54-.29-2.18-.43s-1.18-.28-1.62-.41A8.2,8.2,0,0,1,453.38,218.76Z" style="fill:#263238"></path><path d="M515.94,202.8s.17-.06.45-.2a5.35,5.35,0,0,0,1.08-.74,28.09,28.09,0,0,0,3.07-3.18c2.25-2.65,3.94-4.92,4.07-4.84a25.5,25.5,0,0,1-3.67,5.18,19.61,19.61,0,0,1-3.24,3.13,4.07,4.07,0,0,1-1.24.64C516.13,202.88,515.94,202.83,515.94,202.8Z" style="fill:#455a64"></path><path d="M520.07,174.94a13.38,13.38,0,0,1-1.27,2.68,51.44,51.44,0,0,1-3.89,6,50.24,50.24,0,0,1-4.67,5.44,13,13,0,0,1-2.21,2,24.6,24.6,0,0,1,2-2.23c1.22-1.36,2.85-3.27,4.52-5.5s3-4.34,4-5.9A21.39,21.39,0,0,1,520.07,174.94Z" style="fill:#455a64"></path><g style="opacity:0.30000000000000004"><path d="M446,211.06s17.67,4,26.56,2.66,16.55-5.27,23.69-10.73C496.11,204,468.92,215.22,446,211.06Z"></path></g><path d="M451.82,200.74c0-.08,1.61.22,4.19.54a74.28,74.28,0,0,0,10.14.58,76.6,76.6,0,0,0,10.12-.84c2.57-.39,4.15-.73,4.17-.65a5.42,5.42,0,0,1-1.09.34c-.7.2-1.74.43-3,.67a60.41,60.41,0,0,1-20.37.27c-1.29-.21-2.33-.42-3-.59A4.26,4.26,0,0,1,451.82,200.74Z" style="fill:#263238"></path><path d="M103.82,180c1.27-6.2,6.49-36.49,7.53-41.06a25.94,25.94,0,0,1,10.09-15.61c5.21-3.59,12.61-4.37,17.83-.81h0a10.84,10.84,0,0,1,6.58,8.64c6.15,47.37-13.28,147.74-14.51,195.63-17.1.27-23.91,4.8-40.67,1.45C86.87,293.73,95.59,220.23,103.82,180Z" style="fill:#263238"></path><path d="M195.93,95.07c-12.34-3.13-23.73.81-34.85,7s-19.92,16.23-25.45,27.7c-5.83,12.08-8.5,30-5.82,43.16a39,39,0,0,0,22.38,28.35c16.73,7.48,36.68,8.35,52.12-1.5s25.23-27.39,27.39-45.58c1.48-12.54-.49-25.64-6.68-36.64s-16.78-19.69-29.09-22.51" style="fill:#263238"></path><path d="M156.94,134.79c2.21-4.64,1.93-10,3.06-15.06,2.49-11,12.21-19.29,23-22.82,10-3.28,21.77-1.45,33.14,3.26,7.79,3.22,15,8.33,19.78,15.26a35.2,35.2,0,0,1,3.93,32l-56.51-12.9c-5.71,4-11.55,8.07-18.24,10a11.87,11.87,0,0,1-6,.47,5.34,5.34,0,0,1-4.16-4C154.52,138.83,156,136.8,156.94,134.79Z" style="fill:#263238"></path><path d="M216.07,116.05l-50.76,6.59a9.35,9.35,0,0,0-9.43,8.43l-8,108.08a33.67,33.67,0,0,0,5.4,20.93l4.27,6.52c9.74,14.87,31.84,15.22,41.38.22a11.62,11.62,0,0,0,1.38-2.73,23.36,23.36,0,0,0,.66-2.4,78.74,78.74,0,0,0,2.18-16.29c1.25-9.58,1.72-13.52,1.71-13.43s20.64-.95,28-26.85c3.64-12.88,5.55-34.49,6.54-52.22C240.23,136.94,232.05,116.26,216.07,116.05Z" style="fill:#ffbe9d"></path><path d="M230.87,172.56a3.41,3.41,0,0,1-3.67,3,3.26,3.26,0,0,1-3.13-3.47,3.42,3.42,0,0,1,3.67-3A3.27,3.27,0,0,1,230.87,172.56Z" style="fill:#263238"></path><path d="M233.34,163.55c-.47.39-2.81-1.82-6.45-2.24s-6.54,1.08-6.88.59c-.17-.23.35-1,1.62-1.68a9.35,9.35,0,0,1,5.57-1,9.1,9.1,0,0,1,5.07,2.33C233.29,162.53,233.57,163.37,233.34,163.55Z" style="fill:#263238"></path><path d="M198.4,169.31a3.41,3.41,0,0,1-3.67,3,3.27,3.27,0,0,1-3.12-3.47,3.4,3.4,0,0,1,3.66-3A3.26,3.26,0,0,1,198.4,169.31Z" style="fill:#263238"></path><path d="M198.71,159.88c-.48.39-2.82-1.81-6.46-2.24s-6.53,1.08-6.88.59c-.17-.22.35-1,1.62-1.67a9.35,9.35,0,0,1,5.57-1,8.91,8.91,0,0,1,5.07,2.33C198.65,158.86,198.93,159.71,198.71,159.88Z" style="fill:#263238"></path><path d="M207.45,188.56c0-.21,2.32-.33,6.05-.37.94,0,1.84-.06,2.07-.68a4.77,4.77,0,0,0-.29-2.83l-1.91-7.41c-2.62-10.54-4.4-19.17-4-19.27s2.89,8.36,5.51,18.9c.63,2.6,1.22,5.08,1.79,7.44.23,1.1.69,2.37.05,3.71a2.36,2.36,0,0,1-1.69,1.18,6.3,6.3,0,0,1-1.61,0C209.73,189,207.44,188.77,207.45,188.56Z" style="fill:#263238"></path><path d="M204.83,232a67.62,67.62,0,0,1-34.23-13.64s6.71,19.34,33.43,20Z" style="fill:#eb996e"></path><path d="M204.86,197.15a6.62,6.62,0,0,0-5.59-3.14,6.11,6.11,0,0,0-4.41,1.73,3.83,3.83,0,0,0-.8,4.31c.82,1.5,2.83,2.06,4.63,1.78a14,14,0,0,0,5-2.23,4.17,4.17,0,0,0,1.17-.95,1.21,1.21,0,0,0,.15-1.36" style="fill:#eb996e"></path><path d="M196.43,189.8c.59,0,.13,4,3.18,7.2s7.31,3.28,7.28,3.83c0,.26-1,.66-2.82.5a9.91,9.91,0,0,1-6.1-3,8.63,8.63,0,0,1-2.41-6C195.6,190.67,196.16,189.74,196.43,189.8Z" style="fill:#263238"></path><path d="M200.45,149.09c-.47.95-4.06,0-8.39,0s-7.93.76-8.4-.2c-.2-.45.51-1.31,2-2.11a14.6,14.6,0,0,1,12.79.11C200,147.76,200.66,148.64,200.45,149.09Z" style="fill:#263238"></path><path d="M234.18,152.69c-.74.75-3.14-.41-6.16-.81s-5.64-.11-6.12-1c-.21-.45.29-1.24,1.5-1.89a9,9,0,0,1,9.9,1.49C234.26,151.42,234.51,152.32,234.18,152.69Z" style="fill:#263238"></path><path d="M148.4,126.35c6.39-14.79,30.64-33.7,46.52-31l24,17.87a24.8,24.8,0,0,1-18.61,17.18c-4.65.92-10.12.75-13.2,4.37s-2.11,9.62-5.07,13.46c-4.1,5.31-13.74,4.07-17,9.94-1.43,2.56-1.14,5.82-2.61,8.36-2,3.38-11.37,7-15,5.42s-3-7.85-3.85-11.28c-1.51-5.86-.36-8.7.63-11.79C146.62,141.58,145.35,133.4,148.4,126.35Z" style="fill:#263238"></path><path d="M158.09,176.19c.23-2-1.49-6.87-3.4-7.41-5.08-1.42-14.48-2.12-16.14,11-2.26,18,16.27,16.55,16.36,16S157.3,183,158.09,176.19Z" style="fill:#ffbe9d"></path><path d="M150.28,188.35c-.08-.07-.35.18-.9.36a3.17,3.17,0,0,1-2.35-.25c-1.82-.94-3-4.15-2.72-7.41a10.28,10.28,0,0,1,1.45-4.37,3.64,3.64,0,0,1,2.65-2.11,1.63,1.63,0,0,1,1.75,1.09c.17.53,0,.88.11.92s.42-.25.37-1a2,2,0,0,0-.57-1.22,2.4,2.4,0,0,0-1.67-.68,4.49,4.49,0,0,0-3.63,2.38,10.73,10.73,0,0,0-1.71,4.88c-.34,3.64,1.08,7.26,3.59,8.34a3.42,3.42,0,0,0,2.93-.11C150.19,188.78,150.33,188.39,150.28,188.35Z" style="fill:#eb996e"></path><path d="M130.09,149.07c-.14,0-.45-2.08-.25-5.47a39.84,39.84,0,0,1,10.28-24c2.32-2.49,4-3.7,4.13-3.6.31.26-6.22,5.77-10.18,15.21S130.49,149.12,130.09,149.07Z" style="fill:#3399FF"></path><path d="M214.12,107.36c1.07,7.48,11.49,17.8,15.94,23.91,8.48,11.67,10.12,13.42,7.37,46.3,5.09-8.07,9.76-22.52,10.18-32.06s-2.32-19.35-8.39-26.72-15.58-12-25.1-11.43" style="fill:#263238"></path><path d="M139.22,125.38a18.44,18.44,0,0,0,3,1,35,35,0,0,0,3.61.93c1.42.3,3,.72,4.84,1a88.37,88.37,0,0,0,12.79,1.16,98.45,98.45,0,0,0,15.69-1.13,98.27,98.27,0,0,0,15.26-3.83,87.87,87.87,0,0,0,11.79-5.1c1.65-.8,3-1.69,4.3-2.42s2.3-1.42,3.13-2a17.29,17.29,0,0,0,2.54-1.9,18.73,18.73,0,0,0-2.77,1.55c-.86.53-1.92,1.17-3.2,1.84s-2.69,1.51-4.34,2.26a95.36,95.36,0,0,1-11.77,4.83A103.72,103.72,0,0,1,179,127.24a104,104,0,0,1-15.51,1.19,95.08,95.08,0,0,1-12.69-.92c-1.8-.19-3.41-.54-4.83-.79s-2.63-.5-3.62-.74A16.24,16.24,0,0,0,139.22,125.38Z" style="fill:#455a64"></path><path d="M136.3,138.17a8.38,8.38,0,0,0,2,.68,51.9,51.9,0,0,0,5.76,1.21,72.7,72.7,0,0,0,38.23-4.37,51.43,51.43,0,0,0,5.35-2.47,7.68,7.68,0,0,0,1.84-1.13c-.08-.17-2.83,1.21-7.46,2.89a81.59,81.59,0,0,1-37.85,4.32C139.33,138.7,136.34,138,136.3,138.17Z" style="fill:#455a64"></path><path d="M131.7,138.25a11.66,11.66,0,0,0-.83,2.67,70.93,70.93,0,0,0-1.35,7.49,107,107,0,0,0-.91,11.25,74.12,74.12,0,0,0,.74,13.84,36.47,36.47,0,0,0,12.36,21.57,35.31,35.31,0,0,0,6.41,4.15,11.29,11.29,0,0,0,2.57,1.1,16.32,16.32,0,0,0-2.36-1.48,41.73,41.73,0,0,1-6.11-4.37,33.64,33.64,0,0,1-7-8.51,36.61,36.61,0,0,1-4.73-12.65,77.23,77.23,0,0,1-.82-13.63c.07-4.21.34-8,.67-11.18s.68-5.73,1-7.49A16,16,0,0,0,131.7,138.25Z" style="fill:#455a64"></path><path d="M236.14,198a1.53,1.53,0,0,0-1.34-1.9c-3.81-.28-6.53-2.74-9.67-6.33-4.2-4.8-5.95-8.06-13.77-8.49a28.07,28.07,0,0,0-11.92,1.94,45.82,45.82,0,0,1-31.34.73l-10.72,11.6s8,36.36,47.45,36.39C226.6,232,234.39,205.46,236.14,198Z" style="fill:#455a64"></path><path d="M225.23,189.64c-4.19-4.8-5.95-8-13.76-8.48a28.22,28.22,0,0,0-11.92,1.93,45.88,45.88,0,0,1-31.34.74l-2.44,2.63-.5.49c9.27,3.15,20.19,5.4,29.49,2.35,4.43-1.45,13.88-3.87,18.46-3,5.37,1,6.82,4.3,10.42,8.41s6.84,7.08,11.62,6.64l.38-1.58c.18-.67.33-1.25.46-1.74a1.56,1.56,0,0,0-1.37-1.92C231,195.78,228.35,193.21,225.23,189.64Z" style="fill:#e0e0e0"></path><path d="M229.76,209.62a2.54,2.54,0,0,1-.58.1l-1.67.2c-.73.09-1.62.17-2.65.22s-2.22.15-3.53.14-2.74,0-4.27-.05-3.18-.18-4.9-.32a83.11,83.11,0,0,1-21.84-5.2c-1.6-.65-3.13-1.25-4.52-1.92s-2.68-1.27-3.84-1.88-2.18-1.2-3.08-1.71-1.67-1-2.27-1.39l-1.41-.93a2.53,2.53,0,0,1-.47-.36,3.18,3.18,0,0,1,.53.27l1.45.84c.63.38,1.39.83,2.31,1.31s1.93,1.09,3.11,1.64,2.44,1.22,3.85,1.82,2.91,1.23,4.51,1.86a86.28,86.28,0,0,0,21.72,5.17c1.71.15,3.34.32,4.87.37s2.95.11,4.25.11,2.48,0,3.51-.06,1.93-.08,2.65-.13l1.68-.1A2.24,2.24,0,0,1,229.76,209.62Z" style="fill:#263238"></path><path d="M217.91,217.05a6.56,6.56,0,0,1-1.35.33c-.44.09-1,.2-1.61.27s-1.35.2-2.15.25a43.65,43.65,0,0,1-5.63.12,48,48,0,0,1-6.84-.87,47.26,47.26,0,0,1-6.62-1.92,42,42,0,0,1-5.12-2.35c-.72-.36-1.33-.75-1.88-1.08s-1-.62-1.36-.88a7.29,7.29,0,0,1-1.11-.84,7.57,7.57,0,0,1,1.22.66c.37.24.84.52,1.4.81s1.18.67,1.9,1a49.08,49.08,0,0,0,5.11,2.22,47.59,47.59,0,0,0,13.33,2.76,46.8,46.8,0,0,0,5.58,0c.79,0,1.51-.11,2.14-.17s1.17-.12,1.61-.18A6.39,6.39,0,0,1,217.91,217.05Z" style="fill:#263238"></path><path d="M158.39,196.48a12,12,0,0,1-3.6-.09,12.55,12.55,0,0,1-3.54-.61,12.8,12.8,0,0,1,3.59.09A13.12,13.12,0,0,1,158.39,196.48Z" style="fill:#455a64"></path><path d="M156.63,169.07a19.41,19.41,0,0,1,1.34,2.55c.8,1.59,2,3.76,3.4,6.06s2.87,4.29,3.95,5.71a20.76,20.76,0,0,1,1.7,2.33,12.34,12.34,0,0,1-2-2.1,51.4,51.4,0,0,1-7.39-11.84A11.92,11.92,0,0,1,156.63,169.07Z" style="fill:#455a64"></path><g style="opacity:0.30000000000000004"><path d="M225.72,210.16s-17.5,2.48-26,.45-15.66-6.47-22.17-12.35C177.57,199.2,203.1,212.36,225.72,210.16Z"></path></g><path d="M220.88,199.66a4,4,0,0,1-1.09.23c-.7.11-1.73.22-3,.32a58.92,58.92,0,0,1-19.78-1.9c-1.23-.34-2.22-.65-2.89-.9a5.13,5.13,0,0,1-1-.42c0-.08,1.54.37,4,1a72.7,72.7,0,0,0,9.77,1.63,74.64,74.64,0,0,0,9.9.27C219.31,199.74,220.87,199.58,220.88,199.66Z" style="fill:#263238"></path><path d="M100.29,328.3s0-.17-.05-.51,0-.85-.08-1.49c-.07-1.34-.16-3.28-.28-5.77-.08-1.25-.09-2.64-.08-4.16v-5c0-1.78.07-3.68.16-5.69s.15-4.15.28-6.39c.58-8.94,1.71-19.56,3.41-31.28s3.93-24.55,6.11-38,4-26.38,5-38.17c.25-3,.51-5.83.62-8.63s.33-5.51.38-8.14c.14-5.26.25-10.18.82-14.64a45,45,0,0,1,2.89-11.74,30.51,30.51,0,0,1,4.64-7.86,21.8,21.8,0,0,1,4.18-4,14.7,14.7,0,0,1,1.69-1.1s-.13.11-.41.31-.7.45-1.21.87a23.43,23.43,0,0,0-4.1,4,31,31,0,0,0-4.52,7.85,45.1,45.1,0,0,0-2.8,11.67c-.53,4.44-.63,9.34-.75,14.61,0,2.63-.23,5.35-.35,8.16s-.36,5.68-.61,8.64c-1,11.81-2.78,24.72-5,38.21s-4.44,26.31-6.14,38-2.9,22.3-3.52,31.23c-.14,2.24-.22,4.37-.32,6.38s-.21,3.91-.2,5.69,0,3.43,0,4.95,0,2.92,0,4.17c.08,2.48.14,4.42.18,5.76,0,.64,0,1.14,0,1.5S100.29,328.3,100.29,328.3Z" style="fill:#455a64"></path><path d="M203.55,242.1s12.27,10.27,17.4,14.28c9.23,7.22,23.76,49.89,23.76,49.89l-24.25,16.42-18.84-62.34Z" style="fill:#455a64"></path><path d="M149.69,225S121,250.57,113.08,267.4c-8.57,18.27,5.2,132.05,5.2,132.05l-14.87,70.19H239.3l-3.38-76.44c3.38-4.23,18.23-40.8,12.41-57.83-3.62-10.6-6.38-22-10.5-31.91a131.6,131.6,0,0,0-28.37-41.85Z" style="fill:#455a64"></path><g style="opacity:0.30000000000000004"><path d="M234.58,372.53c-6.57,2.41-12.39,6.48-18.68,9.55s-13.57,5.13-20.28,3.14c-5.48-1.62-9.88-5.74-13.42-10.23-6.41-8.14-10.62-17.76-14.76-27.26l-10.92-25-20.07,5.8c7.48,27.25,22.21,54.88,37.69,78.51,2.78,4.25,5.83,8.62,10.35,10.92,5.17,2.64,11.51,2.07,16.88-.16s10-5.92,14.48-9.57l15.91-12.88c2.52-2,5.15-4.22,6.32-7.24C240.06,382.94,237.28,377.31,234.58,372.53Z"></path></g><path d="M142.28,245.4a16.44,16.44,0,0,1,1.72-2.05c1.19-1.38,2.62-3,4.19-4.88s3.16-3.61,4.33-4.79a11.48,11.48,0,0,1,2-1.79,18.18,18.18,0,0,1-1.72,2l-4.2,4.88c-1.63,1.92-3.16,3.62-4.32,4.79A11.33,11.33,0,0,1,142.28,245.4Z" style="fill:#263238"></path><path d="M204,469.64l0-.17c0-.13,0-.29-.06-.49-.05-.47-.11-1.11-.19-1.92l-.68-7.29c-.55-6.31-1.33-15.25-2.25-25.91l.35.17A63.79,63.79,0,0,1,171,443.74c-12.66.89-24.85-1.62-33.43-7l.34-.16c-1,9.9-1.85,18.15-2.45,24-.31,2.86-.55,5.12-.72,6.7l-.21,1.76-.06.46,0,.15s0-.06,0-.16l0-.45c0-.43.08-1,.14-1.77.14-1.58.35-3.85.6-6.72.55-5.81,1.33-14.07,2.27-24l0-.36.31.19c8.49,5.25,20.58,7.72,33.15,6.83a63.88,63.88,0,0,0,29.87-9.57l.32-.21,0,.38c.86,10.67,1.57,19.61,2.07,25.92.24,3.12.42,5.58.55,7.3.05.82.09,1.47.12,1.93,0,.2,0,.37,0,.5S204,469.64,204,469.64Z" style="fill:#263238"></path><path d="M202.08,447.11a3.81,3.81,0,0,1-.51.49,16.35,16.35,0,0,1-1.56,1.29,33.16,33.16,0,0,1-6.38,3.83,49.2,49.2,0,0,1-10.49,3.46,68.17,68.17,0,0,1-13.45,1.49,70.67,70.67,0,0,1-24.2-3.68,39.37,39.37,0,0,1-6.77-3.09,20.2,20.2,0,0,1-1.71-1.09,5,5,0,0,1-.56-.43c0-.05.82.52,2.37,1.34a42.8,42.8,0,0,0,6.79,2.92,73.31,73.31,0,0,0,24.08,3.51c9.55-.12,18.11-2.15,23.78-4.76a36.34,36.34,0,0,0,6.42-3.66C201.32,447.71,202.05,447.07,202.08,447.11Z" style="fill:#263238"></path><path d="M242.7,317.33a2.15,2.15,0,0,1-.21-.5l-.49-1.45c-.43-1.33-1-3.14-1.73-5.34-1.46-4.51-3.51-10.73-5.86-17.58s-4.54-13-6.13-17.49c-.77-2.18-1.41-4-1.88-5.29l-.49-1.44a1.86,1.86,0,0,1-.14-.52,2.33,2.33,0,0,1,.24.48c.15.38.35.84.58,1.41.5,1.23,1.2,3,2,5.24,1.68,4.43,3.93,10.59,6.27,17.45s4.35,13.09,5.72,17.63c.7,2.27,1.22,4.12,1.58,5.39.16.6.29,1.09.39,1.48A1.86,1.86,0,0,1,242.7,317.33Z" style="fill:#263238"></path><polygon points="239.76 308.22 226.24 311.94 224.88 302.74 238.39 299.01 239.76 308.22" style="fill:#e0e0e0"></polygon><path d="M140.81,436.53a.9.9,0,0,1,0-.26c0-.21,0-.46,0-.77,0-.71-.05-1.69-.08-2.93-.06-2.54-.11-6.23-.15-10.78-.08-9.1-.06-21.68,0-35.57s.14-26.43.18-35.57c0-4.52,0-8.19,0-10.78,0-1.24,0-2.22,0-2.93l0-.76a.76.76,0,0,1,0-.26.9.9,0,0,1,0,.26c0,.2,0,.45,0,.76,0,.71,0,1.69.07,2.93.06,2.55.12,6.23.15,10.78.08,9.11.06,21.68,0,35.58s-.13,26.42-.18,35.56c0,4.52,0,8.19,0,10.78,0,1.24,0,2.22,0,2.93,0,.31,0,.56,0,.76A1,1,0,0,1,140.81,436.53Z" style="fill:#263238"></path><g style="opacity:0.30000000000000004"><path d="M141,452.08a31.31,31.31,0,0,0,12.86,7.55,53.06,53.06,0,0,0,16.78,2.22,43.52,43.52,0,0,0,14.66-2.26,21.91,21.91,0,0,0,11.47-9c-3.71,3.07-8.59,4.29-13.34,5.06-14.5,2.34-28.41.86-42.43-3.52"></path></g><path d="M347.7,285.93a4.28,4.28,0,0,0-3.17-2.36,5.38,5.38,0,0,0-3.88,1.73c-3.53,3.17-5.63,7.6-7.63,11.9l15.78-7.33A12.7,12.7,0,0,0,347.7,285.93Z" style="fill:#263238"></path><path d="M132.43,308.43s38.68,95.65,61.15,102c18.24,5.16,99.9-65.1,99.9-65.1l-20-22.66L205,357.24l-27.17-66.58Z" style="fill:#ffbe9d"></path><path d="M132.43,308.43l.76-.32,2.28-.91,8.89-3.52,33.42-13.17.14-.06.06.15c7.31,17.87,16.6,40.56,27.23,66.56l-.31-.12,68.44-34.58.17-.09.13.15,20,22.65.17.2-.2.17L288.41,350c-12.42,10.39-24.79,20.25-37,29.4-6.12,4.58-12.2,9-18.28,13.1s-12.14,8-18.29,11.41a93.77,93.77,0,0,1-9.35,4.57,42.46,42.46,0,0,1-4.82,1.7,19,19,0,0,1-5,.78,9.91,9.91,0,0,1-4.8-1.41,24.26,24.26,0,0,1-4-2.82,55.53,55.53,0,0,1-6.59-6.9A142.73,142.73,0,0,1,169.87,385c-3.07-4.92-5.82-9.75-8.37-14.4-5.09-9.32-9.33-17.93-12.95-25.54s-6.6-14.24-9-19.67-4.17-9.68-5.37-12.56c-.58-1.44-1-2.54-1.34-3.29s-.43-1.13-.43-1.13.17.37.48,1.11.78,1.84,1.39,3.27c1.23,2.87,3,7.1,5.45,12.52s5.42,12,9.06,19.62,7.91,16.19,13,25.49c2.56,4.65,5.32,9.47,8.39,14.37a141.73,141.73,0,0,0,10.37,14.72,54.79,54.79,0,0,0,6.55,6.84,23.83,23.83,0,0,0,3.94,2.77,9.44,9.44,0,0,0,4.58,1.34,18.67,18.67,0,0,0,4.88-.77A40.37,40.37,0,0,0,205.3,408a93,93,0,0,0,9.3-4.57c12.23-6.84,24.26-15.38,36.49-24.48s24.57-19,37-29.4l5.23-4.43,0,.37-20-22.66.31.06L205.1,357.45l-.22.11-.09-.23c-10.59-26-19.83-48.73-27.1-66.61l.2.09-33.39,13-8.95,3.46-2.32.89Z" style="fill:#eb996e"></path><path d="M136,247.72S111.21,259.19,113.2,288a212,212,0,0,0,10.17,51.55l73.68-15.28s-10.53-35.69-16-50.65C175.9,259.25,155.74,238.39,136,247.72Z" style="fill:#455a64"></path><path d="M136,247.72s.66-.33,2-.88a24.36,24.36,0,0,1,6.06-1.42,25.07,25.07,0,0,1,9.86,1.07,37.18,37.18,0,0,1,11.69,6.27,52.51,52.51,0,0,1,11.07,11.91,42.63,42.63,0,0,1,4.34,8.08c1.11,3,2.15,6,3.21,9.22,4.2,12.71,8.55,27,13.09,42.22l.08.26-.27.06-32.32,6.71-41.36,8.56-.21.05-.07-.21A190.46,190.46,0,0,1,117.51,319c-1.47-6.67-2.57-13.1-3.34-19.21-.22-1.53-.35-3-.52-4.52s-.3-2.95-.41-4.4a58.19,58.19,0,0,1-.28-8.39,40.22,40.22,0,0,1,3.43-14.45A40.76,40.76,0,0,1,123,257.89a45.28,45.28,0,0,1,6.6-6.16,41,41,0,0,1,4.71-3.13c.56-.31,1-.54,1.29-.68a3.16,3.16,0,0,1,.45-.2l-.43.24c-.29.15-.72.39-1.27.72a43.91,43.91,0,0,0-4.64,3.18,45.7,45.7,0,0,0-6.53,6.19,41.06,41.06,0,0,0-6.46,10.14,40.08,40.08,0,0,0-3.34,14.34,59.23,59.23,0,0,0,.31,8.34c.11,1.44.24,2.9.42,4.38s.31,3,.53,4.51c.79,6.1,1.9,12.52,3.37,19.17a193,193,0,0,0,5.65,20.52l-.29-.16,41.36-8.58L197,324l-.19.32c-4.53-15.25-8.86-29.51-13-42.23-1.05-3.17-2.08-6.26-3.18-9.2a42.1,42.1,0,0,0-4.27-8,52.12,52.12,0,0,0-11-11.87,37.15,37.15,0,0,0-11.56-6.29,25.16,25.16,0,0,0-9.77-1.13,24.73,24.73,0,0,0-6.05,1.33c-.66.24-1.15.46-1.49.59Z" style="fill:#263238"></path><path d="M192.94,310.91a6.06,6.06,0,0,1-.74.2l-2.13.47-7.86,1.71c-6.63,1.47-15.75,3.66-25.81,6.15s-19.21,4.62-25.87,6c-3.32.68-6,1.22-7.89,1.55l-2.16.38a5.91,5.91,0,0,1-.75.1,3.71,3.71,0,0,1,.73-.21l2.14-.47,7.86-1.71c6.63-1.47,15.75-3.66,25.81-6.15s19.21-4.62,25.86-6c3.33-.68,6-1.22,7.9-1.55l2.15-.38A3.64,3.64,0,0,1,192.94,310.91Z" style="fill:#263238"></path><rect x="372.95" y="312.24" width="5.22" height="2.13" transform="translate(-69.26 516.63) rotate(-64.4)" style="fill:#455a64"></rect><polygon points="321.73 287.72 329.43 291.68 329.39 292.47 373.39 315.4 375.99 310.5 331.59 287.55 331.12 288.56 323.51 284.49 321.73 287.72" style="fill:#e0e0e0"></polygon><polygon points="371.9 308.49 369.32 313.27 373.39 315.4 374.71 312.62 375.99 310.5 371.9 308.49" style="fill:#455a64"></polygon><path d="M355.85,299.92a2.46,2.46,0,0,1-.38,1,3.32,3.32,0,0,1-.57.91,2.46,2.46,0,0,1,.38-1A3.53,3.53,0,0,1,355.85,299.92Z" style="fill:#263238"></path><path d="M351.6,297.85c.07,0-.1.49-.38,1a3.92,3.92,0,0,1-.56.91c-.07,0,.1-.49.38-1A4.35,4.35,0,0,1,351.6,297.85Z" style="fill:#263238"></path><path d="M347.35,295.53a2.29,2.29,0,0,1-.38,1,3.76,3.76,0,0,1-.57.91,2.37,2.37,0,0,1,.39-1A3.48,3.48,0,0,1,347.35,295.53Z" style="fill:#263238"></path><path d="M342.63,293a2.41,2.41,0,0,1-.38,1,3.32,3.32,0,0,1-.57.91,2.46,2.46,0,0,1,.38-1A3.53,3.53,0,0,1,342.63,293Z" style="fill:#263238"></path><path d="M337.9,290.55c.07,0-.1.49-.38,1a3.92,3.92,0,0,1-.56.91c-.07,0,.1-.49.38-1A4.35,4.35,0,0,1,337.9,290.55Z" style="fill:#263238"></path><path d="M359.56,302c.07,0-.08.43-.33.88a2.77,2.77,0,0,1-.52.79c-.06,0,.08-.44.34-.89A3,3,0,0,1,359.56,302Z" style="fill:#263238"></path><path d="M363.16,303.75c.06,0-.08.43-.34.88a2.94,2.94,0,0,1-.51.79c-.07,0,.08-.43.33-.89A2.63,2.63,0,0,1,363.16,303.75Z" style="fill:#263238"></path><path d="M366.75,305.49c.07,0-.08.44-.33.89a3.16,3.16,0,0,1-.52.78c-.06,0,.08-.43.33-.88A3.35,3.35,0,0,1,366.75,305.49Z" style="fill:#263238"></path><path d="M370.35,307.24c.06,0-.09.43-.34.88a3,3,0,0,1-.52.79c-.06,0,.09-.44.34-.89A2.63,2.63,0,0,1,370.35,307.24Z" style="fill:#263238"></path><rect x="327.85" y="289.07" width="7.88" height="3.18" rx="1.52" transform="translate(-81.66 444.37) rotate(-61.61)" style="fill:#e0e0e0"></rect><path d="M329.86,294.09s-.32,0-.64-.46a1.5,1.5,0,0,1-.3-.91,2.35,2.35,0,0,1,.38-1.19l1.43-2.75.41-.79a2.59,2.59,0,0,1,.59-.84,1.86,1.86,0,0,1,3,1.8,3.14,3.14,0,0,1-.42.9c-.14.27-.29.53-.43.79l-1.52,2.7a2,2,0,0,1-.85.93,1.52,1.52,0,0,1-.94.16,1.32,1.32,0,0,1-.56-.2c-.11-.07-.16-.12-.15-.14s.26.13.73.14a1.5,1.5,0,0,0,1.44-1.07c.44-.83.91-1.75,1.43-2.75l.42-.79a3.78,3.78,0,0,0,.36-.78,1.36,1.36,0,0,0-2.18-1.3,2.11,2.11,0,0,0-.48.68c-.14.27-.29.53-.43.79l-1.52,2.7a2.06,2.06,0,0,0-.42,1,1.47,1.47,0,0,0,.18.79C329.62,293.93,329.89,294.05,329.86,294.09Z" style="fill:#263238"></path><path d="M321.73,287.72a.94.94,0,0,1,.09-.2l.32-.61,1.29-2.46,0-.07.08,0,7.64,4-.21.07.47-1,.07-.15.15.08L376,310.22l.23.12-.12.23-.29.57-2.21,4.37-.12.24-.24-.12-43.95-23-.07,0v-.09c0-.31,0-.55.05-.78l.07.12-5.72-3L322.2,288a2.85,2.85,0,0,1-.47-.27l.53.25,1.51.74,5.72,2.86.07,0v.08c0,.24,0,.48,0,.78l-.07-.12,44.06,22.82-.35.11,2.22-4.37.29-.57.11.34-44.26-23,.22-.08-.48,1-.07.15-.14-.08-7.58-4.12.12,0c-.59,1-1,1.8-1.36,2.37l-.37.61A1.12,1.12,0,0,1,321.73,287.72Z" style="fill:#263238"></path><path d="M384,317.27c0,.05-1.7-.75-3.73-1.78s-3.65-1.92-3.63-2,1.7.75,3.73,1.78S384,317.22,384,317.27Z" style="fill:#263238"></path><polygon points="375.73 315.42 379.93 315.98 380.52 314.6 377.45 311.84 375.73 315.42" style="fill:#455a64"></polygon><path d="M380.52,314.6A7.4,7.4,0,0,1,380,316l0,.08h-.09c-1-.09-2.44-.25-4.22-.46l.22-.12c-.11.22-.22.46-.33.7l-.09.2-.2-.09-1.93-.9-.22-.11.1-.21,2.24-4.72.11-.24.24.12.35.16,1.57.76.23.11-.11.24c-.68,1.4-1.33,2.74-1.94,4l-.42-.2c.65-1.31,1.24-2.5,1.77-3.55l.11-.22.18.17c.95.89,1.71,1.62,2.21,2.11s.77.77.73.78a7.36,7.36,0,0,1-.91-.7c-.56-.46-1.34-1.11-2.28-1.92l.29-.06-1.68,3.59-.42-.2,1.89-4,.13.35-1.58-.76-.35-.16.35-.13c-.81,1.67-1.57,3.25-2.28,4.7l-.11-.32,1.92.94-.3.11.35-.7.07-.14.15,0c1.77.26,3.21.49,4.19.65l-.12.07A9,9,0,0,1,380.52,314.6Z" style="fill:#263238"></path><path d="M384.52,312.94a1.61,1.61,0,0,1,.06.44,9.57,9.57,0,0,1,0,1.21,12.41,12.41,0,0,1-.86,3.89,11.89,11.89,0,0,1-1.45,2.67l-.14-.1.59-.76.12.09-.79.91a2.16,2.16,0,0,1-.31.32s.07-.14.24-.37l.74-.95.12.09-.57.77-.14-.1a13.78,13.78,0,0,0,1.4-2.64,14.44,14.44,0,0,0,.91-3.83C384.52,313.57,384.48,312.94,384.52,312.94Z" style="fill:#eb996e"></path><path d="M335.49,275.68s3.46-.66,3.92,2.79S333.5,284,333.5,284c-4.74,2-11.48,4-11.48,4l-4.7,5.09,16.26,3.13,8.09-3s4.22-9.55,9.68-10.2l4.64.63-6.35,16.66s1.6,6-1.5,11.05c0,0,.61,3.86-2.63,8.33s-17,12.51-21.29,13.08-16.13,2.33-17.82,5.16-13,13-13,13l-27.21-30.44L284,308.91l11.29-16.44c7.06-6.66,19.73-13.72,20.6-14.6Z" style="fill:#455a64"></path><path d="M293.76,338.84c-.13,0-1.67-5-3.42-11.22s-3.06-11.33-2.92-11.37,1.67,5,3.42,11.23S293.9,338.8,293.76,338.84Z" style="fill:#263238"></path><path d="M296.84,333.81a26,26,0,0,1-1.92-4.81,26.71,26.71,0,0,1-1.44-5,50.45,50.45,0,0,1,3.36,9.78Z" style="fill:#263238"></path><path d="M349.64,300.3a3.82,3.82,0,0,1-.53.81,21.14,21.14,0,0,1-1.69,2A17.05,17.05,0,0,1,340,307.6a39.87,39.87,0,0,1-8.56,1.2,27.38,27.38,0,0,1-3.57.11,3.18,3.18,0,0,1,.95-.18c.61-.09,1.49-.19,2.59-.3a48,48,0,0,0,8.44-1.33,17.86,17.86,0,0,0,7.27-4.24C348.73,301.33,349.55,300.24,349.64,300.3Z" style="fill:#263238"></path><path d="M347.64,311.72a9.64,9.64,0,0,1-1.93,1.82,32.85,32.85,0,0,1-5.39,3.48,32.36,32.36,0,0,1-6,2.34,9.9,9.9,0,0,1-2.61.51,20.15,20.15,0,0,1,2.5-.86,45.06,45.06,0,0,0,5.84-2.45,43.26,43.26,0,0,0,5.4-3.31A20.48,20.48,0,0,1,347.64,311.72Z" style="fill:#263238"></path><path d="M199.65,380.83a3.13,3.13,0,0,1-.09-1c0-.62,0-1.52.05-2.63a45,45,0,0,1,1.34-8.59,44.47,44.47,0,0,1,3-8.18c.48-1,.91-1.79,1.23-2.33a3.57,3.57,0,0,1,.54-.8c.08,0-.56,1.26-1.44,3.29A54.48,54.48,0,0,0,200,377.26C199.77,379.46,199.73,380.83,199.65,380.83Z" style="fill:#eb996e"></path><path d="M340.09,342.81q16.77-2.54,33.26-6.64c1.33,3.95-1.07,8.39-4.54,10.7s-7.75,3-11.88,3.47a21.84,21.84,0,0,1-18.35,17.6" style="fill:#455a64"></path><path d="M338.58,367.94a24.1,24.1,0,0,0,7.12-2.48,22.35,22.35,0,0,0,6.49-5.43,20.91,20.91,0,0,0,4.5-9.73l0-.18.18,0a42.61,42.61,0,0,0,7.46-1.44,13.91,13.91,0,0,0,6.73-4.2c2-2.31,3-5.5,2-8.2l.31.16c-9.43,2.33-17.76,4-23.73,5-3,.51-5.38.87-7,1.11l-1.9.25a3,3,0,0,1-.66.05,5.07,5.07,0,0,1,.65-.14l1.88-.34,7-1.26c5.95-1.1,14.26-2.79,23.66-5.14l.23-.06.08.22a8,8,0,0,1,.1,4.55,11.14,11.14,0,0,1-2.2,4.16,14.34,14.34,0,0,1-7,4.35,42.54,42.54,0,0,1-7.55,1.43l.21-.2a21.23,21.23,0,0,1-4.66,9.91,22.15,22.15,0,0,1-6.67,5.43,20.64,20.64,0,0,1-5.27,1.94c-.64.14-1.14.18-1.48.23Z" style="fill:#263238"></path></g></svg>