<?xml version="1.0" encoding="utf-8"?>
<!-- Generator: Adobe Illustrator 22.1.0, SVG Export Plug-In . SVG Version: 6.00 Build 0)  -->
<svg version="1.1" id="Layer_1" xmlns="http://www.w3.org/2000/svg" xmlns:xlink="http://www.w3.org/1999/xlink" x="0px" y="0px"
	 viewBox="0 0 97 34" style="enable-background:new 0 0 97 34;" xml:space="preserve">
<style type="text/css">
	.st0{fill:#3399FF;}
</style>
<g>
	<g>
		<path class="st0" d="M31.3,15.2h-1.5c0.8-2.9,0.4-5.7-1-7.9c-1.6-2.5-4.5-4-7.4-4c-2.5,0-4.7,1.1-6.2,3.1c-1.5-2-3.7-3.1-6.2-3.1
			c-2.9,0-5.8,1.5-7.4,4c-1.8,2.7-2,6-0.5,9.5l0.3,0.7h10.2l0.8-1.7l3.7,7.4l2.8-5.7h7.5c-2,3.5-5.8,7.1-11.2,10.5
			c-3.7-2.4-6.7-4.8-8.8-7.2h-3L4,21.7c2.4,2.9,5.9,5.8,10.4,8.6l0.6,0.4l0.6-0.4c6.7-4.2,11.1-8.4,13.2-12.8h0l0,0h2.4
			c0.6,0,1.1-0.5,1.1-1.1C32.4,15.8,31.9,15.2,31.3,15.2z M17.3,15.2L16,18.1l-3.7-7.5l-2.2,4.7H2.8c-0.9-2.5-0.7-4.8,0.6-6.7
			c1.2-1.8,3.3-3,5.5-3c2.3,0,4.2,1.3,5.1,3.5l1,2.3l1-2.3c1-2.2,2.9-3.5,5.2-3.5c2.2,0,4.3,1.1,5.5,3c1.2,1.8,1.4,4.2,0.6,6.7h-8.6
			l0,0L17.3,15.2L17.3,15.2L17.3,15.2z"/>
	</g>
	<g>
		<path class="st0" d="M41.8,17.7c0.1,0.1,0.1,0.3,0.2,0.4c0.1-0.1,0.1-0.3,0.2-0.4c0.1-0.1,0.1-0.3,0.2-0.4l1.7-3.4
			c0-0.1,0.1-0.1,0.1-0.1c0,0,0.1-0.1,0.1-0.1c0,0,0.1,0,0.1,0s0.1,0,0.2,0h1.2v6.7h-1.4v-3.9c0-0.2,0-0.4,0-0.6l-1.8,3.5
			c-0.1,0.1-0.1,0.2-0.2,0.2s-0.2,0.1-0.3,0.1h-0.2c-0.1,0-0.2,0-0.3-0.1c-0.1-0.1-0.2-0.1-0.2-0.2L39.5,16c0,0.1,0,0.2,0,0.3
			c0,0.1,0,0.2,0,0.3v3.9h-1.4v-6.7h1.2c0.1,0,0.1,0,0.2,0c0,0,0.1,0,0.1,0c0,0,0.1,0,0.1,0.1c0,0,0.1,0.1,0.1,0.1l1.7,3.4
			C41.6,17.5,41.7,17.6,41.8,17.7z"/>
		<path class="st0" d="M48.9,15.6c0.3,0,0.6,0,0.9,0.1c0.3,0.1,0.5,0.2,0.7,0.4c0.2,0.2,0.3,0.4,0.4,0.7c0.1,0.3,0.2,0.6,0.2,0.9
			c0,0.1,0,0.2,0,0.3c0,0.1,0,0.1,0,0.2c0,0-0.1,0.1-0.1,0.1c0,0-0.1,0-0.2,0h-2.8c0,0.4,0.2,0.7,0.4,0.9c0.2,0.2,0.4,0.3,0.8,0.3
			c0.2,0,0.3,0,0.4-0.1s0.2-0.1,0.3-0.1c0.1,0,0.2-0.1,0.3-0.1c0.1,0,0.2-0.1,0.2-0.1c0.1,0,0.2,0,0.3,0.1l0.4,0.5
			c-0.1,0.2-0.3,0.3-0.5,0.4c-0.2,0.1-0.3,0.2-0.5,0.2c-0.2,0.1-0.4,0.1-0.5,0.1c-0.2,0-0.4,0-0.5,0c-0.3,0-0.7-0.1-0.9-0.2
			c-0.3-0.1-0.6-0.3-0.8-0.5c-0.2-0.2-0.4-0.5-0.5-0.8c-0.1-0.3-0.2-0.7-0.2-1.1c0-0.3,0.1-0.6,0.2-0.9c0.1-0.3,0.3-0.5,0.5-0.8
			c0.2-0.2,0.5-0.4,0.7-0.5C48.2,15.6,48.5,15.6,48.9,15.6z M48.9,16.6c-0.3,0-0.5,0.1-0.6,0.2C48.1,17,48,17.2,48,17.5h1.8
			c0-0.1,0-0.2,0-0.3c0-0.1-0.1-0.2-0.1-0.3c-0.1-0.1-0.2-0.2-0.3-0.2C49.2,16.6,49.1,16.6,48.9,16.6z"/>
		<path class="st0" d="M55.2,20.4c-0.1,0-0.2,0-0.2-0.1c-0.1,0-0.1-0.1-0.1-0.2l-0.1-0.4c-0.1,0.1-0.2,0.2-0.3,0.3
			c-0.1,0.1-0.2,0.2-0.3,0.2c-0.1,0.1-0.3,0.1-0.4,0.1c-0.1,0-0.3,0-0.5,0c-0.2,0-0.5-0.1-0.7-0.2c-0.2-0.1-0.4-0.3-0.5-0.5
			c-0.2-0.2-0.3-0.5-0.4-0.8c-0.1-0.3-0.1-0.6-0.1-1c0-0.4,0-0.7,0.1-1c0.1-0.3,0.2-0.6,0.4-0.8c0.2-0.2,0.4-0.4,0.6-0.5
			c0.3-0.1,0.5-0.2,0.8-0.2c0.2,0,0.5,0,0.6,0.1c0.2,0.1,0.3,0.2,0.5,0.3v-2.4h1.4v6.9L55.2,20.4L55.2,20.4L55.2,20.4z M53.8,19.4
			c0.1,0,0.2,0,0.3,0c0.1,0,0.2,0,0.2-0.1c0.1,0,0.1-0.1,0.2-0.1c0.1-0.1,0.1-0.1,0.2-0.2v-2c-0.1-0.1-0.2-0.2-0.4-0.3
			c-0.1,0-0.3-0.1-0.4-0.1c-0.1,0-0.3,0-0.4,0.1c-0.1,0.1-0.2,0.1-0.3,0.3s-0.1,0.3-0.2,0.4c0,0.2-0.1,0.4-0.1,0.7
			c0,0.3,0,0.5,0.1,0.6c0,0.2,0.1,0.3,0.2,0.4c0.1,0.1,0.1,0.2,0.2,0.2C53.6,19.4,53.7,19.4,53.8,19.4z"/>
		<path class="st0" d="M58.9,14.3c0,0.1,0,0.2-0.1,0.3c0,0.1-0.1,0.2-0.2,0.3c-0.1,0.1-0.2,0.1-0.3,0.2c-0.1,0-0.2,0.1-0.3,0.1
			c-0.1,0-0.2,0-0.3-0.1c-0.1,0-0.2-0.1-0.3-0.2c-0.1-0.1-0.1-0.2-0.2-0.3c0-0.1-0.1-0.2-0.1-0.3s0-0.2,0.1-0.3
			c0-0.1,0.1-0.2,0.2-0.3c0.1-0.1,0.2-0.1,0.3-0.2c0.1,0,0.2-0.1,0.3-0.1c0.1,0,0.2,0,0.3,0.1c0.1,0,0.2,0.1,0.3,0.2
			c0.1,0.1,0.1,0.2,0.2,0.3C58.8,14.1,58.9,14.2,58.9,14.3z M58.7,15.6v4.8h-1.4v-4.8H58.7z"/>
		<path class="st0" d="M63.3,16.8c0,0.1-0.1,0.1-0.1,0.1c0,0-0.1,0-0.2,0c-0.1,0-0.1,0-0.2,0c-0.1,0-0.1-0.1-0.2-0.1
			s-0.2-0.1-0.2-0.1c-0.1,0-0.2,0-0.4,0c-0.2,0-0.3,0-0.5,0.1c-0.1,0.1-0.2,0.2-0.3,0.3c-0.1,0.1-0.1,0.3-0.2,0.4
			c0,0.2-0.1,0.4-0.1,0.6c0,0.5,0.1,0.8,0.3,1.1c0.2,0.2,0.4,0.4,0.7,0.4c0.2,0,0.3,0,0.4-0.1c0.1,0,0.2-0.1,0.2-0.1
			c0.1,0,0.1-0.1,0.2-0.1c0.1,0,0.1-0.1,0.2-0.1c0.1,0,0.2,0,0.3,0.1l0.4,0.5c-0.1,0.2-0.3,0.3-0.5,0.4c-0.2,0.1-0.3,0.2-0.5,0.2
			c-0.2,0.1-0.3,0.1-0.5,0.1c-0.2,0-0.3,0-0.5,0c-0.3,0-0.6-0.1-0.8-0.2c-0.3-0.1-0.5-0.3-0.7-0.5s-0.4-0.5-0.5-0.8
			c-0.1-0.3-0.2-0.7-0.2-1.1c0-0.3,0-0.7,0.2-1c0.1-0.3,0.3-0.6,0.5-0.8c0.2-0.2,0.4-0.4,0.7-0.5c0.3-0.1,0.6-0.2,1-0.2
			c0.4,0,0.7,0.1,1,0.2c0.3,0.1,0.5,0.3,0.8,0.5L63.3,16.8z"/>
		<path class="st0" d="M67.7,20.4c-0.1,0-0.2,0-0.3-0.1c-0.1,0-0.1-0.1-0.2-0.2l-0.1-0.3c-0.1,0.1-0.2,0.2-0.3,0.3
			c-0.1,0.1-0.2,0.1-0.3,0.2c-0.1,0.1-0.2,0.1-0.4,0.1c-0.1,0-0.3,0-0.4,0c-0.2,0-0.4,0-0.6-0.1s-0.3-0.1-0.5-0.3
			c-0.1-0.1-0.2-0.2-0.3-0.4c-0.1-0.2-0.1-0.4-0.1-0.6c0-0.2,0-0.3,0.1-0.5c0.1-0.2,0.2-0.3,0.4-0.5c0.2-0.1,0.5-0.3,0.9-0.4
			c0.4-0.1,0.8-0.1,1.4-0.1v-0.2c0-0.3-0.1-0.5-0.2-0.6c-0.1-0.1-0.3-0.2-0.5-0.2c-0.2,0-0.3,0-0.4,0.1s-0.2,0.1-0.3,0.1
			c-0.1,0-0.2,0.1-0.2,0.1C65.2,17,65.1,17,65,17c-0.1,0-0.2,0-0.3-0.1c-0.1,0-0.1-0.1-0.2-0.2l-0.3-0.4c0.3-0.3,0.6-0.4,1-0.6
			c0.4-0.1,0.7-0.2,1.1-0.2c0.3,0,0.5,0,0.8,0.1c0.2,0.1,0.4,0.2,0.6,0.4c0.2,0.2,0.3,0.4,0.4,0.6c0.1,0.2,0.1,0.5,0.1,0.8v3
			L67.7,20.4L67.7,20.4z M66,19.6c0.2,0,0.3,0,0.5-0.1c0.1-0.1,0.3-0.2,0.4-0.3v-0.7c-0.3,0-0.5,0-0.7,0.1c-0.2,0-0.3,0.1-0.4,0.1
			c-0.1,0.1-0.2,0.1-0.2,0.2c0,0.1-0.1,0.1-0.1,0.2c0,0.2,0,0.3,0.1,0.3C65.7,19.5,65.9,19.6,66,19.6z"/>
		<path class="st0" d="M70.8,13.5v6.9h-1.4v-6.9H70.8z"/>
		<path class="st0" d="M78.3,18.7c0,0,0.1,0,0.1,0c0,0,0.1,0,0.1,0.1l0.6,0.7c-0.3,0.4-0.6,0.6-1,0.8c-0.4,0.2-0.9,0.3-1.5,0.3
			c-0.5,0-1-0.1-1.4-0.3c-0.4-0.2-0.7-0.4-1-0.7c-0.3-0.3-0.5-0.7-0.6-1.1c-0.2-0.4-0.2-0.9-0.2-1.4c0-0.5,0.1-1,0.3-1.4
			c0.2-0.4,0.4-0.8,0.7-1.1c0.3-0.3,0.7-0.5,1.1-0.7c0.4-0.2,0.9-0.3,1.4-0.3c0.3,0,0.5,0,0.7,0.1s0.4,0.1,0.6,0.2s0.4,0.2,0.5,0.3
			c0.2,0.1,0.3,0.2,0.4,0.4l-0.5,0.7c0,0-0.1,0.1-0.1,0.1s-0.1,0.1-0.2,0.1c-0.1,0-0.1,0-0.2,0c0,0-0.1-0.1-0.2-0.1
			c-0.1,0-0.1-0.1-0.2-0.1c-0.1,0-0.1-0.1-0.2-0.1c-0.1,0-0.2-0.1-0.3-0.1c-0.1,0-0.3,0-0.4,0c-0.3,0-0.5,0-0.8,0.1
			s-0.4,0.2-0.6,0.4c-0.2,0.2-0.3,0.4-0.4,0.7C75,16.4,75,16.7,75,17.1c0,0.3,0,0.7,0.1,0.9c0.1,0.3,0.2,0.5,0.4,0.7
			c0.2,0.2,0.4,0.3,0.6,0.4c0.2,0.1,0.4,0.1,0.7,0.1c0.1,0,0.3,0,0.4,0c0.1,0,0.2,0,0.3-0.1c0.1,0,0.2-0.1,0.3-0.1
			c0.1-0.1,0.2-0.1,0.3-0.2c0,0,0.1-0.1,0.1-0.1C78.2,18.7,78.2,18.7,78.3,18.7z"/>
		<path class="st0" d="M81.3,13.5v6.9h-1.4v-6.9H81.3z"/>
		<path class="st0" d="M84.1,14.3c0,0.1,0,0.2-0.1,0.3c0,0.1-0.1,0.2-0.2,0.3c-0.1,0.1-0.2,0.1-0.3,0.2c-0.1,0-0.2,0.1-0.3,0.1
			c-0.1,0-0.2,0-0.3-0.1c-0.1,0-0.2-0.1-0.3-0.2c-0.1-0.1-0.1-0.2-0.2-0.3c0-0.1-0.1-0.2-0.1-0.3s0-0.2,0.1-0.3
			c0-0.1,0.1-0.2,0.2-0.3c0.1-0.1,0.2-0.1,0.3-0.2c0.1,0,0.2-0.1,0.3-0.1c0.1,0,0.2,0,0.3,0.1c0.1,0,0.2,0.1,0.3,0.2
			c0.1,0.1,0.1,0.2,0.2,0.3C84.1,14.1,84.1,14.2,84.1,14.3z M84,15.6v4.8h-1.4v-4.8H84z"/>
		<path class="st0" d="M85.1,20.4v-4.8H86c0.1,0,0.2,0,0.2,0.1c0.1,0,0.1,0.1,0.1,0.2l0.1,0.3c0.1-0.1,0.2-0.2,0.3-0.2
			c0.1-0.1,0.2-0.1,0.3-0.2c0.1,0,0.2-0.1,0.4-0.1c0.1,0,0.3,0,0.4,0c0.3,0,0.5,0,0.7,0.1c0.2,0.1,0.4,0.2,0.5,0.4
			c0.1,0.2,0.2,0.4,0.3,0.6s0.1,0.5,0.1,0.7v3H88v-3c0-0.2-0.1-0.4-0.2-0.5c-0.1-0.1-0.3-0.2-0.5-0.2c-0.2,0-0.3,0-0.4,0.1
			c-0.1,0.1-0.3,0.2-0.4,0.3v3.4L85.1,20.4L85.1,20.4z"/>
		<path class="st0" d="M92.1,14.3c0,0.1,0,0.2-0.1,0.3c0,0.1-0.1,0.2-0.2,0.3c-0.1,0.1-0.2,0.1-0.3,0.2c-0.1,0-0.2,0.1-0.3,0.1
			c-0.1,0-0.2,0-0.3-0.1c-0.1,0-0.2-0.1-0.3-0.2c-0.1-0.1-0.1-0.2-0.2-0.3c0-0.1-0.1-0.2-0.1-0.3s0-0.2,0.1-0.3
			c0-0.1,0.1-0.2,0.2-0.3c0.1-0.1,0.2-0.1,0.3-0.2c0.1,0,0.2-0.1,0.3-0.1c0.1,0,0.2,0,0.3,0.1c0.1,0,0.2,0.1,0.3,0.2
			c0.1,0.1,0.1,0.2,0.2,0.3C92.1,14.1,92.1,14.2,92.1,14.3z M92,15.6v4.8h-1.4v-4.8H92z"/>
		<path class="st0" d="M96.6,16.8c0,0.1-0.1,0.1-0.1,0.1c0,0-0.1,0-0.2,0c-0.1,0-0.1,0-0.2,0c-0.1,0-0.1-0.1-0.2-0.1
			s-0.2-0.1-0.2-0.1c-0.1,0-0.2,0-0.4,0c-0.2,0-0.3,0-0.5,0.1c-0.1,0.1-0.2,0.2-0.3,0.3c-0.1,0.1-0.1,0.3-0.2,0.4
			c0,0.2-0.1,0.4-0.1,0.6c0,0.5,0.1,0.8,0.3,1.1c0.2,0.2,0.4,0.4,0.7,0.4c0.2,0,0.3,0,0.4-0.1c0.1,0,0.2-0.1,0.2-0.1
			c0.1,0,0.1-0.1,0.2-0.1c0.1,0,0.1-0.1,0.2-0.1c0.1,0,0.2,0,0.3,0.1l0.4,0.5c-0.1,0.2-0.3,0.3-0.5,0.4c-0.2,0.1-0.3,0.2-0.5,0.2
			c-0.2,0.1-0.3,0.1-0.5,0.1c-0.2,0-0.3,0-0.5,0c-0.3,0-0.6-0.1-0.8-0.2c-0.3-0.1-0.5-0.3-0.7-0.5c-0.2-0.2-0.4-0.5-0.5-0.8
			c-0.1-0.3-0.2-0.7-0.2-1.1c0-0.3,0-0.7,0.2-1c0.1-0.3,0.3-0.6,0.5-0.8c0.2-0.2,0.4-0.4,0.7-0.5c0.3-0.1,0.6-0.2,1-0.2
			c0.4,0,0.7,0.1,1,0.2c0.3,0.1,0.5,0.3,0.8,0.5L96.6,16.8z"/>
	</g>
</g>
</svg>
