<svg id="Isolation_Mode" data-name="Isolation Mode" xmlns="http://www.w3.org/2000/svg" viewBox="0 0 175.63 170.11"><defs><style>.cls-1,.cls-3{fill:#407bff;}.cls-1{opacity:0.2;isolation:isolate;}.cls-2{fill:#39f;}.cls-4{fill:#117bd3;}</style></defs><title>analytics</title><path class="cls-1" d="M9.3,117.31c8.33,12.55,33,14.49,43.43,7,14.84-10.64,14-38.75,29.45-48.71,28.36-18.3,63,32,84.94-18v93.3H9.3Z"/><path class="cls-2" d="M36,128.92a44.41,44.41,0,0,1-8-.72c-8.61-1.57-15.33-5.4-18.89-10.76a.23.23,0,0,1,.11-.3.21.21,0,0,1,.26,0c3.45,5.18,10.23,9,18.6,10.57,9.41,1.72,19,.3,24.51-3.64,7.24-5.18,10.8-14.73,14.24-24,3.59-9.65,7.32-19.62,15.23-24.74,11.69-7.55,24.48-3.51,36.85.38,18.06,5.7,35.13,11.07,48-18.25a.22.22,0,0,1,.31-.07.21.21,0,0,1,.1.25c-5.93,13.51-13.07,20.65-22.44,22.48-8.26,1.62-16.93-1.11-26.1-4-12.27-3.87-25-7.84-36.48-.42-7.79,5-11.5,14.93-15,24.51-3.47,9.3-7,18.92-14.39,24.18C48.84,127.36,42.67,128.92,36,128.92Z"/><rect class="cls-3" y="105.44" width="22.37" height="45.49"/><rect class="cls-4" y="105.44" width="22.37" height="45.49"/><rect class="cls-3" x="36.83" y="120.03" width="22.37" height="30.91"/><rect class="cls-4" x="36.83" y="120.03" width="22.37" height="30.91"/><rect class="cls-3" x="73.66" y="93.91" width="22.37" height="57.02"/><rect class="cls-4" x="73.66" y="93.91" width="22.37" height="57.02"/><rect class="cls-3" x="110.49" y="62.58" width="22.37" height="88.35"/><rect class="cls-4" x="110.49" y="62.58" width="22.37" height="88.35"/><rect class="cls-3" x="147.32" y="19.18" width="22.37" height="131.76"/><rect class="cls-4" x="147.32" y="19.18" width="22.37" height="131.76"/><rect class="cls-3" x="5.94" y="105.44" width="22.37" height="45.49"/><rect class="cls-2" x="5.94" y="105.44" width="22.37" height="45.49"/><rect class="cls-3" x="42.77" y="120.03" width="22.37" height="30.91"/><rect class="cls-2" x="42.77" y="120.03" width="22.37" height="30.91"/><rect class="cls-3" x="79.6" y="93.91" width="22.37" height="57.02"/><rect class="cls-2" x="79.6" y="93.91" width="22.37" height="57.02"/><rect class="cls-3" x="116.43" y="62.58" width="22.37" height="88.35"/><rect class="cls-2" x="116.43" y="62.58" width="22.37" height="88.35"/><rect class="cls-3" x="153.26" y="19.18" width="22.37" height="131.76"/><rect class="cls-2" x="153.26" y="19.18" width="22.37" height="131.76"/><path class="cls-3" d="M129.51,37.65a7.67,7.67,0,0,0-10.85,10.84l5.43,5.42,5.41-5.42a7.66,7.66,0,0,0,0-10.84Z"/><path class="cls-2" d="M129.51,37.65a7.67,7.67,0,0,0-10.85,10.84l5.43,5.42,5.41-5.42a7.66,7.66,0,0,0,0-10.84Z"/></svg>