<svg id="Isolation_Mode" data-name="Isolation Mode" xmlns="http://www.w3.org/2000/svg" viewBox="0 0 175.63 170.11"><defs><style>.cls-1,.cls-3{opacity:0.9;}.cls-1,.cls-3,.cls-5,.cls-8,.cls-9{isolation:isolate;}.cls-2,.cls-3{fill:#005bb5;}.cls-4,.cls-9{fill:#407bff;}.cls-11,.cls-5{fill:#fff;}.cls-5{opacity:0.5;}.cls-6{fill:#c6ebff;}.cls-7{fill:#39f;}.cls-8{opacity:0.2;}.cls-9{opacity:0.3;}.cls-10{fill:#f0f0f0;}.cls-12{fill:#e0e0e0;}</style></defs><title>bills</title><g id="freepik--background-simple--inject-164" class="cls-1"><path class="cls-2" d="M173,113.57c8.33-19.47-3.8-45.4-23.83-56.22-17.47-9.41-33-1.66-49.39-16.23C84.46,27.56,74.59,10.49,50.48,11.64c-19,.89-29.4,15.46-38.14,31.1C-11.59,85.53.87,115.82,45.72,134.18c21.44,8.8,49,17,72.31,16.3C146,149.63,162.63,137.72,173,113.57Z"/><path class="cls-3" d="M173,113.57c8.33-19.47-3.8-45.4-23.83-56.22-17.47-9.41-33-1.66-49.39-16.23C84.46,27.56,74.59,10.49,50.48,11.64c-19,.89-29.4,15.46-38.14,31.1C-11.59,85.53.87,115.82,45.72,134.18c21.44,8.8,49,17,72.31,16.3C146,149.63,162.63,137.72,173,113.57Z"/></g><g id="freepik--Invoice--inject-164"><path class="cls-4" d="M130.69,164H39.78a6.38,6.38,0,0,1-6.45-6.3,4.85,4.85,0,0,1,0-.66L44.49,11a7.65,7.65,0,0,1,7.5-7H142.9a6.38,6.38,0,0,1,6.46,6.29c0,.22,0,.45,0,.67L138.2,157A7.69,7.69,0,0,1,130.69,164Z"/><path class="cls-5" d="M130.69,164H39.78a6.38,6.38,0,0,1-6.45-6.3,4.85,4.85,0,0,1,0-.66L44.49,11a7.65,7.65,0,0,1,7.5-7H142.9a6.38,6.38,0,0,1,6.46,6.29c0,.22,0,.45,0,.67L138.2,157A7.69,7.69,0,0,1,130.69,164Z"/><path class="cls-4" d="M129.35,164H38.43a6.38,6.38,0,0,1-6.46-6.3q0-.33,0-.66L43.14,11a7.65,7.65,0,0,1,7.5-7h90.91A6.36,6.36,0,0,1,148,10.36a5,5,0,0,1,0,.67L136.85,157A7.67,7.67,0,0,1,129.35,164Z"/><path class="cls-6" d="M129.35,164H38.43a6.38,6.38,0,0,1-6.46-6.3q0-.33,0-.66L43.14,11a7.65,7.65,0,0,1,7.5-7h90.91A6.36,6.36,0,0,1,148,10.36a5,5,0,0,1,0,.67L136.85,157A7.67,7.67,0,0,1,129.35,164Z"/><path class="cls-7" d="M38.61,161.65a4.25,4.25,0,0,1-4.31-4.18c0-.16,0-.31,0-.46l11-144a5.09,5.09,0,0,1,5-4.64h90.91a4.23,4.23,0,0,1,4.3,4.17,3.69,3.69,0,0,1,0,.47l-11,144a5.12,5.12,0,0,1-5,4.64Z"/><path class="cls-8" d="M128.88,32.55H63.82a2.51,2.51,0,0,1-2.55-2.48,2.44,2.44,0,0,1,0-.27h0a3,3,0,0,1,3-2.75H129.3a2.52,2.52,0,0,1,2.54,2.75h0A3,3,0,0,1,128.88,32.55Z"/><path class="cls-9" d="M101.13,6.9H90.62A.62.62,0,0,1,90,6.29V6.23h0a.75.75,0,0,1,.73-.68h10.51a.63.63,0,0,1,.63.62.13.13,0,0,1,0,.06h0A.72.72,0,0,1,101.13,6.9Z"/><path class="cls-10" d="M63.52,29.8a7,7,0,0,0-6.26-7.58,5,5,0,0,0-.77,0h66.05A7,7,0,0,1,129.61,29a6.74,6.74,0,0,1,0,.77Z"/><path class="cls-11" d="M56.5,22.19a8.37,8.37,0,0,0-8.2,7.61l-6.76,88.71a8.36,8.36,0,0,1-8.2,7.61H99.4a8.37,8.37,0,0,0,8.2-7.61l6.77-88.71a8.34,8.34,0,0,1,8.19-7.61Z"/><path class="cls-10" d="M92.36,118.51a7,7,0,0,0,6.26,7.58,5,5,0,0,0,.77,0H33.33a7,7,0,0,1-7.06-6.84c0-.26,0-.51,0-.77Z"/><path class="cls-12" d="M53.69,116.76c.26-3.24-.76-5.86-4-5.86h50.86c3.24,0,5.68,3,4,5.86Z"/><path class="cls-10" d="M92.36,118.51a8.35,8.35,0,0,1,8.19-7.63h-66a8.36,8.36,0,0,0-8.2,7.61Z"/><path class="cls-11" d="M123.59,140.5H47.77a1.82,1.82,0,0,1-1.86-1.8,1.15,1.15,0,0,1,0-.19h0a2.2,2.2,0,0,1,2.15-2H123.9a1.83,1.83,0,0,1,1.85,1.81,1.28,1.28,0,0,1,0,.19h0A2.2,2.2,0,0,1,123.59,140.5Z"/><path class="cls-11" d="M85.3,150.11H47a1.82,1.82,0,0,1-1.85-1.79,1.48,1.48,0,0,1,0-.21h0a2.2,2.2,0,0,1,2.15-2H85.6a1.85,1.85,0,0,1,1.86,1.81,1.21,1.21,0,0,1,0,.19h0A2.2,2.2,0,0,1,85.3,150.11Z"/><path class="cls-11" d="M111.8,150.11H96.29a1.83,1.83,0,0,1-1.85-1.79,1.48,1.48,0,0,1,0-.21h0a2.21,2.21,0,0,1,2.15-2h15.5a1.84,1.84,0,0,1,1.85,1.82v.18h0A2.2,2.2,0,0,1,111.8,150.11Z"/><path class="cls-11" d="M127.3,112.1l-4,.62a3.79,3.79,0,0,0-.45-1,2.33,2.33,0,0,0-.74-.59l-.23,3a10.51,10.51,0,0,1,4.13,1.8,3.85,3.85,0,0,1,1.17,3.22,4.64,4.64,0,0,1-.67,2.11,5.44,5.44,0,0,1-1.43,1.59,5.59,5.59,0,0,1-1.75.94,8.93,8.93,0,0,1-2.24.34l-.15,2H119.5l.15-2a9.12,9.12,0,0,1-2.47-.5,4.6,4.6,0,0,1-1.6-1,4.47,4.47,0,0,1-1-1.39,6.09,6.09,0,0,1-.43-1.79l4.28-.49a3.88,3.88,0,0,0,.39,1.5,2.35,2.35,0,0,0,1,.82l.28-3.71a19.18,19.18,0,0,1-2.93-1,3.68,3.68,0,0,1-1.44-1.38,3.84,3.84,0,0,1-.47-2.32,4.55,4.55,0,0,1,1.55-3.13,6.3,6.3,0,0,1,4-1.39l.07-1h1.54l-.08,1a6.09,6.09,0,0,1,3.52,1.12A4.11,4.11,0,0,1,127.3,112.1Zm-6.68-1a2.19,2.19,0,0,0-1,.56,1.27,1.27,0,0,0-.32.77,1.18,1.18,0,0,0,.21.81,1.83,1.83,0,0,0,.88.56Zm.74,10.35a2.76,2.76,0,0,0,1.36-.66,1.63,1.63,0,0,0,.5-1,1.35,1.35,0,0,0-.28-.91,2.85,2.85,0,0,0-1.32-.77Z"/><path class="cls-7" d="M52.73,46.88h1.88L54.15,53H52.27Z"/><path class="cls-7" d="M56,46.88h1.75l2,3.36L60,46.88h1.77L61.32,53H59.55l-2-3.36L57.27,53H55.51Z"/><path class="cls-7" d="M62.43,46.88h2l1,4.38,1.68-4.38H69L66.32,53h-2Z"/><path class="cls-7" d="M68.88,49.92a3.14,3.14,0,0,1,3.38-3.14,3,3,0,0,1,2.28.81,2.89,2.89,0,0,1,.64,2.28,3.84,3.84,0,0,1-.49,1.75,2.85,2.85,0,0,1-1.12,1.06,3.57,3.57,0,0,1-1.72.38,3.61,3.61,0,0,1-1.68-.33,2.24,2.24,0,0,1-1-1A3.31,3.31,0,0,1,68.88,49.92Zm1.88,0A1.93,1.93,0,0,0,71,51.25a1.08,1.08,0,0,0,.9.4,1.28,1.28,0,0,0,1-.39,2.31,2.31,0,0,0,.44-1.41,1.74,1.74,0,0,0-.25-1.26,1.09,1.09,0,0,0-.9-.4,1.23,1.23,0,0,0-1,.41,2.13,2.13,0,0,0-.44,1.33Z"/><path class="cls-7" d="M76.49,46.88h1.89L77.92,53H76Z"/><path class="cls-7" d="M83.5,50.47l1.6.5a3.19,3.19,0,0,1-.61,1.15,2.36,2.36,0,0,1-.93.7,3.2,3.2,0,0,1-1.37.24,3.77,3.77,0,0,1-1.59-.29,2.24,2.24,0,0,1-1-1,3.2,3.2,0,0,1-.31-1.85,3.35,3.35,0,0,1,1-2.33,3.24,3.24,0,0,1,2.33-.8,2.88,2.88,0,0,1,1.76.46,2.42,2.42,0,0,1,.87,1.42L83.54,49a1.49,1.49,0,0,0-.15-.4A1,1,0,0,0,83,48.3a1.08,1.08,0,0,0-.5-.12,1.18,1.18,0,0,0-1,.52,2.36,2.36,0,0,0-.35,1.19,2.23,2.23,0,0,0,.21,1.39,1,1,0,0,0,.83.37,1.13,1.13,0,0,0,.84-.3A2.07,2.07,0,0,0,83.5,50.47Z"/><path class="cls-7" d="M86.32,46.88h5l-.09,1.3H88.12l-.08,1H91l-.1,1.23H87.93l-.09,1.2h3.24L91,53H85.85Z"/><polygon class="cls-7" points="106.27 60.81 51.67 60.81 51.78 59.3 106.38 59.3 106.27 60.81"/><polygon class="cls-10" points="106.27 60.81 51.67 60.81 51.31 65.45 105.91 65.45 106.27 60.81"/><polygon class="cls-10" points="105.56 70.08 50.96 70.08 50.6 74.72 105.21 74.72 105.56 70.08"/><polygon class="cls-10" points="104.85 79.35 50.25 79.35 49.9 83.99 104.5 83.99 104.85 79.35"/><polygon class="cls-10" points="104.14 88.63 49.54 88.63 49.19 93.26 103.79 93.26 104.14 88.63"/><polygon class="cls-7" points="103.32 99.42 48.72 99.42 48.84 97.9 103.44 97.9 103.32 99.42"/><polygon class="cls-10" points="97.07 32.55 108.42 32.55 107.91 39.32 96.56 39.32 97.07 32.55"/></g></svg>