<svg id="Isolation_Mode" data-name="Isolation Mode" xmlns="http://www.w3.org/2000/svg" viewBox="0 0 175.63 170.11"><defs><style>.cls-1,.cls-3{opacity:0.9;}.cls-1,.cls-3,.cls-6{isolation:isolate;}.cls-2,.cls-3{fill:#005bb5;}.cls-4{fill:#ddd;}.cls-5{fill:#39f;}.cls-6{opacity:0.5;}.cls-7{fill:#fff;}.cls-8{fill:#e0e0e0;}.cls-9{fill:#c6ebff;}</style></defs><title>prescreption</title><g id="freepik--background-simple--inject-179" class="cls-1"><path class="cls-2" d="M71.66,68.4c14.91-10.83,19-31.62,35.2-41,14.29-8.27,39.82-10.45,54.3-1.21,16.13,10.3,17.76,31,8.26,46.66-10.45,17.22-30.89,19.3-47.51,27.49-29.1,14.37-89.08,63.79-116.63,18-8.55-14.2-8.14-44.65,11.91-48.95C36.47,65.28,50.65,83.64,71.66,68.4Z"/><path class="cls-3" d="M71.66,68.4c14.91-10.83,19-31.62,35.2-41,14.29-8.27,39.82-10.45,54.3-1.21,16.13,10.3,17.76,31,8.26,46.66-10.45,17.22-30.89,19.3-47.51,27.49-29.1,14.37-89.08,63.79-116.63,18-8.55-14.2-8.14-44.65,11.91-48.95C36.47,65.28,50.65,83.64,71.66,68.4Z"/></g><g id="freepik--Survey--inject-179"><polygon class="cls-4" points="138.23 11.86 29.78 11.86 38.21 159.55 146.65 159.55 138.23 11.86"/><polygon class="cls-5" points="140.34 11.86 31.89 11.86 40.32 159.55 148.77 159.55 140.34 11.86"/><path class="cls-6" d="M132.87,16.82h-96l6.88,133.69h98.52Z"/><path class="cls-7" d="M36.85,16.82C44,61.39,39.09,106,46.24,150.51h98.5C137.6,106,142.5,61.39,135.35,16.82Z"/><path class="cls-8" d="M101.18,119.28H70.08a1.64,1.64,0,0,0-1.66,1.61,1.48,1.48,0,0,0,0,.21h0a2.07,2.07,0,0,0,2,1.83h31.1a1.64,1.64,0,0,0,1.66-1.6,1.79,1.79,0,0,0,0-.23h0A2,2,0,0,0,101.18,119.28Z"/><path class="cls-8" d="M117.82,111.62H69.45a1.68,1.68,0,0,0-1.69,1.63,1.15,1.15,0,0,0,0,.19h0a2,2,0,0,0,2,1.83h48.34a1.67,1.67,0,0,0,1.71-1.62v-.19h0A2,2,0,0,0,117.82,111.62Z"/><path class="cls-8" d="M83.92,52.13H67.28a1.92,1.92,0,0,1-1.89-1.83h0a1.77,1.77,0,0,1,1.7-1.82H83.78a1.93,1.93,0,0,1,1.91,1.82h0A1.78,1.78,0,0,1,84,52.13Z"/><path class="cls-8" d="M103.12,52.13H91.85A1.91,1.91,0,0,1,90,50.3h0a1.77,1.77,0,0,1,1.7-1.82H103a1.92,1.92,0,0,1,1.9,1.82h0a1.78,1.78,0,0,1-1.7,1.83Z"/><path class="cls-8" d="M112.21,59.79H67.55A1.9,1.9,0,0,1,65.66,58h0a1.77,1.77,0,0,1,1.7-1.82h44.72A1.88,1.88,0,0,1,114,58h0a1.75,1.75,0,0,1-1.69,1.82Z"/><path class="cls-8" d="M119.83,87.71H68.3a1.76,1.76,0,0,0-1.76,1.76v.06h0a1.91,1.91,0,0,0,1.89,1.82H120a1.76,1.76,0,0,0,1.76-1.76v-.06h0A1.89,1.89,0,0,0,119.83,87.71Z"/><path class="cls-8" d="M107.62,80.05H68.08a1.76,1.76,0,0,0-1.76,1.76v.07h0a1.87,1.87,0,0,0,1.87,1.81h39.55a1.75,1.75,0,0,0,1.76-1.76v-.05h0A1.88,1.88,0,0,0,107.62,80.05Z"/><path class="cls-7" d="M76.62,37.51a2.5,2.5,0,0,1-2.21,2.76h-.32a3.09,3.09,0,0,1-3-2.77,2.5,2.5,0,0,1,2.19-2.75,1.82,1.82,0,0,1,.33,0A3.09,3.09,0,0,1,76.62,37.51Z"/><path class="cls-9" d="M117,17.2a11.85,11.85,0,0,0-10.71-6.4H96.94a3.7,3.7,0,0,1-3.26-1.71c-1.3-2.45-4.43-4.2-8-4.2s-6.46,1.76-7.49,4.2a3.2,3.2,0,0,1-3.06,1.71H65.77c-4.61,0-8.59,2.55-10,6.4a1,1,0,0,0-.06.43,1.18,1.18,0,0,0,1.18,1.11h59.2a1,1,0,0,0,1-1A1.07,1.07,0,0,0,117,17.2ZM86.09,11.86a2.8,2.8,0,0,1-2.74-2.61,2.44,2.44,0,0,1,2.27-2.61h.19a2.79,2.79,0,0,1,2.77,2.61,2.44,2.44,0,0,1-2.27,2.6Z"/></g></svg>