<svg id="Isolation_Mode" data-name="Isolation Mode" xmlns="http://www.w3.org/2000/svg" viewBox="0 0 175.63 170.11"><defs><style>.cls-1,.cls-2{fill:#005bb5;}.cls-2{opacity:0.9;}.cls-11,.cls-2,.cls-6,.cls-8{isolation:isolate;}.cls-3{fill:#39f;}.cls-4{fill:#c6ebff;}.cls-11,.cls-5{fill:#407bff;}.cls-10,.cls-6,.cls-8{fill:#fff;}.cls-6{opacity:0.7;}.cls-11,.cls-7{opacity:0.4;}.cls-8{opacity:0.8;}.cls-9{fill:#ffc3bd;}</style></defs><title>records</title><g id="freepik--background-simple--inject-216"><path class="cls-1" d="M2.76,59C-10.68,112.1,58.59,82.05,80,87.67c15.34,4,29.08,33.17,50.16,35.28,22.14,2.22,40.38-17.34,44.26-35.74,5.88-27.81-31.27-86.19-67.33-83C79.71,6.58,81.49,43.82,55.68,49.94,39.45,53.74,10.07,30.12,2.76,59Z"/><path class="cls-2" d="M2.76,59C-10.68,112.1,58.59,82.05,80,87.67c15.34,4,29.08,33.17,50.16,35.28,22.14,2.22,40.38-17.34,44.26-35.74,5.88-27.81-31.27-86.19-67.33-83C79.71,6.58,81.49,43.82,55.68,49.94,39.45,53.74,10.07,30.12,2.76,59Z"/></g><g id="freepik--Folder--inject-216"><rect class="cls-3" x="1.93" y="84.33" width="0.64" height="9.74" transform="translate(-10.34 0.87) rotate(-6.67)"/><rect class="cls-3" x="3.21" y="97.62" width="0.64" height="4.91" transform="translate(-11.6 1.09) rotate(-6.67)"/><path class="cls-4" d="M45.84,64.6l-.76-2.12A6.81,6.81,0,0,0,37.86,58l-30,3.51a6.83,6.83,0,0,0-6,7.58l8.54,73.09a4.7,4.7,0,0,0,5.19,4.11h0L123,133.71a4.68,4.68,0,0,0,4.12-5.18v0l-7.41-63.18a4.69,4.69,0,0,0-5.2-4.11l-62.4,7.3A6,6,0,0,1,45.84,64.6Z"/><rect class="cls-5" x="19.21" y="35.74" width="34.62" height="47.7" transform="translate(-10.94 8.29) rotate(-11.27)"/><rect class="cls-6" x="19.21" y="35.74" width="34.62" height="47.7" transform="translate(-10.94 8.29) rotate(-11.27)"/><g class="cls-7"><path class="cls-5" d="M44.31,44.05,23.39,48.23a1.88,1.88,0,0,1-2.2-1.48h0a1.87,1.87,0,0,1,1.47-2.2L43.58,40.4a1.88,1.88,0,0,1,2.21,1.47h0A1.89,1.89,0,0,1,44.31,44.05Z"/><path class="cls-5" d="M45.84,51.8,24.93,56a1.88,1.88,0,0,1-2.2-1.47h0a1.89,1.89,0,0,1,1.47-2.2l20.92-4.16a1.88,1.88,0,0,1,2.2,1.47h0A1.89,1.89,0,0,1,45.84,51.8Z"/><path class="cls-5" d="M47.38,59.54,26.47,63.7a1.88,1.88,0,0,1-2.2-1.47h0A1.89,1.89,0,0,1,25.74,60l20.92-4.17a1.87,1.87,0,0,1,2.19,1.47h0A1.88,1.88,0,0,1,47.38,59.54Z"/><path class="cls-5" d="M48.93,67.3,28,71.47A1.89,1.89,0,0,1,25.81,70h0a1.89,1.89,0,0,1,1.47-2.21l20.91-4.16A1.89,1.89,0,0,1,50.4,65.1h0A1.88,1.88,0,0,1,48.93,67.3Z"/><path class="cls-5" d="M44.75,76.15l-15.19,3a1.88,1.88,0,0,1-2.2-1.47h0a1.88,1.88,0,0,1,1.47-2.2l15.19-3a1.89,1.89,0,0,1,2.2,1.47h0A1.89,1.89,0,0,1,44.75,76.15Z"/></g><rect class="cls-5" x="65.99" y="25.93" width="34.62" height="47.7" transform="translate(-5.98 11.75) rotate(-7.79)"/><rect class="cls-6" x="65.99" y="25.93" width="34.62" height="47.7" transform="translate(-5.98 11.75) rotate(-7.79)"/><g class="cls-7"><path class="cls-5" d="M92,34.75,70.88,37.64A1.88,1.88,0,0,1,68.77,36h0a1.88,1.88,0,0,1,1.6-2.11L91.5,31a1.88,1.88,0,0,1,2.11,1.6h0A1.89,1.89,0,0,1,92,34.75Z"/><path class="cls-5" d="M93.08,42.56,72,45.45a1.87,1.87,0,0,1-2.11-1.6h0a1.88,1.88,0,0,1,1.6-2.1l21.13-2.89a1.88,1.88,0,0,1,2.11,1.59h0A1.88,1.88,0,0,1,93.08,42.56Z"/><path class="cls-5" d="M78.84,52.47l-5.82.8a1.87,1.87,0,0,1-2.11-1.6h0a1.88,1.88,0,0,1,1.6-2.11l5.82-.8a1.89,1.89,0,0,1,2.11,1.6h0A1.88,1.88,0,0,1,78.84,52.47Z"/><path class="cls-5" d="M90.13,50.93l-5.83.8a1.88,1.88,0,0,1-2.1-1.61h0A1.88,1.88,0,0,1,83.8,48l5.82-.79a1.89,1.89,0,0,1,2.11,1.6h0A1.88,1.88,0,0,1,90.13,50.93Z"/><path class="cls-5" d="M95.21,58.19,74.09,61.08A1.89,1.89,0,0,1,72,59.48h0a1.9,1.9,0,0,1,1.61-2.11L94.7,54.48a1.87,1.87,0,0,1,2.11,1.6h0A1.88,1.88,0,0,1,95.21,58.19Z"/><path class="cls-5" d="M90.51,66.79l-15.36,2.1a1.88,1.88,0,0,1-2.1-1.59h0a1.88,1.88,0,0,1,1.59-2.11L90,63.09a1.89,1.89,0,0,1,2.11,1.59h0A1.88,1.88,0,0,1,90.51,66.79Z"/></g><rect class="cls-5" x="32.36" y="32.11" width="34.62" height="47.7" transform="translate(-4.67 4.52) rotate(-4.98)"/><rect class="cls-8" x="32.36" y="32.11" width="34.62" height="47.7" transform="translate(-4.67 4.52) rotate(-4.98)"/><g class="cls-7"><path class="cls-5" d="M59.11,41.39,37.86,43.24a1.9,1.9,0,0,1-2-1.71h0a1.89,1.89,0,0,1,1.71-2l21.24-1.89a1.89,1.89,0,0,1,2,1.71h0a1.88,1.88,0,0,1-1.69,2.06Z"/><path class="cls-5" d="M59.8,49.24,38.55,51.13a1.89,1.89,0,0,1-2-1.7h0a1.88,1.88,0,0,1,1.7-2l21.25-1.89a1.89,1.89,0,0,1,2,1.7h0A1.89,1.89,0,0,1,59.8,49.24Z"/><path class="cls-5" d="M60.48,57.1,39.23,59a1.88,1.88,0,0,1-2-1.7h0a1.89,1.89,0,0,1,1.71-2l21.24-1.88a1.87,1.87,0,0,1,2,1.7h0A1.88,1.88,0,0,1,60.48,57.1Z"/><path class="cls-5" d="M61.18,65,39.93,66.84a1.89,1.89,0,0,1-2-1.7h0a1.89,1.89,0,0,1,1.7-2l21.25-1.85a1.88,1.88,0,0,1,2,1.7h0A1.88,1.88,0,0,1,61.18,65Z"/><path class="cls-5" d="M56,73.32,40.6,74.66a1.87,1.87,0,0,1-2-1.7h0a1.88,1.88,0,0,1,1.7-2L55.7,69.58a1.89,1.89,0,0,1,2,1.71h0A1.9,1.9,0,0,1,56,73.32Z"/></g><rect class="cls-5" x="73.42" y="29.19" width="34.62" height="47.7" transform="matrix(1, -0.05, 0.05, 1, -2.45, 4.43)"/><rect class="cls-8" x="73.42" y="29.19" width="34.62" height="47.7" transform="matrix(1, -0.05, 0.05, 1, -2.45, 4.43)"/><g class="cls-7"><path class="cls-5" d="M100.73,38.84l-21.3,1a1.89,1.89,0,0,1-2-1.78h0a1.89,1.89,0,0,1,1.78-2l21.3-1a1.88,1.88,0,0,1,2,1.78h0A1.88,1.88,0,0,1,100.73,38.84Z"/><path class="cls-5" d="M101.11,46.72l-21.3,1a1.89,1.89,0,0,1-2-1.78h0a1.89,1.89,0,0,1,1.78-2l21.3-1a1.88,1.88,0,0,1,2,1.79h0A1.89,1.89,0,0,1,101.11,46.72Z"/><path class="cls-5" d="M86.06,55.36l-5.87.29a1.89,1.89,0,0,1-2-1.78h0a1.89,1.89,0,0,1,1.78-2l5.87-.29a1.88,1.88,0,0,1,2,1.78h0A1.88,1.88,0,0,1,86.06,55.36Z"/><path class="cls-5" d="M97.44,54.79l-5.87.28a1.89,1.89,0,0,1-2-1.78h0a1.89,1.89,0,0,1,1.78-2l5.87-.28a1.88,1.88,0,0,1,2,1.78h0A1.89,1.89,0,0,1,97.44,54.79Z"/><path class="cls-5" d="M101.87,62.47l-21.3,1a1.89,1.89,0,0,1-2-1.78h0a1.88,1.88,0,0,1,1.78-2l21.3-1a1.88,1.88,0,0,1,2,1.78h0A1.89,1.89,0,0,1,101.87,62.47Z"/><path class="cls-5" d="M96.43,70.63,81,71.38a1.89,1.89,0,0,1-2-1.78h0a1.88,1.88,0,0,1,1.78-2l15.48-.75a1.89,1.89,0,0,1,2,1.78h0A1.89,1.89,0,0,1,96.43,70.63Z"/></g><path class="cls-5" d="M55.43,66l-.56-2.07a6,6,0,0,0-6.73-4.4L18.11,63a7.54,7.54,0,0,0-6.62,7.46L13.19,142a4.13,4.13,0,0,0,4.2,4.06A5.07,5.07,0,0,0,18,146l107.46-12.57a5.17,5.17,0,0,0,4.54-5.1l-1.47-61.84a4.13,4.13,0,0,0-4.21-4.06,3.31,3.31,0,0,0-.55,0l-62.4,7.29A5.28,5.28,0,0,1,55.43,66Z"/><path class="cls-3" d="M55.43,66l-.56-2.07a6,6,0,0,0-6.73-4.4L18.11,63a7.54,7.54,0,0,0-6.62,7.46L13.19,142a4.13,4.13,0,0,0,4.2,4.06A5.07,5.07,0,0,0,18,146l107.46-12.57a5.17,5.17,0,0,0,4.54-5.1l-1.47-61.84a4.13,4.13,0,0,0-4.21-4.06,3.31,3.31,0,0,0-.55,0l-62.4,7.29A5.28,5.28,0,0,1,55.43,66Z"/></g><g id="freepik--Character--inject-216"><path class="cls-9" d="M147.75,46.66l-3.53-3.52-1.88,5.51a6.65,6.65,0,0,0,5.82.09Z"/><path class="cls-5" d="M167.42,57.91l.63,0c.12,0,.21-.08.2-.16l-.52-2.6a.23.23,0,0,0-.25-.12l-.63.05c-.13,0-.21.08-.19.16l.51,2.6C167.19,57.88,167.3,57.92,167.42,57.91Z"/><polygon class="cls-5" points="170.63 77.99 174.26 38.52 166.5 32.57 142.81 30.39 138.69 75.05 170.63 77.99"/><polygon class="cls-8" points="170.63 77.99 174.26 38.52 166.5 32.57 142.81 30.39 138.69 75.05 170.63 77.99"/><polygon class="cls-3" points="174.26 38.52 166.5 32.57 168.53 39.69 174.26 38.52"/><circle class="cls-3" cx="141.47" cy="72.27" r="9.68"/><circle class="cls-10" cx="141.47" cy="72.26" r="7.72"/><polygon class="cls-3" points="146.24 71.59 142.83 71.19 143.23 67.79 140.79 67.5 140.4 70.9 136.99 70.5 136.7 72.95 140.11 73.35 139.7 76.75 142.15 77.04 142.54 73.63 145.95 74.03 146.24 71.59"/><path class="cls-11" d="M168.47,46.7h0a2.65,2.65,0,0,1-2.87,2.39h0L148.31,47.5a2.65,2.65,0,0,1-2.39-2.88h0a2.64,2.64,0,0,1,2.87-2.38h0l17.28,1.59a2.64,2.64,0,0,1,2.39,2.86Z"/><path class="cls-11" d="M162.58,53.83h0a2.65,2.65,0,0,1-2.87,2.39h0l-12.08-1.11a2.65,2.65,0,0,1-2.39-2.87h0a2.63,2.63,0,0,1,2.87-2.38h0L160.19,51A2.64,2.64,0,0,1,162.58,53.83Z"/></g></svg>