<svg xmlns="http://www.w3.org/2000/svg" viewBox="0 0 175.63 170.11"><defs><style>.cls-1,.cls-2,.cls-4{isolation:isolate;}.cls-2,.cls-4{opacity:0.9;}.cls-3,.cls-4{fill:#005bb5;}.cls-11,.cls-5{fill:#c6ebff;}.cls-6{fill:#fff;}.cls-7{fill:#d8d8d8;}.cls-11,.cls-7,.cls-9{opacity:0.5;}.cls-8{fill:#39f;}.cls-9{mix-blend-mode:soft-light;}.cls-10{opacity:0.7;}</style></defs><title>prescreption</title><g class="cls-1"><g id="Isolation_Mode" data-name="Isolation Mode"><g id="freepik--background-simple--inject-48" class="cls-2"><path class="cls-3" d="M60.47,156.08C44.91,156.67,0,143.92,0,103.27,0,60.92,26.55,50.21,62.6,50.21c33.65,0,25.14-41.87,70.66-41.87,38.53,0,69.2,74.76,6.18,100.09C100.21,124.19,106.92,154.32,60.47,156.08Z"/><path class="cls-4" d="M60.47,156.08C44.91,156.67,0,143.92,0,103.27,0,60.92,26.55,50.21,62.6,50.21c33.65,0,25.14-41.87,70.66-41.87,38.53,0,69.2,74.76,6.18,100.09C100.21,124.19,106.92,154.32,60.47,156.08Z"/></g><circle class="cls-5" cx="137.26" cy="36.25" r="36.25" transform="translate(73.57 163.13) rotate(-78.14)"/><circle class="cls-6" cx="137.26" cy="36.25" r="31.3" transform="translate(2.6 81.22) rotate(-33.26)"/><path class="cls-7" d="M143,7.85a31.29,31.29,0,0,1,24.74,35.69c.09-.37.18-.75.26-1.13A31.3,31.3,0,1,0,106.57,30.1c-.08.38-.14.77-.2,1.15A31.28,31.28,0,0,1,143,7.85Z"/><path class="cls-8" d="M142.13,12h0a.78.78,0,0,1-.61-.91l.77-3.8a.77.77,0,0,1,.91-.61h0a.78.78,0,0,1,.61.91L143,11.35A.77.77,0,0,1,142.13,12Z"/><path class="cls-8" d="M129.33,12.77h0a.78.78,0,0,1-1-.48L127.1,8.61a.78.78,0,0,1,.49-1h0a.77.77,0,0,1,1,.48l1.24,3.68A.77.77,0,0,1,129.33,12.77Z"/><path class="cls-8" d="M118.65,19.88h0a.76.76,0,0,1-1.09.07l-2.92-2.56a.77.77,0,0,1-.07-1.09h0a.79.79,0,0,1,1.1-.07l2.91,2.56A.77.77,0,0,1,118.65,19.88Z"/><path class="cls-8" d="M113,31.38h0a.79.79,0,0,1-.91.61l-3.81-.76a.79.79,0,0,1-.61-.92h0a.78.78,0,0,1,.92-.6l3.8.76A.78.78,0,0,1,113,31.38Z"/><path class="cls-8" d="M113.78,44.19h0a.78.78,0,0,1-.49,1l-3.67,1.24a.78.78,0,0,1-1-.49h0a.78.78,0,0,1,.49-1l3.67-1.24A.78.78,0,0,1,113.78,44.19Z"/><path class="cls-8" d="M132.39,60.55h0a.79.79,0,0,1,.61.92l-.77,3.8a.78.78,0,0,1-.91.61h0a.78.78,0,0,1-.61-.91l.76-3.81A.79.79,0,0,1,132.39,60.55Z"/><path class="cls-8" d="M145.19,59.73h0a.78.78,0,0,1,1,.49l1.25,3.68a.79.79,0,0,1-.49,1h0a.78.78,0,0,1-1-.49l-1.24-3.67A.8.8,0,0,1,145.19,59.73Z"/><path class="cls-8" d="M155.87,52.62h0a.77.77,0,0,1,1.09-.07l2.92,2.57a.77.77,0,0,1,.07,1.09h0a.79.79,0,0,1-1.1.07l-2.91-2.56A.79.79,0,0,1,155.87,52.62Z"/><path class="cls-8" d="M161.56,41.13h0a.77.77,0,0,1,.91-.61l3.81.76a.78.78,0,0,1,.61.91h0a.78.78,0,0,1-.92.61l-3.8-.76A.78.78,0,0,1,161.56,41.13Z"/><path class="cls-8" d="M160.74,28.32h0a.77.77,0,0,1,.49-1l3.67-1.24a.78.78,0,0,1,1,.48h0a.8.8,0,0,1-.49,1l-3.68,1.24A.77.77,0,0,1,160.74,28.32Z"/><path class="cls-8" d="M153.63,17.65h0a.79.79,0,0,1-.07-1.1l2.56-2.91a.79.79,0,0,1,1.1-.07h0a.77.77,0,0,1,.07,1.09l-2.57,2.92A.77.77,0,0,1,153.63,17.65Z"/><path class="cls-8" d="M136.46,36.85h0a1.22,1.22,0,0,1-.16-1.76l13.77-15.82.43.34-12.29,17A1.23,1.23,0,0,1,136.46,36.85Z"/><path class="cls-8" d="M138.53,36h0a1.82,1.82,0,0,1-2.44,1L123.8,33.17l0-.21,12.83,1.19C137.83,34.25,138.71,35.13,138.53,36Z"/><path class="cls-5" d="M34,118.9a24.06,24.06,0,1,0,32.15,11.15A24.06,24.06,0,0,0,34,118.9Zm15.82,32.62a12.19,12.19,0,1,1,5.64-16.29A12.2,12.2,0,0,1,49.86,151.52Z"/><rect class="cls-5" x="29.17" y="110.93" width="9.75" height="12.67" rx="2.06" ry="2.06" transform="translate(-47.77 26.62) rotate(-25.88)"/><rect class="cls-5" x="14.53" y="131.29" width="9.75" height="12.67" rx="2.06" ry="2.06" transform="translate(-119.26 147.1) rotate(-85.88)"/><rect class="cls-5" x="24.85" y="154.15" width="9.75" height="12.67" rx="2.06" ry="2.06" transform="translate(-35.68 310.01) rotate(-145.88)"/><rect class="cls-5" x="49.8" y="156.64" width="9.75" height="12.67" rx="2.06" ry="2.06" transform="translate(175 285.74) rotate(154.12)"/><rect class="cls-5" x="64.43" y="136.28" width="9.75" height="12.67" rx="2.06" ry="2.06" transform="translate(216.53 83.73) rotate(94.12)"/><rect class="cls-5" x="54.11" y="113.43" width="9.75" height="12.67" rx="2.06" ry="2.06" transform="translate(77.33 -12.48) rotate(34.12)"/><rect class="cls-8" x="36.08" y="18.02" width="93.81" height="133.31" rx="10.45" ry="10.45" transform="translate(-29.18 46.28) rotate(-26.68)"/><path class="cls-9" d="M76.19,15.13,65.43,20.54a13.23,13.23,0,0,0-.77-1.26L41.44,31A14.33,14.33,0,0,0,42,32.31L31.23,37.72a6.42,6.42,0,0,0-2.85,8.62l1.09,2.17L85.9,20.15,84.81,18A6.42,6.42,0,0,0,76.19,15.13Z"/><rect class="cls-9" x="42.78" y="26.02" width="81.47" height="119.42" rx="6.62" ry="6.62" transform="translate(-29.6 46.63) rotate(-26.68)"/><rect class="cls-6" x="42.25" y="24.96" width="81.47" height="119.42" rx="6.62" ry="6.62" transform="translate(-29.18 46.28) rotate(-26.68)"/><path class="cls-5" d="M30.77,26.41H81.08a6.42,6.42,0,0,1,6.42,6.42v2.43a0,0,0,0,1,0,0H24.35a0,0,0,0,1,0,0V32.83a6.42,6.42,0,0,1,6.42-6.42Z" transform="translate(-7.89 28.4) rotate(-26.68)"/><path class="cls-5" d="M48.19,15.44a13.1,13.1,0,0,0-5.83,17.61L65.8,21.27A13.11,13.11,0,0,0,48.19,15.44Zm4.33,8.62a2.77,2.77,0,1,1,1.23-3.73A2.78,2.78,0,0,1,52.52,24.06Z"/><g class="cls-10"><path class="cls-5" d="M50.94,67.45l-9.15,4.6a2,2,0,0,1-2.65-.88L34.53,62a2,2,0,0,1,.88-2.65l9.16-4.6a2,2,0,0,1,2.65.88l4.6,9.15A2,2,0,0,1,50.94,67.45ZM35.83,60.19a1,1,0,0,0-.47,1.41L40,70.75a1,1,0,0,0,1.4.47l9.16-4.6A1.05,1.05,0,0,0,51,65.21l-4.6-9.15A1,1,0,0,0,45,55.59Z"/></g><polygon class="cls-8" points="38.52 66.49 44.98 68.02 50.2 53.83 47.05 52.75 43.34 64.65 39.42 63.7 38.52 66.49"/><rect class="cls-11" x="50.49" y="42.77" width="43.27" height="2.68" transform="translate(-12.13 37.09) rotate(-26.68)"/><rect class="cls-11" x="53.12" y="49.33" width="32.08" height="2.68" transform="translate(-15.39 36.46) rotate(-26.68)"/><rect class="cls-11" x="55.88" y="56.42" width="18.57" height="2.68" transform="translate(-19 35.42) rotate(-26.68)"/><g class="cls-10"><path class="cls-5" d="M61.92,89.28l-9.16,4.6A2,2,0,0,1,50.11,93l-4.6-9.16a2,2,0,0,1,.88-2.65l9.15-4.6a2,2,0,0,1,2.65.87l4.61,9.16A2,2,0,0,1,61.92,89.28ZM46.8,82a1,1,0,0,0-.46,1.4l4.6,9.16a1,1,0,0,0,1.41.46l9.15-4.6a1,1,0,0,0,.47-1.4l-4.6-9.16A1.05,1.05,0,0,0,56,77.43Z"/></g><polygon class="cls-8" points="49.5 88.32 55.96 89.86 61.17 75.67 58.02 74.58 54.32 86.48 50.39 85.53 49.5 88.32"/><rect class="cls-11" x="61.47" y="64.6" width="43.27" height="2.68" transform="translate(-20.76 44.34) rotate(-26.68)"/><rect class="cls-11" x="64.1" y="71.17" width="32.08" height="2.68" transform="translate(-24.03 43.71) rotate(-26.68)"/><rect class="cls-11" x="66.85" y="78.25" width="18.57" height="2.68" transform="translate(-27.63 42.67) rotate(-26.68)"/><g class="cls-10"><path class="cls-5" d="M72.89,111.12l-9.15,4.6a2,2,0,0,1-2.65-.88l-4.61-9.15a2,2,0,0,1,.88-2.65l9.16-4.61a2,2,0,0,1,2.65.88l4.6,9.16A2,2,0,0,1,72.89,111.12Zm-15.11-7.26a1,1,0,0,0-.47,1.41l4.61,9.16a1,1,0,0,0,1.4.46l9.16-4.6a1.05,1.05,0,0,0,.46-1.41l-4.6-9.15a1,1,0,0,0-1.41-.47Z"/></g><polygon class="cls-8" points="60.47 110.16 66.93 111.7 72.15 97.51 69 96.42 65.29 108.32 61.37 107.37 60.47 110.16"/><rect class="cls-11" x="72.44" y="86.44" width="43.27" height="2.68" transform="translate(-29.4 51.6) rotate(-26.68)"/><rect class="cls-11" x="75.07" y="93" width="32.08" height="2.68" transform="translate(-32.66 50.97) rotate(-26.68)"/><rect class="cls-11" x="77.83" y="100.09" width="18.57" height="2.68" transform="translate(-36.27 49.92) rotate(-26.68)"/><g class="cls-10"><path class="cls-5" d="M83.87,133l-9.16,4.61a2,2,0,0,1-2.65-.88l-4.6-9.16a2,2,0,0,1,.88-2.65l9.15-4.6a2,2,0,0,1,2.65.88l4.61,9.15A2,2,0,0,1,83.87,133ZM68.75,125.7a1.05,1.05,0,0,0-.46,1.41l4.6,9.15a1,1,0,0,0,1.41.47l9.15-4.6a1,1,0,0,0,.47-1.41l-4.6-9.16a1.05,1.05,0,0,0-1.41-.46Z"/></g><polygon class="cls-8" points="71.45 132 77.91 133.53 83.12 119.34 79.97 118.26 76.27 130.16 72.34 129.21 71.45 132"/><rect class="cls-11" x="83.42" y="108.27" width="43.27" height="2.68" transform="translate(-38.04 58.85) rotate(-26.68)"/><rect class="cls-11" x="86.05" y="114.84" width="32.08" height="2.68" transform="translate(-41.3 58.22) rotate(-26.68)"/><rect class="cls-11" x="88.81" y="121.93" width="18.57" height="2.68" transform="translate(-44.91 57.18) rotate(-26.68)"/></g></g></svg>